font.ufo
<glyph name="exclam" format="1">
  <advance width="393"/>
  <unicode hex="0021"/>
  <outline>
    <contour>
      <point x="197" y="-14" type="curve" smooth="yes"/>
      <point x="233" y="-14"/>
      <point x="263" y="15"/>
      <point x="263" y="52" type="curve" smooth="yes"/>
      <point x="263" y="88"/>
      <point x="233" y="118"/>
      <point x="197" y="118" type="curve" smooth="yes"/>
      <point x="161" y="118"/>
      <point x="131" y="88"/>
      <point x="131" y="52" type="curve" smooth="yes"/>
      <point x="131" y="15"/>
      <point x="161" y="-14"/>
    </contour>
    <contour>
      <point x="115" y="711" type="line"/>
      <point x="152" y="180" type="line"/>
      <point x="241" y="180" type="line"/>
      <point x="267" y="711" type="line"/>
    </contour>
  </outline>
</glyph>
<glyph name="quotedbl" format="1">
  <advance width="317"/>
  <unicode hex="0022"/>
  <outline>
    <contour>
      <point x="41" y="777" type="line"/>
      <point x="69" y="545" type="line"/>
      <point x="113" y="545" type="line"/>
      <point x="140" y="777" type="line"/>
    </contour>
    <contour>
      <point x="176" y="777" type="line"/>
      <point x="204" y="545" type="line"/>
      <point x="249" y="545" type="line"/>
      <point x="276" y="777" type="line"/>
    </contour>
  </outline>
</glyph>
<glyph name="numbersign" format="1">
  <advance width="704"/>
  <unicode hex="0023"/>
  <outline>
    <contour>
      <point x="670" y="421" type="line"/>
      <point x="670" y="498" type="line"/>
      <point x="85" y="498" type="line"/>
      <point x="85" y="421" type="line"/>
    </contour>
    <contour>
      <point x="628" y="165" type="line"/>
      <point x="628" y="242" type="line"/>
      <point x="43" y="242" type="line"/>
      <point x="43" y="165" type="line"/>
    </contour>
    <contour>
      <point x="217" y="0" type="line"/>
      <point x="347" y="658" type="line"/>
      <point x="265" y="658" type="line"/>
      <point x="134" y="0" type="line"/>
    </contour>
    <contour>
      <point x="451" y="0" type="line"/>
      <point x="581" y="658" type="line"/>
      <point x="499" y="658" type="line"/>
      <point x="367" y="0" type="line"/>
    </contour>
  </outline>
</glyph>
<glyph name="dollar" format="1">
  <advance width="520"/>
  <unicode hex="0024"/>
  <outline>
    <contour>
      <point x="290" y="723" type="line"/>
      <point x="290" y="-87" type="line"/>
      <point x="242" y="-87" type="line"/>
      <point x="242" y="723" type="line"/>
    </contour>
    <contour>
      <point x="448" y="618" type="curve"/>
      <point x="448" y="568"/>
      <point x="442" y="510"/>
      <point x="435" y="465" type="curve"/>
      <point x="422" y="465"/>
      <point x="407" y="466"/>
      <point x="394" y="468" type="curve"/>
      <point x="381" y="561"/>
      <point x="334" y="590"/>
      <point x="274" y="590" type="curve" smooth="yes"/>
      <point x="216" y="590"/>
      <point x="173" y="560"/>
      <point x="173" y="508" type="curve" smooth="yes"/>
      <point x="173" y="361"/>
      <point x="477" y="389"/>
      <point x="477" y="176" type="curve" smooth="yes"/>
      <point x="477" y="57"/>
      <point x="371" y="-12"/>
      <point x="251" y="-12" type="curve" smooth="yes"/>
      <point x="193" y="-12"/>
      <point x="129" y="2"/>
      <point x="63" y="23" type="curve"/>
      <point x="60" y="83"/>
      <point x="66" y="161"/>
      <point x="71" y="205" type="curve"/>
      <point x="89" y="205"/>
      <point x="103" y="204"/>
      <point x="122" y="201" type="curve"/>
      <point x="120" y="84"/>
      <point x="178" y="49"/>
      <point x="258" y="49" type="curve" smooth="yes"/>
      <point x="321" y="49"/>
      <point x="363" y="82"/>
      <point x="363" y="135" type="curve" smooth="yes"/>
      <point x="363" y="289"/>
      <point x="66" y="261"/>
      <point x="66" y="477" type="curve" smooth="yes"/>
      <point x="66" y="587"/>
      <point x="157" y="648"/>
      <point x="277" y="648" type="curve" smooth="yes"/>
      <point x="344" y="648"/>
      <point x="397" y="635"/>
    </contour>
  </outline>
</glyph>
<glyph name="percent" format="1">
  <advance width="746"/>
  <unicode hex="0025"/>
  <outline>
    <contour>
      <point x="357" y="482" type="curve" smooth="yes"/>
      <point x="357" y="377"/>
      <point x="275" y="318"/>
      <point x="194" y="318" type="curve" smooth="yes"/>
      <point x="112" y="318"/>
      <point x="32" y="377"/>
      <point x="32" y="482" type="curve" smooth="yes"/>
      <point x="32" y="587"/>
      <point x="112" y="648"/>
      <point x="194" y="648" type="curve" smooth="yes"/>
      <point x="275" y="648"/>
      <point x="357" y="587"/>
    </contour>
    <contour>
      <point x="146" y="482" type="curve" smooth="yes"/>
      <point x="147" y="404"/>
      <point x="155" y="361"/>
      <point x="196" y="361" type="curve" smooth="yes"/>
      <point x="235" y="361"/>
      <point x="243" y="403"/>
      <point x="242" y="482" type="curve" smooth="yes"/>
      <point x="240" y="563"/>
      <point x="232" y="604"/>
      <point x="192" y="604" type="curve" smooth="yes"/>
      <point x="152" y="604"/>
      <point x="144" y="562"/>
    </contour>
    <contour>
      <point x="620" y="635" type="line"/>
      <point x="197" y="0" type="line"/>
      <point x="126" y="0" type="line"/>
      <point x="549" y="635" type="line"/>
    </contour>
    <contour>
      <point x="715" y="151" type="curve" smooth="yes"/>
      <point x="715" y="46"/>
      <point x="647" y="-13"/>
      <point x="552" y="-13" type="curve" smooth="yes"/>
      <point x="456" y="-13"/>
      <point x="390" y="46"/>
      <point x="390" y="151" type="curve" smooth="yes"/>
      <point x="390" y="256"/>
      <point x="456" y="317"/>
      <point x="552" y="317" type="curve" smooth="yes"/>
      <point x="647" y="317"/>
      <point x="715" y="256"/>
    </contour>
    <contour>
      <point x="504" y="151" type="curve" smooth="yes"/>
      <point x="505" y="73"/>
      <point x="513" y="30"/>
      <point x="554" y="30" type="curve" smooth="yes"/>
      <point x="593" y="30"/>
      <point x="601" y="72"/>
      <point x="600" y="151" type="curve" smooth="yes"/>
      <point x="598" y="232"/>
      <point x="590" y="273"/>
      <point x="550" y="273" type="curve" smooth="yes"/>
      <point x="510" y="273"/>
      <point x="502" y="231"/>
    </contour>
  </outline>
</glyph>
<glyph name="ampersand" format="1">
  <advance width="706"/>
  <unicode hex="0026"/>
  <outline>
    <contour>
      <point x="144" y="489" type="curve" smooth="yes"/>
      <point x="144" y="437"/>
      <point x="167" y="403"/>
      <point x="204" y="357" type="curve" smooth="yes"/>
      <point x="487" y="0" type="line"/>
      <point x="670" y="0" type="line"/>
      <point x="676" y="17"/>
      <point x="677" y="32"/>
      <point x="677" y="45" type="curve"/>
      <point x="626" y="48"/>
      <point x="593" y="65"/>
      <point x="556" y="112" type="curve" smooth="yes"/>
      <point x="316" y="415" type="line" smooth="yes"/>
      <point x="286" y="453"/>
      <point x="277" y="474"/>
      <point x="277" y="509" type="curve" smooth="yes"/>
      <point x="277" y="553"/>
      <point x="306" y="586"/>
      <point x="343" y="586" type="curve" smooth="yes"/>
      <point x="381" y="586"/>
      <point x="411" y="553"/>
      <point x="411" y="503" type="curve" smooth="yes"/>
      <point x="411" y="448"/>
      <point x="377" y="405"/>
      <point x="308" y="377" type="curve"/>
      <point x="330" y="345" type="line"/>
      <point x="461" y="387"/>
      <point x="537" y="426"/>
      <point x="537" y="510" type="curve" smooth="yes"/>
      <point x="537" y="584"/>
      <point x="471" y="648"/>
      <point x="345" y="648" type="curve" smooth="yes"/>
      <point x="224" y="648"/>
      <point x="144" y="577"/>
    </contour>
    <contour>
      <point x="39" y="144" type="curve" smooth="yes"/>
      <point x="39" y="48"/>
      <point x="114" y="-13"/>
      <point x="218" y="-13" type="curve" smooth="yes"/>
      <point x="321" y="-13"/>
      <point x="377" y="33"/>
      <point x="464" y="140" type="curve"/>
      <point x="425" y="169" type="line"/>
      <point x="367" y="104"/>
      <point x="328" y="80"/>
      <point x="272" y="80" type="curve" smooth="yes"/>
      <point x="208" y="80"/>
      <point x="170" y="119"/>
      <point x="170" y="178" type="curve" smooth="yes"/>
      <point x="170" y="234"/>
      <point x="204" y="282"/>
      <point x="287" y="312" type="curve"/>
      <point x="267" y="344" type="line"/>
      <point x="138" y="316"/>
      <point x="39" y="255"/>
    </contour>
    <contour>
      <point x="484" y="296" type="curve"/>
      <point x="511" y="295"/>
      <point x="533" y="290"/>
      <point x="560" y="280" type="curve"/>
      <point x="556" y="295" type="line"/>
      <point x="453" y="190" type="line"/>
      <point x="488" y="158" type="line"/>
      <point x="570" y="242" type="line" smooth="yes"/>
      <point x="606" y="277"/>
      <point x="635" y="291"/>
      <point x="676" y="296" type="curve"/>
      <point x="679" y="309"/>
      <point x="680" y="328"/>
      <point x="679" y="343" type="curve"/>
      <point x="487" y="343" type="line"/>
      <point x="485" y="329"/>
      <point x="483" y="310"/>
    </contour>
  </outline>
</glyph>
<glyph name="quotesingle" format="1">
  <advance width="181"/>
  <unicode hex="0027"/>
  <outline>
    <contour>
      <point x="41" y="777" type="line"/>
      <point x="69" y="545" type="line"/>
      <point x="113" y="545" type="line"/>
      <point x="140" y="777" type="line"/>
    </contour>
  </outline>
</glyph>
<glyph name="parenleft" format="1">
  <advance width="447"/>
  <unicode hex="0028"/>
  <outline>
    <contour>
      <point x="424" y="760" type="line"/>
      <point x="293" y="642"/>
      <point x="240" y="475"/>
      <point x="240" y="326" type="curve" smooth="yes"/>
      <point x="240" y="178"/>
      <point x="293" y="7"/>
      <point x="424" y="-111" type="curve"/>
      <point x="371" y="-151" type="line"/>
      <point x="198" y="-25"/>
      <point x="120" y="146"/>
      <point x="120" y="326" type="curve" smooth="yes"/>
      <point x="120" y="508"/>
      <point x="198" y="674"/>
      <point x="371" y="799" type="curve"/>
    </contour>
  </outline>
</glyph>
<glyph name="parenright" format="1">
  <advance width="447"/>
  <unicode hex="0029"/>
  <outline>
    <contour>
      <point x="327" y="326" type="curve" smooth="yes"/>
      <point x="327" y="146"/>
      <point x="249" y="-25"/>
      <point x="76" y="-151" type="curve"/>
      <point x="23" y="-111" type="line"/>
      <point x="155" y="7"/>
      <point x="207" y="178"/>
      <point x="207" y="326" type="curve" smooth="yes"/>
      <point x="207" y="475"/>
      <point x="155" y="642"/>
      <point x="23" y="760" type="curve"/>
      <point x="76" y="799" type="line"/>
      <point x="249" y="674"/>
      <point x="327" y="508"/>
    </contour>
  </outline>
</glyph>
<glyph name="asterisk" format="1">
  <advance width="474"/>
  <unicode hex="002A"/>
  <outline>
    <contour>
      <point x="252" y="542" type="line"/>
      <point x="366" y="599" type="line"/>
      <point x="380" y="582"/>
      <point x="393" y="525"/>
      <point x="393" y="501" type="curve"/>
      <point x="265" y="490" type="line"/>
      <point x="360" y="402" type="line"/>
      <point x="349" y="383"/>
      <point x="304" y="349"/>
      <point x="279" y="343" type="curve"/>
      <point x="225" y="455" type="line"/>
      <point x="173" y="343" type="line"/>
      <point x="151" y="349"/>
      <point x="103" y="380"/>
      <point x="91" y="402" type="curve"/>
      <point x="182" y="490" type="line"/>
      <point x="54" y="502" type="line"/>
      <point x="54" y="527"/>
      <point x="67" y="583"/>
      <point x="82" y="599" type="curve"/>
      <point x="195" y="544" type="line"/>
      <point x="172" y="672" type="line"/>
      <point x="192" y="681"/>
      <point x="249" y="680"/>
      <point x="272" y="673" type="curve"/>
    </contour>
  </outline>
</glyph>
<glyph name="plus" format="1">
  <advance width="587"/>
  <unicode hex="002B"/>
  <outline>
    <contour>
      <point x="333" y="578" type="line"/>
      <point x="333" y="379" type="line"/>
      <point x="539" y="379" type="line"/>
      <point x="539" y="300" type="line"/>
      <point x="333" y="300" type="line"/>
      <point x="333" y="102" type="line"/>
      <point x="254" y="102" type="line"/>
      <point x="254" y="300" type="line"/>
      <point x="48" y="300" type="line"/>
      <point x="48" y="379" type="line"/>
      <point x="254" y="379" type="line"/>
      <point x="254" y="578" type="line"/>
    </contour>
  </outline>
</glyph>
<glyph name="comma" format="1">
  <advance width="210"/>
  <unicode hex="002C"/>
  <outline>
    <contour>
      <point x="163" y="18" type="curve" smooth="yes"/>
      <point x="163" y="-41"/>
      <point x="131" y="-96"/>
      <point x="80" y="-129" type="curve"/>
      <point x="50" y="-109" type="line"/>
      <point x="77" y="-86"/>
      <point x="90" y="-65"/>
      <point x="90" y="-34" type="curve" smooth="yes"/>
      <point x="90" y="9"/>
      <point x="47" y="22"/>
      <point x="47" y="62" type="curve" smooth="yes"/>
      <point x="47" y="89"/>
      <point x="67" y="109"/>
      <point x="95" y="109" type="curve" smooth="yes"/>
      <point x="128" y="109"/>
      <point x="163" y="77"/>
    </contour>
  </outline>
</glyph>
<glyph name="hyphen" format="1">
  <advance width="461"/>
  <unicode hex="002D"/>
  <outline>
    <contour>
      <point x="409" y="268" type="line"/>
      <point x="409" y="347" type="line"/>
      <point x="52" y="347" type="line"/>
      <point x="52" y="268" type="line"/>
    </contour>
  </outline>
</glyph>
<glyph name="period" format="1">
  <advance width="211"/>
  <unicode hex="002E"/>
  <outline>
    <contour>
      <point x="105" y="-13" type="curve" smooth="yes"/>
      <point x="138" y="-13"/>
      <point x="164" y="14"/>
      <point x="164" y="46" type="curve" smooth="yes"/>
      <point x="164" y="78"/>
      <point x="138" y="105"/>
      <point x="105" y="105" type="curve" smooth="yes"/>
      <point x="73" y="105"/>
      <point x="47" y="78"/>
      <point x="47" y="46" type="curve" smooth="yes"/>
      <point x="47" y="14"/>
      <point x="73" y="-13"/>
    </contour>
  </outline>
</glyph>
<glyph name="slash" format="1">
  <advance width="461"/>
  <unicode hex="002F"/>
  <outline>
    <contour>
      <point x="271" y="737" type="line"/>
      <point x="66" y="-76" type="line"/>
      <point x="165" y="-76" type="line"/>
      <point x="371" y="737" type="line"/>
    </contour>
  </outline>
</glyph>
<glyph name="zero" format="1">
  <advance width="548"/>
  <unicode hex="0030"/>
  <outline>
    <contour>
      <point x="296" y="635" type="move" name="top"/>
    </contour>
    <contour>
      <point x="505" y="316" type="curve" smooth="yes"/>
      <point x="505" y="106"/>
      <point x="415" y="-13"/>
      <point x="273" y="-13" type="curve" smooth="yes"/>
      <point x="132" y="-13"/>
      <point x="43" y="106"/>
      <point x="43" y="316" type="curve" smooth="yes"/>
      <point x="43" y="526"/>
      <point x="132" y="649"/>
      <point x="273" y="649" type="curve" smooth="yes"/>
      <point x="415" y="649"/>
      <point x="505" y="526"/>
    </contour>
    <contour>
      <point x="178" y="316" type="curve" smooth="yes"/>
      <point x="180" y="142"/>
      <point x="196" y="47"/>
      <point x="277" y="47" type="curve" smooth="yes"/>
      <point x="357" y="47"/>
      <point x="373" y="140"/>
      <point x="371" y="317" type="curve" smooth="yes"/>
      <point x="368" y="498"/>
      <point x="350" y="588"/>
      <point x="269" y="588" type="curve" smooth="yes"/>
      <point x="191" y="588"/>
      <point x="174" y="496"/>
    </contour>
  </outline>
</glyph>
<glyph name="one" format="1">
  <advance width="348"/>
  <unicode hex="0031"/>
  <outline>
    <contour>
      <point x="242" y="32" type="line"/>
      <point x="230" y="72" type="line"/>
      <point x="261" y="57"/>
      <point x="292" y="49"/>
      <point x="329" y="46" type="curve"/>
      <point x="329" y="32"/>
      <point x="328" y="14"/>
      <point x="325" y="0" type="curve"/>
      <point x="20" y="0" type="line"/>
      <point x="19" y="15"/>
      <point x="20" y="33"/>
      <point x="25" y="46" type="curve"/>
      <point x="81" y="52"/>
      <point x="119" y="62"/>
      <point x="119" y="101" type="curve" smooth="yes"/>
      <point x="119" y="560" type="line"/>
      <point x="158" y="534" type="line"/>
      <point x="25" y="513" type="line"/>
      <point x="24" y="528"/>
      <point x="24" y="537"/>
      <point x="28" y="547" type="curve"/>
      <point x="98" y="590"/>
      <point x="160" y="625"/>
      <point x="216" y="652" type="curve"/>
      <point x="242" y="642" type="line"/>
    </contour>
  </outline>
</glyph>
<glyph name="two" format="1">
  <advance width="488"/>
  <unicode hex="0032"/>
  <outline>
    <contour>
      <point x="77" y="593" type="curve"/>
      <point x="71" y="551"/>
      <point x="71" y="490"/>
      <point x="72" y="447" type="curve"/>
      <point x="81" y="446"/>
      <point x="101" y="445"/>
      <point x="111" y="446" type="curve"/>
      <point x="125" y="512"/>
      <point x="163" y="542"/>
      <point x="212" y="542" type="curve" smooth="yes"/>
      <point x="261" y="542"/>
      <point x="299" y="504"/>
      <point x="299" y="444" type="curve" smooth="yes"/>
      <point x="299" y="367"/>
      <point x="250" y="301"/>
      <point x="44" y="84" type="curve"/>
      <point x="44" y="67"/>
      <point x="48" y="32"/>
      <point x="54" y="0" type="curve"/>
      <point x="420" y="0" type="line"/>
      <point x="438" y="60"/>
      <point x="443" y="129"/>
      <point x="443" y="184" type="curve"/>
      <point x="433" y="188"/>
      <point x="423" y="191"/>
      <point x="414" y="191" type="curve"/>
      <point x="401" y="119"/>
      <point x="378" y="98"/>
      <point x="323" y="98" type="curve" smooth="yes"/>
      <point x="98" y="98" type="line"/>
      <point x="102" y="68" type="line"/>
      <point x="342" y="298"/>
      <point x="432" y="357"/>
      <point x="432" y="471" type="curve" smooth="yes"/>
      <point x="432" y="569"/>
      <point x="361" y="648"/>
      <point x="250" y="648" type="curve" smooth="yes"/>
      <point x="184" y="648"/>
      <point x="124" y="627"/>
    </contour>
  </outline>
</glyph>
<glyph name="three" format="1">
  <advance width="472"/>
  <unicode hex="0033"/>
  <outline>
    <contour>
      <point x="416" y="499" type="curve" smooth="yes"/>
      <point x="416" y="427"/>
      <point x="357" y="357"/>
      <point x="261" y="324" type="curve"/>
      <point x="261" y="346" type="line"/>
      <point x="374" y="322"/>
      <point x="428" y="258"/>
      <point x="428" y="172" type="curve" smooth="yes"/>
      <point x="428" y="67"/>
      <point x="334" y="-13"/>
      <point x="210" y="-13" type="curve" smooth="yes"/>
      <point x="139" y="-13"/>
      <point x="86" y="17"/>
      <point x="35" y="59" type="curve"/>
      <point x="44" y="82"/>
      <point x="54" y="97"/>
      <point x="67" y="106" type="curve"/>
      <point x="100" y="82"/>
      <point x="141" y="67"/>
      <point x="192" y="67" type="curve" smooth="yes"/>
      <point x="261" y="67"/>
      <point x="306" y="107"/>
      <point x="306" y="165" type="curve" smooth="yes"/>
      <point x="306" y="240"/>
      <point x="254" y="281"/>
      <point x="162" y="284" type="curve"/>
      <point x="162" y="335" type="line"/>
      <point x="241" y="344"/>
      <point x="284" y="396"/>
      <point x="284" y="462" type="curve" smooth="yes"/>
      <point x="284" y="518"/>
      <point x="249" y="557"/>
      <point x="203" y="557" type="curve" smooth="yes"/>
      <point x="155" y="557"/>
      <point x="115" y="528"/>
      <point x="99" y="467" type="curve"/>
      <point x="90" y="466"/>
      <point x="70" y="467"/>
      <point x="60" y="468" type="curve"/>
      <point x="59" y="511"/>
      <point x="59" y="555"/>
      <point x="65" y="597" type="curve"/>
      <point x="115" y="627"/>
      <point x="170" y="648"/>
      <point x="245" y="648" type="curve" smooth="yes"/>
      <point x="340" y="648"/>
      <point x="416" y="584"/>
    </contour>
  </outline>
</glyph>
<glyph name="four" format="1">
  <advance width="509"/>
  <unicode hex="0034"/>
  <outline>
    <contour>
      <point x="305" y="490" type="line"/>
      <point x="89" y="196" type="line"/>
      <point x="74" y="226" type="line"/>
      <point x="281" y="226" type="line"/>
      <point x="281" y="496" type="line"/>
    </contour>
    <contour>
      <point x="390" y="226" type="line"/>
      <point x="479" y="226" type="line"/>
      <point x="486" y="197"/>
      <point x="486" y="181"/>
      <point x="483" y="160" type="curve"/>
      <point x="390" y="160" type="line"/>
      <point x="390" y="35" type="line"/>
      <point x="379" y="64" type="line"/>
      <point x="402" y="50"/>
      <point x="429" y="46"/>
      <point x="453" y="46" type="curve"/>
      <point x="453" y="32"/>
      <point x="452" y="13"/>
      <point x="449" y="0" type="curve"/>
      <point x="214" y="0" type="line"/>
      <point x="213" y="14"/>
      <point x="214" y="33"/>
      <point x="218" y="46" type="curve"/>
      <point x="259" y="52"/>
      <point x="281" y="61"/>
      <point x="281" y="101" type="curve"/>
      <point x="281" y="160" type="line"/>
      <point x="52" y="160" type="line"/>
      <point x="39" y="178"/>
      <point x="30" y="195"/>
      <point x="25" y="216" type="curve"/>
      <point x="326" y="638" type="line"/>
      <point x="390" y="638" type="line"/>
    </contour>
  </outline>
</glyph>
<glyph name="five" format="1">
  <advance width="484"/>
  <unicode hex="0035"/>
  <outline>
    <contour>
      <point x="267" y="402" type="curve" smooth="yes"/>
      <point x="219" y="402"/>
      <point x="185" y="390"/>
      <point x="145" y="366" type="curve"/>
      <point x="163" y="527" type="line"/>
      <point x="398" y="527" type="line"/>
      <point x="414" y="579"/>
      <point x="422" y="621"/>
      <point x="424" y="665" type="curve"/>
      <point x="414" y="669"/>
      <point x="404" y="671"/>
      <point x="395" y="671" type="curve"/>
      <point x="383" y="643"/>
      <point x="360" y="625"/>
      <point x="310" y="625" type="curve" smooth="yes"/>
      <point x="106" y="625" type="line"/>
      <point x="73" y="290" type="line"/>
      <point x="92" y="280" type="line"/>
      <point x="134" y="307"/>
      <point x="168" y="324"/>
      <point x="210" y="324" type="curve" smooth="yes"/>
      <point x="270" y="324"/>
      <point x="315" y="279"/>
      <point x="315" y="204" type="curve" smooth="yes"/>
      <point x="315" y="120"/>
      <point x="261" y="67"/>
      <point x="188" y="67" type="curve" smooth="yes"/>
      <point x="136" y="67"/>
      <point x="97" y="81"/>
      <point x="62" y="106" type="curve"/>
      <point x="48" y="95"/>
      <point x="38" y="80"/>
      <point x="29" y="59" type="curve"/>
      <point x="75" y="17"/>
      <point x="134" y="-13"/>
      <point x="203" y="-13" type="curve" smooth="yes"/>
      <point x="335" y="-13"/>
      <point x="438" y="88"/>
      <point x="438" y="220" type="curve" smooth="yes"/>
      <point x="438" y="339"/>
      <point x="354" y="402"/>
    </contour>
  </outline>
</glyph>
<glyph name="six" format="1">
  <advance width="504"/>
  <unicode hex="0036"/>
  <outline>
    <contour>
      <point x="471" y="227" type="curve" smooth="yes"/>
      <point x="479" y="88"/>
      <point x="368" y="-12"/>
      <point x="254" y="-12" type="curve" smooth="yes"/>
      <point x="146" y="-12"/>
      <point x="58" y="75"/>
      <point x="51" y="219" type="curve" smooth="yes"/>
      <point x="40" y="406"/>
      <point x="174" y="579"/>
      <point x="359" y="655" type="curve"/>
      <point x="390" y="636"/>
      <point x="396" y="621"/>
      <point x="396" y="607" type="curve"/>
      <point x="229" y="529"/>
      <point x="163" y="359"/>
      <point x="171" y="207" type="curve" smooth="yes"/>
      <point x="175" y="114"/>
      <point x="210" y="55"/>
      <point x="259" y="55" type="curve" smooth="yes"/>
      <point x="311" y="55"/>
      <point x="358" y="107"/>
      <point x="354" y="201" type="curve" smooth="yes"/>
      <point x="351" y="274"/>
      <point x="304" y="321"/>
      <point x="247" y="321" type="curve" smooth="yes"/>
      <point x="205" y="321"/>
      <point x="171" y="305"/>
      <point x="132" y="270" type="curve"/>
      <point x="160" y="339" type="line"/>
      <point x="195" y="372"/>
      <point x="249" y="394"/>
      <point x="299" y="394" type="curve" smooth="yes"/>
      <point x="390" y="394"/>
      <point x="466" y="331"/>
    </contour>
  </outline>
</glyph>
<glyph name="seven" format="1">
  <advance width="436"/>
  <unicode hex="0037"/>
  <outline>
    <contour>
      <point x="393" y="628" type="line"/>
      <point x="408" y="605"/>
      <point x="417" y="579"/>
      <point x="421" y="551" type="curve"/>
      <point x="202" y="0" type="line"/>
      <point x="165" y="-6"/>
      <point x="134" y="1"/>
      <point x="111" y="7" type="curve"/>
      <point x="288" y="425" type="line"/>
      <point x="347" y="544" type="line"/>
      <point x="361" y="530" type="line"/>
      <point x="157" y="530" type="line" smooth="yes"/>
      <point x="104" y="530"/>
      <point x="82" y="514"/>
      <point x="70" y="448" type="curve"/>
      <point x="60" y="448"/>
      <point x="48" y="450"/>
      <point x="38" y="456" type="curve"/>
      <point x="38" y="500"/>
      <point x="41" y="583"/>
      <point x="48" y="628" type="curve"/>
    </contour>
  </outline>
</glyph>
<glyph name="eight" format="1">
  <advance width="538"/>
  <unicode hex="0038"/>
  <outline>
    <contour>
      <point x="479" y="490" type="curve" smooth="yes"/>
      <point x="479" y="579"/>
      <point x="400" y="648"/>
      <point x="285" y="648" type="curve" smooth="yes"/>
      <point x="164" y="648"/>
      <point x="60" y="579"/>
      <point x="60" y="475" type="curve" smooth="yes"/>
      <point x="60" y="393"/>
      <point x="168" y="331"/>
      <point x="245" y="296" type="curve" smooth="yes"/>
      <point x="310" y="266"/>
      <point x="372" y="225"/>
      <point x="372" y="152" type="curve" smooth="yes"/>
      <point x="372" y="93"/>
      <point x="334" y="51"/>
      <point x="260" y="51" type="curve" smooth="yes"/>
      <point x="211" y="51"/>
      <point x="166" y="84"/>
      <point x="166" y="142" type="curve" smooth="yes"/>
      <point x="166" y="205"/>
      <point x="197" y="252"/>
      <point x="288" y="303" type="curve" smooth="yes"/>
      <point x="401" y="362"/>
      <point x="479" y="406"/>
    </contour>
    <contour>
      <point x="180" y="499" type="curve" smooth="yes"/>
      <point x="180" y="551"/>
      <point x="212" y="585"/>
      <point x="271" y="585" type="curve" smooth="yes"/>
      <point x="345" y="585"/>
      <point x="365" y="530"/>
      <point x="365" y="487" type="curve" smooth="yes"/>
      <point x="365" y="428"/>
      <point x="310" y="378"/>
      <point x="247" y="343" type="curve" smooth="yes"/>
      <point x="155" y="292"/>
      <point x="51" y="241"/>
      <point x="51" y="147" type="curve" smooth="yes"/>
      <point x="51" y="62"/>
      <point x="141" y="-12"/>
      <point x="262" y="-12" type="curve" smooth="yes"/>
      <point x="396" y="-12"/>
      <point x="489" y="75"/>
      <point x="489" y="162" type="curve" smooth="yes"/>
      <point x="489" y="267"/>
      <point x="390" y="324"/>
      <point x="311" y="363" type="curve" smooth="yes"/>
      <point x="250" y="390"/>
      <point x="180" y="431"/>
    </contour>
  </outline>
</glyph>
<glyph name="nine" format="1">
  <advance width="487"/>
  <unicode hex="0039"/>
  <outline>
    <contour>
      <point x="345" y="299" type="curve"/>
      <point x="371" y="368" type="line"/>
      <point x="329" y="328"/>
      <point x="296" y="316"/>
      <point x="253" y="316" type="curve" smooth="yes"/>
      <point x="194" y="316"/>
      <point x="152" y="366"/>
      <point x="147" y="436" type="curve" smooth="yes"/>
      <point x="141" y="530"/>
      <point x="187" y="582"/>
      <point x="238" y="582" type="curve" smooth="yes"/>
      <point x="288" y="582"/>
      <point x="324" y="523"/>
      <point x="331" y="430" type="curve" smooth="yes"/>
      <point x="342" y="278"/>
      <point x="280" y="108"/>
      <point x="115" y="30" type="curve"/>
      <point x="116" y="16"/>
      <point x="123" y="1"/>
      <point x="154" y="-18" type="curve"/>
      <point x="337" y="58"/>
      <point x="466" y="231"/>
      <point x="450" y="418" type="curve" smooth="yes"/>
      <point x="440" y="562"/>
      <point x="349" y="649"/>
      <point x="241" y="649" type="curve" smooth="yes"/>
      <point x="128" y="649"/>
      <point x="20" y="549"/>
      <point x="30" y="410" type="curve" smooth="yes"/>
      <point x="38" y="310"/>
      <point x="112" y="244"/>
      <point x="201" y="244" type="curve" smooth="yes"/>
      <point x="250" y="244"/>
      <point x="303" y="256"/>
    </contour>
  </outline>
</glyph>
<glyph name="colon" format="1">
  <advance width="312"/>
  <unicode hex="003A"/>
  <outline>
    <contour>
      <point x="228" y="73" type="curve" smooth="yes"/>
      <point x="228" y="34"/>
      <point x="196" y="2"/>
      <point x="156" y="2" type="curve" smooth="yes"/>
      <point x="116" y="2"/>
      <point x="84" y="34"/>
      <point x="84" y="73" type="curve" smooth="yes"/>
      <point x="84" y="113"/>
      <point x="116" y="146"/>
      <point x="156" y="146" type="curve" smooth="yes"/>
      <point x="196" y="146"/>
      <point x="228" y="113"/>
    </contour>
    <contour>
      <point x="228" y="466" type="curve" smooth="yes"/>
      <point x="228" y="426"/>
      <point x="196" y="394"/>
      <point x="156" y="394" type="curve" smooth="yes"/>
      <point x="116" y="394"/>
      <point x="84" y="426"/>
      <point x="84" y="466" type="curve" smooth="yes"/>
      <point x="84" y="506"/>
      <point x="116" y="539"/>
      <point x="156" y="539" type="curve" smooth="yes"/>
      <point x="196" y="539"/>
      <point x="228" y="506"/>
    </contour>
  </outline>
</glyph>
<glyph name="less" format="1">
  <advance width="458"/>
  <unicode hex="003C"/>
  <outline>
    <contour>
      <point x="30" y="292" type="line"/>
      <point x="411" y="85" type="line"/>
      <point x="411" y="175" type="line"/>
      <point x="118" y="331" type="line"/>
      <point x="411" y="486" type="line"/>
      <point x="411" y="576" type="line"/>
      <point x="30" y="369" type="line"/>
    </contour>
  </outline>
</glyph>
<glyph name="equal" format="1">
  <advance width="569"/>
  <unicode hex="003D"/>
  <outline>
    <contour>
      <point x="516" y="462" type="line"/>
      <point x="516" y="380" type="line"/>
      <point x="53" y="380" type="line"/>
      <point x="53" y="462" type="line"/>
    </contour>
    <contour>
      <point x="516" y="267" type="line"/>
      <point x="516" y="185" type="line"/>
      <point x="53" y="185" type="line"/>
      <point x="53" y="267" type="line"/>
    </contour>
  </outline>
</glyph>
<glyph name="greater" format="1">
  <advance width="458"/>
  <unicode hex="003E"/>
  <outline>
    <contour>
      <point x="47" y="576" type="line"/>
      <point x="47" y="486" type="line"/>
      <point x="341" y="331" type="line"/>
      <point x="47" y="175" type="line"/>
      <point x="47" y="85" type="line"/>
      <point x="428" y="292" type="line"/>
      <point x="428" y="369" type="line"/>
    </contour>
  </outline>
</glyph>
<glyph name="question" format="1">
  <advance width="493"/>
  <unicode hex="003F"/>
  <outline>
    <contour>
      <point x="46" y="611" type="curve"/>
      <point x="81" y="576" type="line"/>
      <point x="121" y="606"/>
      <point x="157" y="623"/>
      <point x="205" y="623" type="curve" smooth="yes"/>
      <point x="263" y="623"/>
      <point x="310" y="581"/>
      <point x="310" y="520" type="curve" smooth="yes"/>
      <point x="310" y="467"/>
      <point x="292" y="438"/>
      <point x="247" y="399" type="curve" smooth="yes"/>
      <point x="199" y="356" type="line" smooth="yes"/>
      <point x="153" y="316"/>
      <point x="148" y="290"/>
      <point x="160" y="226" type="curve" smooth="yes"/>
      <point x="173" y="151" type="line"/>
      <point x="231" y="151" type="line"/>
      <point x="231" y="235" type="line" smooth="yes"/>
      <point x="231" y="275"/>
      <point x="238" y="292"/>
      <point x="269" y="312" type="curve" smooth="yes"/>
      <point x="335" y="356" type="line" smooth="yes"/>
      <point x="407" y="403"/>
      <point x="441" y="455"/>
      <point x="441" y="529" type="curve" smooth="yes"/>
      <point x="441" y="629"/>
      <point x="369" y="715"/>
      <point x="248" y="715" type="curve" smooth="yes"/>
      <point x="164" y="715"/>
      <point x="102" y="677"/>
    </contour>
    <contour>
      <point x="142" y="47" type="curve" smooth="yes"/>
      <point x="142" y="11"/>
      <point x="172" y="-18"/>
      <point x="207" y="-18" type="curve" smooth="yes"/>
      <point x="243" y="-18"/>
      <point x="272" y="11"/>
      <point x="272" y="47" type="curve" smooth="yes"/>
      <point x="272" y="82"/>
      <point x="243" y="112"/>
      <point x="207" y="112" type="curve" smooth="yes"/>
      <point x="172" y="112"/>
      <point x="142" y="82"/>
    </contour>
  </outline>
</glyph>
<glyph name="at" format="1">
  <advance width="1011"/>
  <unicode hex="0040"/>
  <outline>
    <contour>
      <point x="961" y="300" type="curve" smooth="yes"/>
      <point x="958" y="117"/>
      <point x="808" y="-13"/>
      <point x="661" y="-13" type="curve" smooth="yes"/>
      <point x="589" y="-13"/>
      <point x="544" y="23"/>
      <point x="554" y="102" type="curve" smooth="yes"/>
      <point x="576" y="271" type="line" smooth="yes"/>
      <point x="582" y="318"/>
      <point x="567" y="345"/>
      <point x="529" y="345" type="curve" smooth="yes"/>
      <point x="479" y="345"/>
      <point x="435" y="297"/>
      <point x="420" y="204" type="curve" smooth="yes"/>
      <point x="402" y="93"/>
      <point x="438" y="64"/>
      <point x="475" y="64" type="curve" smooth="yes"/>
      <point x="535" y="64"/>
      <point x="562" y="139"/>
      <point x="598" y="196" type="curve"/>
      <point x="583" y="101" type="line"/>
      <point x="554" y="46"/>
      <point x="500" y="-13"/>
      <point x="427" y="-13" type="curve" smooth="yes"/>
      <point x="336" y="-13"/>
      <point x="269" y="65"/>
      <point x="291" y="193" type="curve" smooth="yes"/>
      <point x="312" y="323"/>
      <point x="421" y="420"/>
      <point x="543" y="420" type="curve" smooth="yes"/>
      <point x="650" y="420"/>
      <point x="710" y="357"/>
      <point x="696" y="249" type="curve" smooth="yes"/>
      <point x="678" y="109" type="line" smooth="yes"/>
      <point x="673" y="71"/>
      <point x="679" y="51"/>
      <point x="707" y="51" type="curve" smooth="yes"/>
      <point x="767" y="51"/>
      <point x="845" y="129"/>
      <point x="848" y="261" type="curve" smooth="yes"/>
      <point x="850" y="420"/>
      <point x="760" y="532"/>
      <point x="576" y="532" type="curve" smooth="yes"/>
      <point x="336" y="532"/>
      <point x="167" y="345"/>
      <point x="164" y="127" type="curve" smooth="yes"/>
      <point x="160" y="-39"/>
      <point x="277" y="-118"/>
      <point x="409" y="-118" type="curve" smooth="yes"/>
      <point x="484" y="-118"/>
      <point x="545" y="-107"/>
      <point x="603" y="-88" type="curve"/>
      <point x="612" y="-102"/>
      <point x="618" y="-124"/>
      <point x="617" y="-144" type="curve"/>
      <point x="546" y="-175"/>
      <point x="473" y="-193"/>
      <point x="386" y="-193" type="curve" smooth="yes"/>
      <point x="213" y="-193"/>
      <point x="47" y="-90"/>
      <point x="50" y="127" type="curve" smooth="yes"/>
      <point x="54" y="398"/>
      <point x="294" y="606"/>
      <point x="599" y="606" type="curve" smooth="yes"/>
      <point x="817" y="606"/>
      <point x="964" y="480"/>
    </contour>
  </outline>
</glyph>
<glyph name="A" format="1">
  <advance width="622"/>
  <unicode hex="0041"/>
  <outline>
    <contour>
      <point x="310" y="635" type="move" name="top"/>
    </contour>
    <contour>
      <point x="619" y="0" type="move" name="ogonek"/>
    </contour>
    <contour>
      <point x="546" y="107" type="line"/>
      <point x="560" y="63"/>
      <point x="578" y="48"/>
      <point x="624" y="46" type="curve"/>
      <point x="623" y="29"/>
      <point x="622" y="16"/>
      <point x="619" y="0" type="curve"/>
      <point x="346" y="0" type="line"/>
      <point x="346" y="16"/>
      <point x="347" y="30"/>
      <point x="350" y="46" type="curve"/>
      <point x="386" y="54"/>
      <point x="424" y="64"/>
      <point x="446" y="87" type="curve"/>
      <point x="428" y="57" type="line"/>
      <point x="258" y="608" type="line"/>
      <point x="288" y="594" type="line"/>
      <point x="270" y="505" type="line"/>
      <point x="125" y="33" type="line"/>
      <point x="106" y="82" type="line"/>
      <point x="135" y="51"/>
      <point x="167" y="47"/>
      <point x="212" y="46" type="curve"/>
      <point x="212" y="29"/>
      <point x="211" y="16"/>
      <point x="208" y="0" type="curve"/>
      <point x="-1" y="0" type="line"/>
      <point x="-1" y="16"/>
      <point x="0" y="31"/>
      <point x="3" y="46" type="curve"/>
      <point x="46" y="56"/>
      <point x="64" y="76"/>
      <point x="75" y="108" type="curve" smooth="yes"/>
      <point x="249" y="636" type="line"/>
      <point x="281" y="644"/>
      <point x="336" y="648"/>
      <point x="373" y="648" type="curve"/>
    </contour>
    <contour>
      <point x="402" y="217" type="line"/>
      <point x="168" y="217" type="line"/>
      <point x="168" y="274" type="line"/>
      <point x="402" y="274" type="line"/>
    </contour>
  </outline>
</glyph>
<glyph name="B" format="1">
  <advance width="621"/>
  <unicode hex="0042"/>
  <outline>
    <contour>
      <point x="542" y="466" type="curve" smooth="yes"/>
      <point x="542" y="390"/>
      <point x="495" y="342"/>
      <point x="414" y="319" type="curve"/>
      <point x="404" y="342" type="line"/>
      <point x="512" y="330"/>
      <point x="568" y="263"/>
      <point x="568" y="174" type="curve" smooth="yes"/>
      <point x="568" y="71"/>
      <point x="484" y="0"/>
      <point x="306" y="0" type="curve" smooth="yes"/>
      <point x="40" y="0" type="line"/>
      <point x="39" y="15"/>
      <point x="40" y="33"/>
      <point x="44" y="46" type="curve"/>
      <point x="83" y="52"/>
      <point x="107" y="62"/>
      <point x="107" y="102" type="curve" smooth="yes"/>
      <point x="107" y="587" type="line"/>
      <point x="111" y="575" type="line"/>
      <point x="91" y="586"/>
      <point x="59" y="590"/>
      <point x="38" y="590" type="curve"/>
      <point x="37" y="603"/>
      <point x="39" y="623"/>
      <point x="41" y="635" type="curve"/>
      <point x="287" y="635" type="line" smooth="yes"/>
      <point x="474" y="635"/>
      <point x="542" y="557"/>
    </contour>
    <contour>
      <point x="220" y="584" type="line"/>
      <point x="233" y="604" type="line"/>
      <point x="233" y="32" type="line"/>
      <point x="219" y="53" type="line"/>
      <point x="301" y="53" type="line" smooth="yes"/>
      <point x="390" y="53"/>
      <point x="437" y="97"/>
      <point x="437" y="174" type="curve" smooth="yes"/>
      <point x="437" y="252"/>
      <point x="390" y="297"/>
      <point x="301" y="297" type="curve" smooth="yes"/>
      <point x="221" y="297" type="line"/>
      <point x="221" y="350" type="line"/>
      <point x="326" y="349" type="line"/>
      <point x="376" y="368"/>
      <point x="410" y="410"/>
      <point x="410" y="466" type="curve" smooth="yes"/>
      <point x="410" y="538"/>
      <point x="368" y="584"/>
      <point x="287" y="584" type="curve" smooth="yes"/>
    </contour>
  </outline>
</glyph>
<glyph name="C" format="1">
  <advance width="610"/>
  <unicode hex="0043"/>
  <outline>
    <contour>
      <point x="388" y="635" type="move" name="top"/>
    </contour>
    <contour>
      <point x="567" y="615" type="curve"/>
      <point x="564" y="563"/>
      <point x="558" y="508"/>
      <point x="546" y="449" type="curve"/>
      <point x="544" y="449"/>
      <point x="509" y="449"/>
      <point x="506" y="450" type="curve"/>
      <point x="504" y="525"/>
      <point x="461" y="579"/>
      <point x="383" y="579" type="curve" smooth="yes"/>
      <point x="274" y="579"/>
      <point x="189" y="490"/>
      <point x="189" y="323" type="curve" smooth="yes"/>
      <point x="189" y="151"/>
      <point x="281" y="71"/>
      <point x="395" y="71" type="curve" smooth="yes"/>
      <point x="450" y="71"/>
      <point x="507" y="86"/>
      <point x="552" y="117" type="curve"/>
      <point x="580" y="85" type="line"/>
      <point x="528" y="28"/>
      <point x="445" y="-13"/>
      <point x="354" y="-13" type="curve" smooth="yes"/>
      <point x="198" y="-13"/>
      <point x="52" y="100"/>
      <point x="52" y="312" type="curve" smooth="yes"/>
      <point x="52" y="519"/>
      <point x="202" y="649"/>
      <point x="388" y="649" type="curve" smooth="yes"/>
      <point x="450" y="649"/>
      <point x="526" y="637"/>
    </contour>
  </outline>
</glyph>
<glyph name="D" format="1">
  <advance width="666"/>
  <unicode hex="0044"/>
  <outline>
    <contour>
      <point x="331" y="635" type="move" name="top"/>
    </contour>
    <contour>
      <point x="306" y="635" type="line"/>
      <point x="492" y="635"/>
      <point x="635" y="525"/>
      <point x="635" y="318" type="curve" smooth="yes"/>
      <point x="635" y="111"/>
      <point x="498" y="0"/>
      <point x="317" y="0" type="curve" smooth="yes"/>
      <point x="40" y="0" type="line"/>
      <point x="39" y="15"/>
      <point x="40" y="33"/>
      <point x="44" y="46" type="curve"/>
      <point x="83" y="52"/>
      <point x="107" y="62"/>
      <point x="107" y="102" type="curve" smooth="yes"/>
      <point x="107" y="586" type="line"/>
      <point x="111" y="576" type="line"/>
      <point x="91" y="586"/>
      <point x="59" y="590"/>
      <point x="38" y="590" type="curve"/>
      <point x="37" y="603"/>
      <point x="39" y="623"/>
      <point x="41" y="635" type="curve"/>
    </contour>
    <contour>
      <point x="234" y="584" type="line"/>
      <point x="234" y="53" type="line"/>
      <point x="296" y="53" type="line" smooth="yes"/>
      <point x="430" y="53"/>
      <point x="499" y="151"/>
      <point x="499" y="318" type="curve" smooth="yes"/>
      <point x="499" y="486"/>
      <point x="430" y="584"/>
      <point x="291" y="584" type="curve" smooth="yes"/>
    </contour>
  </outline>
</glyph>
<glyph name="E" format="1">
  <advance width="568"/>
  <unicode hex="0045"/>
  <outline>
    <contour>
      <point x="308" y="635" type="move" name="top"/>
    </contour>
    <contour>
      <point x="527" y="0" type="move" name="ogonek"/>
    </contour>
    <contour>
      <point x="288" y="0" type="move" name="bottom"/>
    </contour>
    <contour>
      <point x="416" y="285" type="line"/>
      <point x="378" y="285" type="line"/>
      <point x="213" y="294" type="line"/>
      <point x="213" y="345" type="line"/>
      <point x="378" y="358" type="line"/>
      <point x="416" y="358" type="line"/>
    </contour>
    <contour>
      <point x="512" y="469" type="curve"/>
      <point x="502" y="468"/>
      <point x="474" y="467"/>
      <point x="460" y="467" type="curve"/>
      <point x="453" y="538"/>
      <point x="449" y="584"/>
      <point x="377" y="584" type="curve" smooth="yes"/>
      <point x="198" y="584" type="line"/>
      <point x="234" y="619" type="line"/>
      <point x="234" y="17" type="line"/>
      <point x="198" y="53" type="line"/>
      <point x="384" y="53" type="line" smooth="yes"/>
      <point x="454" y="53"/>
      <point x="461" y="101"/>
      <point x="469" y="175" type="curve"/>
      <point x="483" y="176"/>
      <point x="513" y="175"/>
      <point x="524" y="172" type="curve"/>
      <point x="528" y="113"/>
      <point x="529" y="59"/>
      <point x="527" y="0" type="curve"/>
      <point x="40" y="0" type="line"/>
      <point x="39" y="15"/>
      <point x="40" y="33"/>
      <point x="45" y="46" type="curve"/>
      <point x="84" y="52"/>
      <point x="108" y="62"/>
      <point x="108" y="102" type="curve" smooth="yes"/>
      <point x="108" y="588" type="line"/>
      <point x="111" y="575" type="line"/>
      <point x="92" y="586"/>
      <point x="59" y="590"/>
      <point x="37" y="590" type="curve"/>
      <point x="37" y="603"/>
      <point x="38" y="623"/>
      <point x="42" y="635" type="curve"/>
      <point x="517" y="635" type="line"/>
      <point x="518" y="581"/>
      <point x="517" y="524"/>
    </contour>
  </outline>
</glyph>
<glyph name="F" format="1">
  <advance width="539"/>
  <unicode hex="0046"/>
  <outline>
    <contour>
      <point x="414" y="265" type="line"/>
      <point x="374" y="265" type="line"/>
      <point x="213" y="274" type="line"/>
      <point x="213" y="325" type="line"/>
      <point x="374" y="338" type="line"/>
      <point x="414" y="338" type="line"/>
    </contour>
    <contour>
      <point x="108" y="588" type="line"/>
      <point x="111" y="575" type="line"/>
      <point x="92" y="586"/>
      <point x="60" y="590"/>
      <point x="37" y="590" type="curve"/>
      <point x="37" y="603"/>
      <point x="38" y="623"/>
      <point x="42" y="635" type="curve"/>
      <point x="517" y="635" type="line"/>
      <point x="518" y="581"/>
      <point x="517" y="524"/>
      <point x="512" y="469" type="curve"/>
      <point x="502" y="468"/>
      <point x="474" y="467"/>
      <point x="460" y="467" type="curve"/>
      <point x="453" y="538"/>
      <point x="449" y="584"/>
      <point x="378" y="584" type="curve" smooth="yes"/>
      <point x="221" y="584" type="line"/>
      <point x="234" y="596" type="line"/>
      <point x="234" y="36" type="line"/>
      <point x="230" y="68" type="line"/>
      <point x="259" y="58"/>
      <point x="306" y="50"/>
      <point x="339" y="47" type="curve"/>
      <point x="339" y="33"/>
      <point x="338" y="14"/>
      <point x="335" y="0" type="curve"/>
      <point x="39" y="0" type="line"/>
      <point x="38" y="15"/>
      <point x="39" y="33"/>
      <point x="44" y="47" type="curve"/>
      <point x="83" y="53"/>
      <point x="108" y="63"/>
      <point x="108" y="102" type="curve" smooth="yes"/>
    </contour>
  </outline>
</glyph>
<glyph name="G" format="1">
  <advance width="680"/>
  <unicode hex="0047"/>
  <outline>
    <contour>
      <point x="363" y="635" type="move" name="top"/>
    </contour>
    <contour>
      <point x="347" y="0" type="move" name="bottom"/>
    </contour>
    <contour>
      <point x="599" y="616" type="curve"/>
      <point x="597" y="568"/>
      <point x="591" y="513"/>
      <point x="578" y="454" type="curve"/>
      <point x="569" y="454"/>
      <point x="551" y="454"/>
      <point x="539" y="455" type="curve"/>
      <point x="525" y="534"/>
      <point x="470" y="579"/>
      <point x="392" y="579" type="curve" smooth="yes"/>
      <point x="269" y="579"/>
      <point x="189" y="483"/>
      <point x="189" y="323" type="curve" smooth="yes"/>
      <point x="189" y="139"/>
      <point x="267" y="58"/>
      <point x="378" y="58" type="curve" smooth="yes"/>
      <point x="419" y="58"/>
      <point x="460" y="70"/>
      <point x="492" y="89" type="curve"/>
      <point x="482" y="68" type="line"/>
      <point x="482" y="273" type="line"/>
      <point x="498" y="249" type="line"/>
      <point x="466" y="263"/>
      <point x="433" y="267"/>
      <point x="400" y="268" type="curve"/>
      <point x="400" y="283"/>
      <point x="401" y="304"/>
      <point x="404" y="319" type="curve"/>
      <point x="663" y="319" type="line"/>
      <point x="664" y="303"/>
      <point x="662" y="282"/>
      <point x="659" y="268" type="curve"/>
      <point x="622" y="260"/>
      <point x="593" y="253"/>
      <point x="593" y="212" type="curve" smooth="yes"/>
      <point x="593" y="0" type="line"/>
      <point x="526" y="0" type="line"/>
      <point x="494" y="47" type="line"/>
      <point x="526" y="43" type="line"/>
      <point x="478" y="11"/>
      <point x="420" y="-13"/>
      <point x="352" y="-13" type="curve" smooth="yes"/>
      <point x="193" y="-13"/>
      <point x="52" y="105"/>
      <point x="52" y="313" type="curve" smooth="yes"/>
      <point x="52" y="519"/>
      <point x="214" y="649"/>
      <point x="393" y="649" type="curve" smooth="yes"/>
      <point x="476" y="649"/>
      <point x="541" y="635"/>
    </contour>
  </outline>
</glyph>
<glyph name="H" format="1">
  <advance width="723"/>
  <unicode hex="0048"/>
  <outline>
    <contour>
      <point x="179" y="348" type="line"/>
      <point x="553" y="348" type="line"/>
      <point x="553" y="285" type="line"/>
      <point x="179" y="285" type="line"/>
    </contour>
    <contour>
      <point x="234" y="33" type="line"/>
      <point x="224" y="64" type="line"/>
      <point x="247" y="50"/>
      <point x="280" y="47"/>
      <point x="303" y="46" type="curve"/>
      <point x="304" y="32"/>
      <point x="302" y="14"/>
      <point x="300" y="0" type="curve"/>
      <point x="40" y="0" type="line"/>
      <point x="39" y="15"/>
      <point x="40" y="33"/>
      <point x="45" y="46" type="curve"/>
      <point x="84" y="52"/>
      <point x="108" y="62"/>
      <point x="108" y="102" type="curve" smooth="yes"/>
      <point x="108" y="589" type="line"/>
      <point x="117" y="573" type="line"/>
      <point x="94" y="585"/>
      <point x="62" y="589"/>
      <point x="37" y="590" type="curve"/>
      <point x="37" y="603"/>
      <point x="38" y="623"/>
      <point x="42" y="635" type="curve"/>
      <point x="301" y="635" type="line"/>
      <point x="302" y="622"/>
      <point x="301" y="603"/>
      <point x="297" y="590" type="curve"/>
      <point x="258" y="584"/>
      <point x="234" y="574"/>
      <point x="234" y="535" type="curve" smooth="yes"/>
    </contour>
    <contour>
      <point x="617" y="33" type="line"/>
      <point x="606" y="64" type="line"/>
      <point x="629" y="50"/>
      <point x="662" y="47"/>
      <point x="686" y="46" type="curve"/>
      <point x="686" y="32"/>
      <point x="685" y="14"/>
      <point x="683" y="0" type="curve"/>
      <point x="422" y="0" type="line"/>
      <point x="422" y="15"/>
      <point x="422" y="33"/>
      <point x="426" y="46" type="curve"/>
      <point x="465" y="52"/>
      <point x="489" y="62"/>
      <point x="489" y="102" type="curve" smooth="yes"/>
      <point x="489" y="589" type="line"/>
      <point x="500" y="573" type="line"/>
      <point x="476" y="585"/>
      <point x="443" y="589"/>
      <point x="420" y="590" type="curve"/>
      <point x="419" y="603"/>
      <point x="421" y="623"/>
      <point x="424" y="635" type="curve"/>
      <point x="684" y="635" type="line"/>
      <point x="685" y="622"/>
      <point x="684" y="603"/>
      <point x="680" y="590" type="curve"/>
      <point x="640" y="584"/>
      <point x="617" y="574"/>
      <point x="617" y="535" type="curve" smooth="yes"/>
    </contour>
  </outline>
</glyph>
<glyph name="I" format="1">
  <advance width="342"/>
  <unicode hex="0049"/>
  <outline>
    <contour>
      <point x="171" y="635" type="move" name="top"/>
    </contour>
    <contour>
      <point x="300" y="0" type="move" name="ogonek"/>
    </contour>
    <contour>
      <point x="234" y="33" type="line"/>
      <point x="224" y="64" type="line"/>
      <point x="247" y="50"/>
      <point x="280" y="47"/>
      <point x="303" y="46" type="curve"/>
      <point x="304" y="32"/>
      <point x="302" y="14"/>
      <point x="300" y="0" type="curve"/>
      <point x="40" y="0" type="line"/>
      <point x="39" y="15"/>
      <point x="40" y="33"/>
      <point x="45" y="46" type="curve"/>
      <point x="84" y="52"/>
      <point x="108" y="62"/>
      <point x="108" y="102" type="curve" smooth="yes"/>
      <point x="108" y="589" type="line"/>
      <point x="117" y="573" type="line"/>
      <point x="94" y="585"/>
      <point x="62" y="589"/>
      <point x="37" y="590" type="curve"/>
      <point x="37" y="603"/>
      <point x="38" y="623"/>
      <point x="42" y="635" type="curve"/>
      <point x="301" y="635" type="line"/>
      <point x="302" y="622"/>
      <point x="301" y="603"/>
      <point x="297" y="590" type="curve"/>
      <point x="258" y="584"/>
      <point x="234" y="574"/>
      <point x="234" y="535" type="curve" smooth="yes"/>
    </contour>
  </outline>
</glyph>
<glyph name="J" format="1">
  <advance width="334"/>
  <unicode hex="004A"/>
  <outline>
    <contour>
      <point x="234" y="50" type="line"/>
      <point x="234" y="-97"/>
      <point x="143" y="-176"/>
      <point x="17" y="-213" type="curve"/>
      <point x="7" y="-204"/>
      <point x="-7" y="-190"/>
      <point x="-15" y="-177" type="curve"/>
      <point x="87" y="-120"/>
      <point x="108" y="-59"/>
      <point x="108" y="49" type="curve" smooth="yes"/>
      <point x="108" y="589" type="line"/>
      <point x="117" y="573" type="line"/>
      <point x="94" y="585"/>
      <point x="62" y="589"/>
      <point x="37" y="590" type="curve"/>
      <point x="37" y="603"/>
      <point x="38" y="623"/>
      <point x="42" y="635" type="curve"/>
      <point x="301" y="635" type="line"/>
      <point x="302" y="622"/>
      <point x="301" y="603"/>
      <point x="297" y="590" type="curve"/>
      <point x="258" y="584"/>
      <point x="234" y="574"/>
      <point x="234" y="535" type="curve" smooth="yes"/>
    </contour>
  </outline>
</glyph>
<glyph name="K" format="1">
  <advance width="690"/>
  <unicode hex="004B"/>
  <outline>
    <contour>
      <point x="361" y="635" type="move" name="top"/>
    </contour>
    <contour>
      <point x="361" y="0" type="move" name="bottom"/>
    </contour>
    <contour>
      <point x="297" y="590" type="curve"/>
      <point x="258" y="584"/>
      <point x="234" y="574"/>
      <point x="234" y="535" type="curve" smooth="yes"/>
      <point x="234" y="33" type="line"/>
      <point x="224" y="64" type="line"/>
      <point x="247" y="50"/>
      <point x="280" y="47"/>
      <point x="303" y="46" type="curve"/>
      <point x="304" y="32"/>
      <point x="302" y="14"/>
      <point x="300" y="0" type="curve"/>
      <point x="40" y="0" type="line"/>
      <point x="39" y="15"/>
      <point x="40" y="33"/>
      <point x="45" y="46" type="curve"/>
      <point x="84" y="52"/>
      <point x="108" y="62"/>
      <point x="108" y="102" type="curve" smooth="yes"/>
      <point x="108" y="589" type="line"/>
      <point x="117" y="573" type="line"/>
      <point x="94" y="585"/>
      <point x="62" y="589"/>
      <point x="37" y="590" type="curve"/>
      <point x="37" y="603"/>
      <point x="38" y="623"/>
      <point x="42" y="635" type="curve"/>
      <point x="301" y="635" type="line"/>
      <point x="302" y="622"/>
      <point x="301" y="603"/>
    </contour>
    <contour>
      <point x="644" y="591" type="curve"/>
      <point x="601" y="591"/>
      <point x="571" y="579"/>
      <point x="536" y="545" type="curve" smooth="yes"/>
      <point x="192" y="213" type="line"/>
      <point x="136" y="233" type="line"/>
      <point x="489" y="581" type="line"/>
      <point x="497" y="569" type="line"/>
      <point x="472" y="587"/>
      <point x="446" y="590"/>
      <point x="417" y="591" type="curve"/>
      <point x="414" y="603"/>
      <point x="416" y="623"/>
      <point x="421" y="635" type="curve"/>
      <point x="647" y="635" type="line"/>
      <point x="647" y="620"/>
      <point x="647" y="605"/>
    </contour>
    <contour>
      <point x="649" y="47" type="curve"/>
      <point x="651" y="33"/>
      <point x="649" y="16"/>
      <point x="644" y="0" type="curve"/>
      <point x="467" y="0" type="line"/>
      <point x="291" y="260" type="line" smooth="yes"/>
      <point x="280" y="276"/>
      <point x="272" y="283"/>
      <point x="251" y="282" type="curve"/>
      <point x="320" y="371" type="line"/>
      <point x="365" y="371"/>
      <point x="390" y="349"/>
      <point x="413" y="313" type="curve" smooth="yes"/>
      <point x="552" y="107" type="line" smooth="yes"/>
      <point x="584" y="58"/>
      <point x="604" y="49"/>
    </contour>
  </outline>
</glyph>
<glyph name="L" format="1">
  <advance width="546"/>
  <unicode hex="004C"/>
  <outline>
    <contour>
      <point x="351" y="635" type="move" name="commaaccent"/>
    </contour>
    <contour>
      <point x="178" y="635" type="move" name="top"/>
    </contour>
    <contour>
      <point x="272" y="0" type="move" name="bottom"/>
    </contour>
    <contour>
      <point x="296" y="590" type="curve"/>
      <point x="258" y="584"/>
      <point x="234" y="574"/>
      <point x="234" y="535" type="curve" smooth="yes"/>
      <point x="234" y="16" type="line"/>
      <point x="198" y="52" type="line"/>
      <point x="392" y="52" type="line" smooth="yes"/>
      <point x="462" y="52"/>
      <point x="467" y="98"/>
      <point x="473" y="168" type="curve"/>
      <point x="487" y="168"/>
      <point x="509" y="167"/>
      <point x="518" y="166" type="curve"/>
      <point x="523" y="110"/>
      <point x="526" y="54"/>
      <point x="524" y="0" type="curve"/>
      <point x="40" y="0" type="line"/>
      <point x="39" y="15"/>
      <point x="40" y="33"/>
      <point x="44" y="46" type="curve"/>
      <point x="83" y="52"/>
      <point x="107" y="62"/>
      <point x="107" y="102" type="curve" smooth="yes"/>
      <point x="107" y="589" type="line"/>
      <point x="116" y="573" type="line"/>
      <point x="94" y="585"/>
      <point x="61" y="589"/>
      <point x="38" y="590" type="curve"/>
      <point x="37" y="603"/>
      <point x="39" y="623"/>
      <point x="41" y="635" type="curve"/>
      <point x="300" y="635" type="line"/>
      <point x="302" y="622"/>
      <point x="300" y="603"/>
    </contour>
  </outline>
</glyph>
<glyph name="M" format="1">
  <advance width="881"/>
  <unicode hex="004D"/>
  <outline>
    <contour>
      <point x="288" y="635" type="line"/>
      <point x="445" y="182" type="line"/>
      <point x="412" y="166" type="line"/>
      <point x="597" y="635" type="line"/>
      <point x="805" y="635" type="line"/>
      <point x="808" y="621"/>
      <point x="808" y="607"/>
      <point x="807" y="590" type="curve"/>
      <point x="773" y="585"/>
      <point x="749" y="576"/>
      <point x="751" y="534" type="curve" smooth="yes"/>
      <point x="779" y="43" type="line"/>
      <point x="765" y="61" type="line"/>
      <point x="795" y="49"/>
      <point x="824" y="47"/>
      <point x="853" y="46" type="curve"/>
      <point x="855" y="32"/>
      <point x="855" y="15"/>
      <point x="854" y="0" type="curve"/>
      <point x="573" y="0" type="line"/>
      <point x="572" y="16"/>
      <point x="572" y="31"/>
      <point x="573" y="46" type="curve"/>
      <point x="610" y="52"/>
      <point x="650" y="60"/>
      <point x="650" y="102" type="curve" smooth="yes"/>
      <point x="636" y="618" type="line"/>
      <point x="661" y="594" type="line"/>
      <point x="606" y="450" type="line"/>
      <point x="428" y="0" type="line"/>
      <point x="393" y="0" type="line"/>
      <point x="236" y="439" type="line"/>
      <point x="184" y="588" type="line"/>
      <point x="204" y="579" type="line"/>
      <point x="169" y="22" type="line"/>
      <point x="149" y="65" type="line"/>
      <point x="177" y="49"/>
      <point x="213" y="47"/>
      <point x="245" y="46" type="curve"/>
      <point x="244" y="32"/>
      <point x="242" y="15"/>
      <point x="239" y="0" type="curve"/>
      <point x="24" y="0" type="line"/>
      <point x="25" y="16"/>
      <point x="26" y="31"/>
      <point x="30" y="46" type="curve"/>
      <point x="65" y="52"/>
      <point x="97" y="63"/>
      <point x="99" y="103" type="curve" smooth="yes"/>
      <point x="125" y="579" type="line"/>
      <point x="105" y="586"/>
      <point x="91" y="589"/>
      <point x="69" y="590" type="curve"/>
      <point x="68" y="606"/>
      <point x="70" y="622"/>
      <point x="74" y="635" type="curve"/>
    </contour>
  </outline>
</glyph>
<glyph name="N" format="1">
  <advance width="725"/>
  <unicode hex="004E"/>
  <outline>
    <contour>
      <point x="378" y="635" type="move" name="top"/>
    </contour>
    <contour>
      <point x="373" y="0" type="move" name="bottom"/>
    </contour>
    <contour>
      <point x="481" y="313" type="line"/>
      <point x="571" y="179" type="line"/>
      <point x="545" y="106" type="line"/>
      <point x="545" y="589" type="line"/>
      <point x="549" y="576" type="line"/>
      <point x="529" y="586"/>
      <point x="494" y="589"/>
      <point x="473" y="590" type="curve"/>
      <point x="472" y="603"/>
      <point x="474" y="623"/>
      <point x="476" y="635" type="curve"/>
      <point x="686" y="635" type="line"/>
      <point x="686" y="622"/>
      <point x="686" y="603"/>
      <point x="681" y="590" type="curve"/>
      <point x="642" y="584"/>
      <point x="616" y="572"/>
      <point x="616" y="532" type="curve" smooth="yes"/>
      <point x="616" y="0" type="line"/>
      <point x="562" y="0" type="line"/>
      <point x="248" y="414" type="line"/>
      <point x="152" y="553" type="line"/>
      <point x="188" y="576" type="line"/>
      <point x="188" y="36" type="line"/>
      <point x="184" y="61" type="line"/>
      <point x="203" y="50"/>
      <point x="238" y="47"/>
      <point x="260" y="46" type="curve"/>
      <point x="261" y="32"/>
      <point x="259" y="14"/>
      <point x="256" y="0" type="curve"/>
      <point x="47" y="0" type="line"/>
      <point x="46" y="15"/>
      <point x="47" y="33"/>
      <point x="52" y="46" type="curve"/>
      <point x="91" y="52"/>
      <point x="117" y="64"/>
      <point x="117" y="104" type="curve" smooth="yes"/>
      <point x="117" y="595" type="line"/>
      <point x="135" y="573" type="line"/>
      <point x="112" y="588"/>
      <point x="77" y="590"/>
      <point x="45" y="591" type="curve"/>
      <point x="46" y="607"/>
      <point x="47" y="622"/>
      <point x="51" y="635" type="curve"/>
      <point x="237" y="635" type="line"/>
    </contour>
  </outline>
</glyph>
<glyph name="O" format="1">
  <advance width="692"/>
  <unicode hex="004F"/>
  <outline>
    <contour>
      <point x="347" y="635" type="move" name="top"/>
    </contour>
    <contour>
      <point x="345" y="-14" type="curve" smooth="yes"/>
      <point x="170" y="-14"/>
      <point x="52" y="119"/>
      <point x="52" y="316" type="curve" smooth="yes"/>
      <point x="52" y="513"/>
      <point x="170" y="649"/>
      <point x="345" y="649" type="curve" smooth="yes"/>
      <point x="520" y="649"/>
      <point x="641" y="513"/>
      <point x="641" y="316" type="curve" smooth="yes"/>
      <point x="641" y="119"/>
      <point x="520" y="-14"/>
    </contour>
    <contour>
      <point x="491" y="317" type="curve" smooth="yes"/>
      <point x="488" y="516"/>
      <point x="430" y="594"/>
      <point x="339" y="594" type="curve" smooth="yes"/>
      <point x="249" y="594"/>
      <point x="200" y="506"/>
      <point x="202" y="316" type="curve" smooth="yes"/>
      <point x="205" y="114"/>
      <point x="260" y="41"/>
      <point x="351" y="41" type="curve" smooth="yes"/>
      <point x="442" y="41"/>
      <point x="493" y="121"/>
    </contour>
  </outline>
</glyph>
<glyph name="P" format="1">
  <advance width="576"/>
  <unicode hex="0050"/>
  <outline>
    <contour>
      <point x="563" y="449" type="curve" smooth="yes"/>
      <point x="563" y="342"/>
      <point x="461" y="264"/>
      <point x="314" y="264" type="curve" smooth="yes"/>
      <point x="218" y="264" type="line"/>
      <point x="214" y="277"/>
      <point x="213" y="300"/>
      <point x="213" y="315" type="curve"/>
      <point x="290" y="315" type="line" smooth="yes"/>
      <point x="379" y="315"/>
      <point x="426" y="369"/>
      <point x="426" y="449" type="curve" smooth="yes"/>
      <point x="426" y="531"/>
      <point x="380" y="583"/>
      <point x="290" y="583" type="curve" smooth="yes"/>
      <point x="220" y="583" type="line"/>
      <point x="234" y="596" type="line"/>
      <point x="234" y="50" type="line"/>
      <point x="229" y="67" type="line"/>
      <point x="256" y="56"/>
      <point x="293" y="48"/>
      <point x="325" y="46" type="curve"/>
      <point x="325" y="32"/>
      <point x="324" y="14"/>
      <point x="320" y="0" type="curve"/>
      <point x="40" y="0" type="line"/>
      <point x="39" y="15"/>
      <point x="40" y="33"/>
      <point x="44" y="46" type="curve"/>
      <point x="83" y="52"/>
      <point x="107" y="62"/>
      <point x="107" y="102" type="curve" smooth="yes"/>
      <point x="107" y="588" type="line"/>
      <point x="117" y="573" type="line"/>
      <point x="93" y="585"/>
      <point x="61" y="590"/>
      <point x="38" y="590" type="curve"/>
      <point x="37" y="603"/>
      <point x="39" y="623"/>
      <point x="41" y="635" type="curve"/>
      <point x="313" y="635" type="line" smooth="yes"/>
      <point x="460" y="635"/>
      <point x="563" y="556"/>
    </contour>
  </outline>
</glyph>
<glyph name="Q" format="1">
  <advance width="692"/>
  <unicode hex="0051"/>
  <outline>
    <contour>
      <point x="420" y="5" type="line"/>
      <point x="431" y="-49"/>
      <point x="456" y="-85"/>
      <point x="491" y="-85" type="curve" smooth="yes"/>
      <point x="518" y="-85"/>
      <point x="556" y="-76"/>
      <point x="585" y="-64" type="curve"/>
      <point x="603" y="-99" type="line"/>
      <point x="560" y="-132"/>
      <point x="507" y="-156"/>
      <point x="445" y="-156" type="curve" smooth="yes"/>
      <point x="373" y="-156"/>
      <point x="312" y="-83"/>
      <point x="294" y="-3" type="curve"/>
    </contour>
    <component base="O"/>
  </outline>
</glyph>
<glyph name="R" format="1">
  <advance width="650"/>
  <unicode hex="0052"/>
  <outline>
    <contour>
      <point x="325" y="635" type="move" name="top"/>
    </contour>
    <contour>
      <point x="334" y="0" type="move" name="bottom"/>
    </contour>
    <contour>
      <point x="553" y="463" type="curve" smooth="yes"/>
      <point x="553" y="358"/>
      <point x="469" y="292"/>
      <point x="324" y="292" type="curve" smooth="yes"/>
      <point x="203" y="292" type="line"/>
      <point x="199" y="305"/>
      <point x="198" y="328"/>
      <point x="198" y="344" type="curve"/>
      <point x="300" y="344" type="line" smooth="yes"/>
      <point x="376" y="344"/>
      <point x="418" y="385"/>
      <point x="418" y="463" type="curve" smooth="yes"/>
      <point x="418" y="542"/>
      <point x="376" y="583"/>
      <point x="300" y="583" type="curve" smooth="yes"/>
      <point x="213" y="583" type="line"/>
      <point x="234" y="596" type="line"/>
      <point x="234" y="35" type="line"/>
      <point x="229" y="67" type="line"/>
      <point x="254" y="56"/>
      <point x="289" y="49"/>
      <point x="318" y="46" type="curve"/>
      <point x="320" y="32"/>
      <point x="318" y="14"/>
      <point x="315" y="0" type="curve"/>
      <point x="40" y="0" type="line"/>
      <point x="39" y="15"/>
      <point x="40" y="33"/>
      <point x="45" y="46" type="curve"/>
      <point x="84" y="52"/>
      <point x="108" y="62"/>
      <point x="108" y="102" type="curve" smooth="yes"/>
      <point x="108" y="587" type="line"/>
      <point x="117" y="573" type="line"/>
      <point x="94" y="585"/>
      <point x="62" y="590"/>
      <point x="37" y="590" type="curve"/>
      <point x="37" y="603"/>
      <point x="38" y="623"/>
      <point x="42" y="635" type="curve"/>
      <point x="324" y="635" type="line" smooth="yes"/>
      <point x="469" y="635"/>
      <point x="553" y="570"/>
    </contour>
    <contour>
      <point x="336" y="253" type="line"/>
      <point x="324" y="278"/>
      <point x="312" y="292"/>
      <point x="279" y="292" type="curve"/>
      <point x="372" y="318" type="line"/>
      <point x="426" y="317"/>
      <point x="454" y="287"/>
      <point x="478" y="241" type="curve" smooth="yes"/>
      <point x="545" y="111" type="line" smooth="yes"/>
      <point x="569" y="62"/>
      <point x="589" y="50"/>
      <point x="628" y="50" type="curve"/>
      <point x="628" y="34"/>
      <point x="627" y="16"/>
      <point x="623" y="0" type="curve"/>
      <point x="458" y="0" type="line"/>
    </contour>
  </outline>
</glyph>
<glyph name="S" format="1">
  <advance width="511"/>
  <unicode hex="0053"/>
  <outline>
    <contour>
      <point x="271" y="635" type="move" name="top"/>
    </contour>
    <contour>
      <point x="253" y="0" type="move" name="bottom"/>
    </contour>
    <contour>
      <point x="438" y="618" type="curve"/>
      <point x="438" y="568"/>
      <point x="432" y="510"/>
      <point x="425" y="465" type="curve"/>
      <point x="412" y="465"/>
      <point x="397" y="466"/>
      <point x="384" y="468" type="curve"/>
      <point x="371" y="561"/>
      <point x="324" y="590"/>
      <point x="264" y="590" type="curve" smooth="yes"/>
      <point x="207" y="590"/>
      <point x="163" y="560"/>
      <point x="163" y="508" type="curve" smooth="yes"/>
      <point x="163" y="361"/>
      <point x="467" y="389"/>
      <point x="467" y="176" type="curve" smooth="yes"/>
      <point x="467" y="57"/>
      <point x="361" y="-12"/>
      <point x="242" y="-12" type="curve" smooth="yes"/>
      <point x="183" y="-12"/>
      <point x="120" y="2"/>
      <point x="53" y="23" type="curve"/>
      <point x="51" y="83"/>
      <point x="56" y="161"/>
      <point x="61" y="205" type="curve"/>
      <point x="79" y="205"/>
      <point x="93" y="204"/>
      <point x="113" y="201" type="curve"/>
      <point x="110" y="84"/>
      <point x="168" y="49"/>
      <point x="248" y="49" type="curve" smooth="yes"/>
      <point x="311" y="49"/>
      <point x="354" y="82"/>
      <point x="354" y="135" type="curve" smooth="yes"/>
      <point x="354" y="289"/>
      <point x="56" y="261"/>
      <point x="56" y="477" type="curve" smooth="yes"/>
      <point x="56" y="587"/>
      <point x="147" y="648"/>
      <point x="267" y="648" type="curve" smooth="yes"/>
      <point x="334" y="648"/>
      <point x="387" y="635"/>
    </contour>
  </outline>
</glyph>
<glyph name="T" format="1">
  <advance width="561"/>
  <unicode hex="0054"/>
  <outline>
    <contour>
      <point x="281" y="635" type="move" name="top"/>
    </contour>
    <contour>
      <point x="281" y="0" type="move" name="bottom"/>
    </contour>
    <contour>
      <point x="344" y="35" type="line"/>
      <point x="338" y="62" type="line"/>
      <point x="362" y="51"/>
      <point x="397" y="47"/>
      <point x="422" y="46" type="curve"/>
      <point x="423" y="32"/>
      <point x="421" y="14"/>
      <point x="419" y="0" type="curve"/>
      <point x="140" y="0" type="line"/>
      <point x="139" y="15"/>
      <point x="140" y="33"/>
      <point x="145" y="46" type="curve"/>
      <point x="192" y="52"/>
      <point x="217" y="62"/>
      <point x="217" y="102" type="curve" smooth="yes"/>
      <point x="217" y="618" type="line"/>
      <point x="344" y="618" type="line"/>
    </contour>
    <contour>
      <point x="543" y="635" type="line"/>
      <point x="549" y="587"/>
      <point x="549" y="523"/>
      <point x="546" y="479" type="curve"/>
      <point x="536" y="475"/>
      <point x="513" y="473"/>
      <point x="503" y="475" type="curve"/>
      <point x="495" y="558"/>
      <point x="471" y="583"/>
      <point x="415" y="583" type="curve" smooth="yes"/>
      <point x="147" y="583" type="line" smooth="yes"/>
      <point x="90" y="583"/>
      <point x="65" y="558"/>
      <point x="59" y="475" type="curve"/>
      <point x="49" y="473"/>
      <point x="25" y="475"/>
      <point x="15" y="479" type="curve"/>
      <point x="11" y="523"/>
      <point x="11" y="587"/>
      <point x="18" y="635" type="curve"/>
    </contour>
  </outline>
</glyph>
<glyph name="U" format="1">
  <advance width="700"/>
  <unicode hex="0055"/>
  <outline>
    <contour>
      <point x="353" y="635" type="move" name="top"/>
    </contour>
    <contour>
      <point x="456" y="0" type="move" name="ogonek"/>
    </contour>
    <contour>
      <point x="608" y="204" type="line"/>
      <point x="608" y="48"/>
      <point x="501" y="-13"/>
      <point x="352" y="-13" type="curve" smooth="yes"/>
      <point x="203" y="-13"/>
      <point x="97" y="48"/>
      <point x="97" y="204" type="curve" smooth="yes"/>
      <point x="97" y="589" type="line"/>
      <point x="106" y="573" type="line"/>
      <point x="83" y="585"/>
      <point x="51" y="589"/>
      <point x="28" y="590" type="curve"/>
      <point x="26" y="603"/>
      <point x="29" y="623"/>
      <point x="31" y="635" type="curve"/>
      <point x="290" y="635" type="line"/>
      <point x="291" y="622"/>
      <point x="290" y="603"/>
      <point x="286" y="590" type="curve"/>
      <point x="248" y="584"/>
      <point x="223" y="574"/>
      <point x="223" y="535" type="curve"/>
      <point x="223" y="201" type="line" smooth="yes"/>
      <point x="223" y="90"/>
      <point x="276" y="50"/>
      <point x="352" y="50" type="curve" smooth="yes"/>
      <point x="428" y="50"/>
      <point x="481" y="91"/>
      <point x="481" y="201" type="curve" smooth="yes"/>
      <point x="481" y="589" type="line"/>
      <point x="491" y="573" type="line"/>
      <point x="468" y="585"/>
      <point x="435" y="589"/>
      <point x="411" y="590" type="curve"/>
      <point x="411" y="603"/>
      <point x="412" y="623"/>
      <point x="415" y="635" type="curve"/>
      <point x="675" y="635" type="line"/>
      <point x="676" y="622"/>
      <point x="675" y="603"/>
      <point x="671" y="590" type="curve"/>
      <point x="631" y="584"/>
      <point x="608" y="574"/>
      <point x="608" y="535" type="curve"/>
    </contour>
  </outline>
</glyph>
<glyph name="V" format="1">
  <advance width="645"/>
  <unicode hex="0056"/>
  <outline>
    <contour>
      <point x="270" y="590" type="curve"/>
      <point x="209" y="585"/>
      <point x="193" y="568"/>
      <point x="210" y="528" type="curve" smooth="yes"/>
      <point x="339" y="213" type="line" smooth="yes"/>
      <point x="348" y="191"/>
      <point x="353" y="171"/>
      <point x="358" y="149" type="curve"/>
      <point x="362" y="149" type="line"/>
      <point x="542" y="612" type="line"/>
      <point x="534" y="573" type="line"/>
      <point x="507" y="583"/>
      <point x="486" y="589"/>
      <point x="454" y="590" type="curve"/>
      <point x="454" y="607"/>
      <point x="454" y="621"/>
      <point x="457" y="635" type="curve"/>
      <point x="647" y="635" type="line"/>
      <point x="645" y="619"/>
      <point x="643" y="606"/>
      <point x="639" y="590" type="curve"/>
      <point x="605" y="584"/>
      <point x="585" y="570"/>
      <point x="571" y="535" type="curve" smooth="yes"/>
      <point x="349" y="-6" type="line"/>
      <point x="300" y="-6" type="line"/>
      <point x="44" y="612" type="line"/>
      <point x="81" y="569" type="line"/>
      <point x="54" y="583"/>
      <point x="32" y="588"/>
      <point x="3" y="590" type="curve"/>
      <point x="-1" y="607"/>
      <point x="-3" y="619"/>
      <point x="-1" y="635" type="curve"/>
      <point x="267" y="635" type="line"/>
      <point x="271" y="622"/>
      <point x="271" y="606"/>
    </contour>
  </outline>
</glyph>
<glyph name="W" format="1">
  <advance width="944"/>
  <unicode hex="0057"/>
  <outline>
    <contour>
      <point x="285" y="590" type="curve"/>
      <point x="221" y="585"/>
      <point x="207" y="568"/>
      <point x="220" y="528" type="curve" smooth="yes"/>
      <point x="313" y="238" type="line" smooth="yes"/>
      <point x="319" y="218"/>
      <point x="323" y="198"/>
      <point x="325" y="176" type="curve"/>
      <point x="328" y="176" type="line"/>
      <point x="506" y="605" type="line"/>
      <point x="555" y="605" type="line"/>
      <point x="686" y="239" type="line" smooth="yes"/>
      <point x="694" y="219"/>
      <point x="700" y="199"/>
      <point x="701" y="175" type="curve"/>
      <point x="704" y="175" type="line"/>
      <point x="840" y="613" type="line"/>
      <point x="849" y="569" type="line"/>
      <point x="821" y="580"/>
      <point x="799" y="588"/>
      <point x="771" y="590" type="curve"/>
      <point x="772" y="607"/>
      <point x="774" y="621"/>
      <point x="777" y="635" type="curve"/>
      <point x="939" y="635" type="line"/>
      <point x="940" y="620"/>
      <point x="939" y="607"/>
      <point x="937" y="590" type="curve"/>
      <point x="902" y="583"/>
      <point x="885" y="571"/>
      <point x="872" y="533" type="curve" smooth="yes"/>
      <point x="692" y="-6" type="line"/>
      <point x="643" y="-6" type="line"/>
      <point x="475" y="441" type="line"/>
      <point x="496" y="451" type="line"/>
      <point x="303" y="-6" type="line"/>
      <point x="254" y="-6" type="line"/>
      <point x="51" y="615" type="line"/>
      <point x="93" y="567" type="line"/>
      <point x="61" y="583"/>
      <point x="35" y="589"/>
      <point x="8" y="590" type="curve"/>
      <point x="5" y="607"/>
      <point x="3" y="619"/>
      <point x="6" y="635" type="curve"/>
      <point x="279" y="635" type="line"/>
      <point x="283" y="619"/>
      <point x="285" y="606"/>
    </contour>
  </outline>
</glyph>
<glyph name="X" format="1">
  <advance width="626"/>
  <unicode hex="0058"/>
  <outline>
    <contour>
      <point x="331" y="368" type="line"/>
      <point x="503" y="605" type="line"/>
      <point x="499" y="576" type="line"/>
      <point x="476" y="583"/>
      <point x="453" y="589"/>
      <point x="430" y="590" type="curve"/>
      <point x="427" y="604"/>
      <point x="426" y="622"/>
      <point x="428" y="635" type="curve"/>
      <point x="611" y="635" type="line"/>
      <point x="611" y="619"/>
      <point x="609" y="603"/>
      <point x="603" y="590" type="curve"/>
      <point x="572" y="588"/>
      <point x="549" y="577"/>
      <point x="525" y="544" type="curve" smooth="yes"/>
      <point x="364" y="323" type="line"/>
    </contour>
    <contour>
      <point x="299" y="272" type="line"/>
      <point x="129" y="33" type="line"/>
      <point x="131" y="60" type="line"/>
      <point x="154" y="51"/>
      <point x="177" y="48"/>
      <point x="200" y="46" type="curve"/>
      <point x="203" y="32"/>
      <point x="204" y="15"/>
      <point x="202" y="0" type="curve"/>
      <point x="20" y="0" type="line"/>
      <point x="19" y="17"/>
      <point x="21" y="33"/>
      <point x="27" y="46" type="curve"/>
      <point x="58" y="47"/>
      <point x="80" y="60"/>
      <point x="106" y="92" type="curve"/>
      <point x="264" y="315" type="line"/>
    </contour>
    <contour>
      <point x="262" y="591" type="curve"/>
      <point x="215" y="585"/>
      <point x="211" y="570"/>
      <point x="224" y="552" type="curve" smooth="yes"/>
      <point x="577" y="42" type="line"/>
      <point x="548" y="62" type="line"/>
      <point x="568" y="53"/>
      <point x="589" y="48"/>
      <point x="609" y="46" type="curve"/>
      <point x="612" y="35"/>
      <point x="614" y="15"/>
      <point x="612" y="0" type="curve"/>
      <point x="369" y="0" type="line"/>
      <point x="364" y="14"/>
      <point x="365" y="32"/>
      <point x="365" y="46" type="curve"/>
      <point x="411" y="53"/>
      <point x="415" y="65"/>
      <point x="403" y="84" type="curve" smooth="yes"/>
      <point x="46" y="597" type="line"/>
      <point x="77" y="574" type="line"/>
      <point x="56" y="584"/>
      <point x="35" y="589"/>
      <point x="16" y="590" type="curve"/>
      <point x="13" y="605"/>
      <point x="11" y="622"/>
      <point x="14" y="635" type="curve"/>
      <point x="258" y="635" type="line"/>
      <point x="261" y="622"/>
      <point x="262" y="605"/>
    </contour>
  </outline>
</glyph>
<glyph name="Z" format="1">
  <advance width="557"/>
  <unicode hex="005A"/>
  <outline>
    <contour>
      <point x="307" y="635" type="move" name="top"/>
    </contour>
    <contour>
      <point x="499" y="635" type="line"/>
      <point x="505" y="621"/>
      <point x="508" y="601"/>
      <point x="507" y="578" type="curve"/>
      <point x="179" y="39" type="line"/>
      <point x="177" y="65" type="line"/>
      <point x="392" y="65" type="line" smooth="yes"/>
      <point x="445" y="65"/>
      <point x="468" y="84"/>
      <point x="480" y="155" type="curve"/>
      <point x="491" y="155"/>
      <point x="502" y="152"/>
      <point x="511" y="147" type="curve"/>
      <point x="511" y="103"/>
      <point x="510" y="49"/>
      <point x="503" y="0" type="curve"/>
      <point x="57" y="0" type="line"/>
      <point x="50" y="15"/>
      <point x="47" y="34"/>
      <point x="47" y="57" type="curve"/>
      <point x="376" y="598" type="line"/>
      <point x="398" y="572" type="line"/>
      <point x="175" y="572" type="line" smooth="yes"/>
      <point x="122" y="572"/>
      <point x="100" y="551"/>
      <point x="86" y="481" type="curve"/>
      <point x="77" y="481"/>
      <point x="65" y="483"/>
      <point x="55" y="488" type="curve"/>
      <point x="55" y="533"/>
      <point x="57" y="588"/>
      <point x="64" y="635" type="curve"/>
    </contour>
  </outline>
</glyph>
<glyph name="bracketleft" format="1">
  <advance width="378"/>
  <unicode hex="005B"/>
  <outline>
    <contour>
      <point x="224" y="722" type="line"/>
      <point x="348" y="722" type="line"/>
      <point x="348" y="783" type="line"/>
      <point x="100" y="783" type="line"/>
      <point x="100" y="-136" type="line"/>
      <point x="348" y="-136" type="line"/>
      <point x="348" y="-75" type="line"/>
      <point x="224" y="-75" type="line"/>
    </contour>
  </outline>
</glyph>
<glyph name="backslash" format="1">
  <advance width="451"/>
  <unicode hex="005C"/>
  <outline>
    <contour>
      <point x="166" y="737" type="line"/>
      <point x="371" y="-76" type="line"/>
      <point x="272" y="-76" type="line"/>
      <point x="66" y="737" type="line"/>
    </contour>
  </outline>
</glyph>
<glyph name="bracketright" format="1">
  <advance width="378"/>
  <unicode hex="005D"/>
  <outline>
    <contour>
      <point x="30" y="-75" type="line"/>
      <point x="30" y="-136" type="line"/>
      <point x="278" y="-136" type="line"/>
      <point x="278" y="783" type="line"/>
      <point x="30" y="783" type="line"/>
      <point x="30" y="722" type="line"/>
      <point x="155" y="722" type="line"/>
      <point x="155" y="-75" type="line"/>
    </contour>
  </outline>
</glyph>
<glyph name="asciicircum" format="1">
  <advance width="519"/>
  <unicode hex="005E"/>
  <outline>
    <contour>
      <point x="37" y="225" type="line"/>
      <point x="127" y="225" type="line"/>
      <point x="260" y="519" type="line"/>
      <point x="392" y="225" type="line"/>
      <point x="482" y="225" type="line"/>
      <point x="298" y="606" type="line"/>
      <point x="221" y="606" type="line"/>
    </contour>
  </outline>
</glyph>
<glyph name="grave" format="1">
  <advance width="211"/>
  <unicode hex="0060"/>
  <outline>
    <contour>
      <point x="165" y="459" type="move" name="_top"/>
    </contour>
    <contour>
      <point x="201" y="526" type="line"/>
      <point x="168" y="507" type="line"/>
      <point x="10" y="644" type="line"/>
      <point x="10" y="662" type="line"/>
      <point x="27" y="678"/>
      <point x="69" y="703"/>
      <point x="100" y="704" type="curve"/>
    </contour>
  </outline>
</glyph>
<glyph name="a" format="1">
  <advance width="493"/>
  <unicode hex="0061"/>
  <outline>
    <contour>
      <point x="250" y="459" type="move" name="top"/>
    </contour>
    <contour>
      <point x="437" y="0" type="move" name="ogonek"/>
    </contour>
    <contour>
      <point x="301" y="231" type="line"/>
      <point x="241" y="214" type="line" smooth="yes"/>
      <point x="188" y="198"/>
      <point x="163" y="168"/>
      <point x="163" y="126" type="curve" smooth="yes"/>
      <point x="163" y="88"/>
      <point x="186" y="66"/>
      <point x="219" y="66" type="curve" smooth="yes"/>
      <point x="251" y="66"/>
      <point x="277" y="79"/>
      <point x="301" y="117" type="curve"/>
      <point x="304" y="64" type="line"/>
      <point x="273" y="18"/>
      <point x="232" y="-13"/>
      <point x="171" y="-13" type="curve" smooth="yes"/>
      <point x="85" y="-13"/>
      <point x="32" y="43"/>
      <point x="32" y="115" type="curve" smooth="yes"/>
      <point x="32" y="191"/>
      <point x="81" y="233"/>
      <point x="177" y="252" type="curve" smooth="yes"/>
      <point x="299" y="278" type="line"/>
    </contour>
    <contour>
      <point x="408" y="315" type="curve" smooth="yes"/>
      <point x="408" y="115" type="line" smooth="yes"/>
      <point x="408" y="77"/>
      <point x="422" y="64"/>
      <point x="440" y="64" type="curve" smooth="yes"/>
      <point x="451" y="64"/>
      <point x="461" y="67"/>
      <point x="477" y="70" type="curve"/>
      <point x="487" y="44" type="line"/>
      <point x="462" y="13"/>
      <point x="434" y="-13"/>
      <point x="388" y="-13" type="curve" smooth="yes"/>
      <point x="336" y="-13"/>
      <point x="285" y="15"/>
      <point x="285" y="69" type="curve" smooth="yes"/>
      <point x="285" y="310" type="line" smooth="yes"/>
      <point x="285" y="361"/>
      <point x="261" y="384"/>
      <point x="208" y="384" type="curve" smooth="yes"/>
      <point x="166" y="384"/>
      <point x="128" y="376"/>
      <point x="88" y="362" type="curve"/>
      <point x="63" y="399" type="line"/>
      <point x="118" y="447"/>
      <point x="181" y="471"/>
      <point x="257" y="471" type="curve" smooth="yes"/>
      <point x="358" y="471"/>
      <point x="408" y="413"/>
    </contour>
  </outline>
</glyph>
<glyph name="b" format="1">
  <advance width="545"/>
  <unicode hex="0062"/>
  <outline>
    <contour>
      <point x="150" y="62" type="line"/>
      <point x="130" y="28"/>
      <point x="99" y="2"/>
      <point x="66" y="-10" type="curve"/>
      <point x="47" y="8" type="line"/>
      <point x="61" y="43"/>
      <point x="67" y="82"/>
      <point x="67" y="120" type="curve"/>
      <point x="67" y="651" type="line"/>
      <point x="72" y="634" type="line"/>
      <point x="50" y="637"/>
      <point x="25" y="636"/>
      <point x="-2" y="635" type="curve"/>
      <point x="-1" y="649"/>
      <point x="2" y="668"/>
      <point x="7" y="681" type="curve"/>
      <point x="64" y="702"/>
      <point x="116" y="714"/>
      <point x="190" y="718" type="curve"/>
      <point x="190" y="52" type="line"/>
    </contour>
    <contour>
      <point x="514" y="235" type="curve" smooth="yes"/>
      <point x="514" y="78"/>
      <point x="396" y="-11"/>
      <point x="260" y="-11" type="curve" smooth="yes"/>
      <point x="203" y="-11"/>
      <point x="152" y="9"/>
      <point x="111" y="47" type="curve"/>
      <point x="166" y="82" type="line"/>
      <point x="196" y="58"/>
      <point x="230" y="48"/>
      <point x="267" y="48" type="curve" smooth="yes"/>
      <point x="327" y="48"/>
      <point x="380" y="102"/>
      <point x="380" y="235" type="curve" smooth="yes"/>
      <point x="380" y="367"/>
      <point x="327" y="400"/>
      <point x="283" y="400" type="curve" smooth="yes"/>
      <point x="242" y="400"/>
      <point x="199" y="369"/>
      <point x="190" y="299" type="curve"/>
      <point x="186" y="377" type="line"/>
      <point x="208" y="436"/>
      <point x="259" y="471"/>
      <point x="319" y="471" type="curve" smooth="yes"/>
      <point x="421" y="471"/>
      <point x="514" y="390"/>
    </contour>
  </outline>
</glyph>
<glyph name="d" format="1">
  <advance width="569"/>
  <unicode hex="0064"/>
  <outline>
    <contour>
      <point x="514" y="665" type="move" name="commaaccent"/>
    </contour>
    <contour>
      <point x="390" y="387" type="line"/>
      <point x="359" y="397"/>
      <point x="328" y="404"/>
      <point x="289" y="404" type="curve" smooth="yes"/>
      <point x="206" y="404"/>
      <point x="162" y="364"/>
      <point x="162" y="234" type="curve" smooth="yes"/>
      <point x="162" y="106"/>
      <point x="206" y="65"/>
      <point x="268" y="65" type="curve" smooth="yes"/>
      <point x="312" y="65"/>
      <point x="343" y="82"/>
      <point x="376" y="118" type="curve"/>
      <point x="380" y="65" type="line"/>
      <point x="343" y="23"/>
      <point x="293" y="-11"/>
      <point x="226" y="-11" type="curve" smooth="yes"/>
      <point x="133" y="-11"/>
      <point x="31" y="61"/>
      <point x="31" y="218" type="curve" smooth="yes"/>
      <point x="31" y="380"/>
      <point x="154" y="471"/>
      <point x="315" y="471" type="curve" smooth="yes"/>
      <point x="342" y="471"/>
      <point x="368" y="468"/>
      <point x="393" y="463" type="curve"/>
    </contour>
    <contour>
      <point x="465" y="115" type="line"/>
      <point x="465" y="77"/>
      <point x="478" y="64"/>
      <point x="495" y="64" type="curve" smooth="yes"/>
      <point x="507" y="64"/>
      <point x="517" y="67"/>
      <point x="532" y="69" type="curve"/>
      <point x="544" y="44" type="line"/>
      <point x="518" y="13"/>
      <point x="490" y="-13"/>
      <point x="444" y="-13" type="curve" smooth="yes"/>
      <point x="393" y="-13"/>
      <point x="353" y="15"/>
      <point x="342" y="60" type="curve" smooth="yes"/>
      <point x="342" y="651" type="line"/>
      <point x="346" y="634" type="line"/>
      <point x="325" y="637"/>
      <point x="300" y="636"/>
      <point x="273" y="635" type="curve"/>
      <point x="274" y="649"/>
      <point x="277" y="668"/>
      <point x="281" y="681" type="curve"/>
      <point x="339" y="702"/>
      <point x="391" y="714"/>
      <point x="465" y="718" type="curve"/>
    </contour>
  </outline>
</glyph>
<glyph name="e" format="1">
  <advance width="489"/>
  <unicode hex="0065"/>
  <outline>
    <contour>
      <point x="271" y="459" type="move" name="top"/>
    </contour>
    <contour>
      <point x="336" y="0" type="move" name="ogonek"/>
    </contour>
    <contour>
      <point x="250" y="0" type="move" name="bottom"/>
    </contour>
    <contour>
      <point x="455" y="277" type="curve"/>
      <point x="451" y="266"/>
      <point x="445" y="254"/>
      <point x="439" y="245" type="curve"/>
      <point x="137" y="245" type="line"/>
      <point x="137" y="289" type="line"/>
      <point x="259" y="298" type="line"/>
      <point x="404" y="301" type="line"/>
      <point x="329" y="287" type="line"/>
      <point x="331" y="379"/>
      <point x="301" y="410"/>
      <point x="263" y="410" type="curve" smooth="yes"/>
      <point x="217" y="410"/>
      <point x="162" y="366"/>
      <point x="162" y="235" type="curve" smooth="yes"/>
      <point x="162" y="111"/>
      <point x="216" y="65"/>
      <point x="291" y="65" type="curve" smooth="yes"/>
      <point x="337" y="65"/>
      <point x="386" y="79"/>
      <point x="434" y="102" type="curve"/>
      <point x="451" y="73" type="line"/>
      <point x="404" y="23"/>
      <point x="338" y="-13"/>
      <point x="255" y="-13" type="curve" smooth="yes"/>
      <point x="157" y="-13"/>
      <point x="31" y="59"/>
      <point x="31" y="219" type="curve" smooth="yes"/>
      <point x="31" y="382"/>
      <point x="151" y="471"/>
      <point x="274" y="471" type="curve" smooth="yes"/>
      <point x="364" y="471"/>
      <point x="455" y="421"/>
    </contour>
  </outline>
</glyph>
<glyph name="f" format="1">
  <advance width="342"/>
  <unicode hex="0066"/>
  <outline>
    <contour>
      <point x="218" y="36" type="line"/>
      <point x="213" y="68" type="line"/>
      <point x="241" y="57"/>
      <point x="279" y="49"/>
      <point x="311" y="47" type="curve"/>
      <point x="311" y="33"/>
      <point x="310" y="14"/>
      <point x="307" y="0" type="curve"/>
      <point x="26" y="0" type="line"/>
      <point x="25" y="15"/>
      <point x="26" y="33"/>
      <point x="30" y="47" type="curve"/>
      <point x="70" y="53"/>
      <point x="94" y="63"/>
      <point x="94" y="102" type="curve" smooth="yes"/>
      <point x="94" y="427" type="line"/>
      <point x="116" y="388" type="line"/>
      <point x="90" y="395"/>
      <point x="62" y="397"/>
      <point x="35" y="397" type="curve"/>
      <point x="34" y="408"/>
      <point x="35" y="426"/>
      <point x="37" y="436" type="curve"/>
      <point x="55" y="444"/>
      <point x="74" y="450"/>
      <point x="94" y="453" type="curve"/>
      <point x="94" y="511" type="line"/>
      <point x="94" y="645"/>
      <point x="177" y="713"/>
      <point x="278" y="713" type="curve" smooth="yes"/>
      <point x="320" y="713"/>
      <point x="368" y="693"/>
      <point x="396" y="668" type="curve"/>
      <point x="394" y="630"/>
      <point x="388" y="598"/>
      <point x="377" y="565" type="curve"/>
      <point x="369" y="565"/>
      <point x="344" y="567"/>
      <point x="335" y="569" type="curve"/>
      <point x="339" y="623"/>
      <point x="319" y="653"/>
      <point x="281" y="653" type="curve" smooth="yes"/>
      <point x="240" y="653"/>
      <point x="218" y="623"/>
      <point x="218" y="561" type="curve"/>
    </contour>
    <contour>
      <point x="190" y="455" type="line"/>
      <point x="235" y="455"/>
      <point x="285" y="457"/>
      <point x="345" y="465" type="curve"/>
      <point x="345" y="438"/>
      <point x="343" y="416"/>
      <point x="335" y="397" type="curve"/>
      <point x="190" y="397" type="line"/>
    </contour>
  </outline>
</glyph>
<glyph name="g" format="1">
  <advance width="523"/>
  <unicode hex="0067"/>
  <outline>
    <contour>
      <point x="262" y="459" type="move" name="top"/>
    </contour>
    <contour>
      <point x="258" y="199" type="curve" smooth="yes"/>
      <point x="297" y="199"/>
      <point x="329" y="229"/>
      <point x="326" y="313" type="curve" smooth="yes"/>
      <point x="323" y="397"/>
      <point x="290" y="427"/>
      <point x="250" y="427" type="curve" smooth="yes"/>
      <point x="210" y="427"/>
      <point x="179" y="397"/>
      <point x="182" y="313" type="curve" smooth="yes"/>
      <point x="185" y="229"/>
      <point x="218" y="199"/>
    </contour>
    <contour>
      <point x="456" y="313" type="curve" smooth="yes"/>
      <point x="456" y="213"/>
      <point x="368" y="154"/>
      <point x="254" y="154" type="curve" smooth="yes"/>
      <point x="141" y="154"/>
      <point x="50" y="213"/>
      <point x="50" y="313" type="curve" smooth="yes"/>
      <point x="50" y="413"/>
      <point x="141" y="471"/>
      <point x="254" y="471" type="curve" smooth="yes"/>
      <point x="368" y="471"/>
      <point x="456" y="413"/>
    </contour>
    <contour>
      <point x="377" y="431" type="line"/>
      <point x="419" y="470"/>
      <point x="485" y="484"/>
      <point x="531" y="484" type="curve"/>
      <point x="533" y="470"/>
      <point x="530" y="435"/>
      <point x="527" y="415" type="curve"/>
      <point x="402" y="400" type="line"/>
    </contour>
    <contour>
      <point x="163" y="5" type="line"/>
      <point x="130" y="-13"/>
      <point x="114" y="-48"/>
      <point x="114" y="-75" type="curve" smooth="yes"/>
      <point x="114" y="-122"/>
      <point x="162" y="-152"/>
      <point x="254" y="-152" type="curve" smooth="yes"/>
      <point x="362" y="-152"/>
      <point x="424" y="-101"/>
      <point x="424" y="-57" type="curve" smooth="yes"/>
      <point x="424" y="-31"/>
      <point x="409" y="-13"/>
      <point x="373" y="-13" type="curve" smooth="yes"/>
      <point x="178" y="-14" type="line" smooth="yes"/>
      <point x="86" y="-14"/>
      <point x="52" y="32"/>
      <point x="52" y="86" type="curve" smooth="yes"/>
      <point x="52" y="139"/>
      <point x="97" y="180"/>
      <point x="152" y="194" type="curve"/>
      <point x="179" y="172" type="line"/>
      <point x="148" y="159"/>
      <point x="132" y="142"/>
      <point x="132" y="121" type="curve" smooth="yes"/>
      <point x="132" y="99"/>
      <point x="149" y="83"/>
      <point x="182" y="83" type="curve" smooth="yes"/>
      <point x="378" y="83" type="line" smooth="yes"/>
      <point x="469" y="84"/>
      <point x="506" y="44"/>
      <point x="506" y="-18" type="curve" smooth="yes"/>
      <point x="505" y="-130"/>
      <point x="383" y="-246"/>
      <point x="217" y="-246" type="curve" smooth="yes"/>
      <point x="106" y="-246"/>
      <point x="26" y="-196"/>
      <point x="26" y="-111" type="curve" smooth="yes"/>
      <point x="26" y="-42"/>
      <point x="77" y="0"/>
      <point x="154" y="27" type="curve"/>
    </contour>
  </outline>
</glyph>
<glyph name="h" format="1">
  <advance width="614"/>
  <unicode hex="0068"/>
  <outline>
    <contour>
      <point x="521" y="317" type="curve" smooth="yes"/>
      <point x="521" y="35" type="line"/>
      <point x="516" y="61" type="line"/>
      <point x="548" y="51"/>
      <point x="565" y="47"/>
      <point x="589" y="47" type="curve"/>
      <point x="590" y="33"/>
      <point x="588" y="14"/>
      <point x="585" y="0" type="curve"/>
      <point x="339" y="0" type="line"/>
      <point x="338" y="15"/>
      <point x="339" y="33"/>
      <point x="343" y="47" type="curve"/>
      <point x="380" y="53"/>
      <point x="397" y="63"/>
      <point x="397" y="102" type="curve" smooth="yes"/>
      <point x="397" y="302" type="line" smooth="yes"/>
      <point x="397" y="361"/>
      <point x="367" y="389"/>
      <point x="324" y="389" type="curve" smooth="yes"/>
      <point x="279" y="389"/>
      <point x="242" y="356"/>
      <point x="218" y="293" type="curve"/>
      <point x="201" y="334" type="line"/>
      <point x="230" y="426"/>
      <point x="295" y="471"/>
      <point x="374" y="471" type="curve" smooth="yes"/>
      <point x="458" y="471"/>
      <point x="521" y="418"/>
    </contour>
    <contour>
      <point x="219" y="36" type="line"/>
      <point x="214" y="61" type="line"/>
      <point x="235" y="51"/>
      <point x="258" y="47"/>
      <point x="279" y="47" type="curve"/>
      <point x="280" y="33"/>
      <point x="278" y="14"/>
      <point x="276" y="0" type="curve"/>
      <point x="27" y="0" type="line"/>
      <point x="26" y="15"/>
      <point x="27" y="33"/>
      <point x="31" y="47" type="curve"/>
      <point x="71" y="53"/>
      <point x="95" y="63"/>
      <point x="95" y="102" type="curve" smooth="yes"/>
      <point x="95" y="650" type="line"/>
      <point x="99" y="633" type="line"/>
      <point x="79" y="636"/>
      <point x="53" y="635"/>
      <point x="27" y="634" type="curve"/>
      <point x="28" y="648"/>
      <point x="30" y="667"/>
      <point x="34" y="679" type="curve"/>
      <point x="94" y="701"/>
      <point x="141" y="712"/>
      <point x="219" y="717" type="curve"/>
    </contour>
  </outline>
</glyph>
<glyph name="i" format="1">
  <advance width="316"/>
  <unicode hex="0069"/>
  <outline>
    <contour>
      <point x="276" y="0" type="move" name="ogonek"/>
    </contour>
    <contour>
      <point x="231" y="599" type="curve" smooth="yes"/>
      <point x="231" y="641"/>
      <point x="198" y="674"/>
      <point x="156" y="674" type="curve" smooth="yes"/>
      <point x="115" y="674"/>
      <point x="81" y="641"/>
      <point x="81" y="599" type="curve" smooth="yes"/>
      <point x="81" y="559"/>
      <point x="115" y="525"/>
      <point x="156" y="525" type="curve" smooth="yes"/>
      <point x="198" y="525"/>
      <point x="231" y="559"/>
    </contour>
    <contour>
      <point x="219" y="36" type="line"/>
      <point x="214" y="61" type="line"/>
      <point x="235" y="51"/>
      <point x="258" y="47"/>
      <point x="279" y="47" type="curve"/>
      <point x="280" y="33"/>
      <point x="278" y="14"/>
      <point x="276" y="0" type="curve"/>
      <point x="27" y="0" type="line"/>
      <point x="26" y="15"/>
      <point x="27" y="33"/>
      <point x="31" y="47" type="curve"/>
      <point x="71" y="53"/>
      <point x="95" y="63"/>
      <point x="95" y="102" type="curve" smooth="yes"/>
      <point x="95" y="399" type="line"/>
      <point x="99" y="383" type="line"/>
      <point x="79" y="385"/>
      <point x="53" y="385"/>
      <point x="27" y="384" type="curve"/>
      <point x="28" y="396"/>
      <point x="30" y="416"/>
      <point x="34" y="429" type="curve"/>
      <point x="91" y="449"/>
      <point x="145" y="461"/>
      <point x="219" y="467" type="curve"/>
    </contour>
  </outline>
</glyph>
<glyph name="j" format="1">
  <advance width="295"/>
  <unicode hex="006A"/>
  <outline>
    <contour>
      <point x="156" y="525" type="curve" smooth="yes"/>
      <point x="115" y="525"/>
      <point x="81" y="559"/>
      <point x="81" y="599" type="curve" smooth="yes"/>
      <point x="81" y="641"/>
      <point x="115" y="674"/>
      <point x="156" y="674" type="curve" smooth="yes"/>
      <point x="198" y="674"/>
      <point x="231" y="641"/>
      <point x="231" y="599" type="curve" smooth="yes"/>
      <point x="231" y="559"/>
      <point x="198" y="525"/>
    </contour>
    <contour>
      <point x="219" y="24" type="line"/>
      <point x="219" y="-102"/>
      <point x="148" y="-191"/>
      <point x="17" y="-238" type="curve"/>
      <point x="-9" y="-199" type="line"/>
      <point x="65" y="-152"/>
      <point x="95" y="-101"/>
      <point x="95" y="9" type="curve" smooth="yes"/>
      <point x="95" y="399" type="line"/>
      <point x="99" y="383" type="line"/>
      <point x="79" y="385"/>
      <point x="53" y="385"/>
      <point x="27" y="384" type="curve"/>
      <point x="28" y="396"/>
      <point x="30" y="416"/>
      <point x="34" y="429" type="curve"/>
      <point x="91" y="449"/>
      <point x="145" y="461"/>
      <point x="219" y="467" type="curve"/>
    </contour>
  </outline>
</glyph>
<glyph name="k" format="1">
  <advance width="594"/>
  <unicode hex="006B"/>
  <outline>
    <contour>
      <point x="317" y="0" type="move" name="bottom"/>
    </contour>
    <contour>
      <point x="219" y="36" type="line"/>
      <point x="214" y="61" type="line"/>
      <point x="235" y="51"/>
      <point x="258" y="47"/>
      <point x="279" y="47" type="curve"/>
      <point x="280" y="33"/>
      <point x="278" y="14"/>
      <point x="276" y="0" type="curve"/>
      <point x="27" y="0" type="line"/>
      <point x="26" y="15"/>
      <point x="27" y="33"/>
      <point x="31" y="47" type="curve"/>
      <point x="71" y="53"/>
      <point x="95" y="63"/>
      <point x="95" y="102" type="curve" smooth="yes"/>
      <point x="95" y="651" type="line"/>
      <point x="99" y="634" type="line"/>
      <point x="79" y="637"/>
      <point x="53" y="636"/>
      <point x="27" y="635" type="curve"/>
      <point x="28" y="649"/>
      <point x="30" y="668"/>
      <point x="34" y="681" type="curve"/>
      <point x="91" y="702"/>
      <point x="145" y="714"/>
      <point x="219" y="718" type="curve"/>
    </contour>
    <contour>
      <point x="548" y="414" type="curve"/>
      <point x="505" y="414"/>
      <point x="473" y="402"/>
      <point x="439" y="369" type="curve" smooth="yes"/>
      <point x="199" y="133" type="line"/>
      <point x="143" y="154" type="line"/>
      <point x="398" y="405" type="line"/>
      <point x="409" y="397" type="line"/>
      <point x="379" y="401"/>
      <point x="348" y="410"/>
      <point x="322" y="422" type="curve"/>
      <point x="322" y="436"/>
      <point x="324" y="450"/>
      <point x="328" y="459" type="curve"/>
      <point x="551" y="459" type="line"/>
      <point x="551" y="444"/>
      <point x="551" y="428"/>
    </contour>
    <contour>
      <point x="581" y="47" type="curve"/>
      <point x="582" y="33"/>
      <point x="580" y="16"/>
      <point x="576" y="0" type="curve"/>
      <point x="413" y="0" type="line"/>
      <point x="285" y="186" type="line" smooth="yes"/>
      <point x="274" y="203"/>
      <point x="266" y="209"/>
      <point x="245" y="209" type="curve"/>
      <point x="305" y="290" type="line"/>
      <point x="350" y="289"/>
      <point x="375" y="267"/>
      <point x="399" y="230" type="curve" smooth="yes"/>
      <point x="483" y="108" type="line" smooth="yes"/>
      <point x="516" y="60"/>
      <point x="536" y="49"/>
    </contour>
  </outline>
</glyph>
<glyph name="l" format="1">
  <advance width="316"/>
  <unicode hex="006C"/>
  <outline>
    <contour>
      <point x="268" y="665" type="move" name="commaaccent"/>
    </contour>
    <contour>
      <point x="165" y="700" type="move" name="top"/>
    </contour>
    <contour>
      <point x="158" y="0" type="move" name="bottom"/>
    </contour>
    <contour>
      <point x="219" y="36" type="line"/>
      <point x="214" y="61" type="line"/>
      <point x="235" y="51"/>
      <point x="258" y="47"/>
      <point x="279" y="47" type="curve"/>
      <point x="280" y="33"/>
      <point x="278" y="14"/>
      <point x="276" y="0" type="curve"/>
      <point x="27" y="0" type="line"/>
      <point x="26" y="15"/>
      <point x="27" y="33"/>
      <point x="31" y="47" type="curve"/>
      <point x="71" y="53"/>
      <point x="95" y="63"/>
      <point x="95" y="102" type="curve" smooth="yes"/>
      <point x="95" y="651" type="line"/>
      <point x="99" y="634" type="line"/>
      <point x="79" y="637"/>
      <point x="53" y="636"/>
      <point x="27" y="635" type="curve"/>
      <point x="28" y="649"/>
      <point x="30" y="668"/>
      <point x="34" y="681" type="curve"/>
      <point x="91" y="702"/>
      <point x="145" y="714"/>
      <point x="219" y="718" type="curve"/>
    </contour>
  </outline>
</glyph>
<glyph name="m" format="1">
  <advance width="917"/>
  <unicode hex="006D"/>
  <outline>
    <contour>
      <point x="219" y="317" type="curve" smooth="yes"/>
      <point x="219" y="36" type="line"/>
      <point x="214" y="61" type="line"/>
      <point x="235" y="51"/>
      <point x="258" y="47"/>
      <point x="279" y="47" type="curve"/>
      <point x="280" y="33"/>
      <point x="278" y="14"/>
      <point x="276" y="0" type="curve"/>
      <point x="27" y="0" type="line"/>
      <point x="26" y="15"/>
      <point x="27" y="33"/>
      <point x="31" y="47" type="curve"/>
      <point x="71" y="53"/>
      <point x="95" y="63"/>
      <point x="95" y="102" type="curve" smooth="yes"/>
      <point x="95" y="399" type="line"/>
      <point x="99" y="383" type="line"/>
      <point x="79" y="384"/>
      <point x="53" y="385"/>
      <point x="27" y="384" type="curve"/>
      <point x="28" y="396"/>
      <point x="30" y="416"/>
      <point x="34" y="428" type="curve"/>
      <point x="89" y="448"/>
      <point x="146" y="461"/>
      <point x="207" y="465" type="curve"/>
      <point x="216" y="415"/>
      <point x="219" y="369"/>
    </contour>
    <contour>
      <point x="521" y="317" type="curve" smooth="yes"/>
      <point x="521" y="35" type="line"/>
      <point x="516" y="61" type="line"/>
      <point x="537" y="51"/>
      <point x="560" y="47"/>
      <point x="581" y="47" type="curve"/>
      <point x="583" y="33"/>
      <point x="581" y="14"/>
      <point x="578" y="0" type="curve"/>
      <point x="339" y="0" type="line"/>
      <point x="338" y="15"/>
      <point x="339" y="33"/>
      <point x="343" y="47" type="curve"/>
      <point x="380" y="53"/>
      <point x="397" y="63"/>
      <point x="397" y="102" type="curve" smooth="yes"/>
      <point x="397" y="302" type="line" smooth="yes"/>
      <point x="397" y="361"/>
      <point x="367" y="389"/>
      <point x="324" y="389" type="curve" smooth="yes"/>
      <point x="279" y="389"/>
      <point x="242" y="356"/>
      <point x="218" y="293" type="curve"/>
      <point x="201" y="334" type="line"/>
      <point x="230" y="426"/>
      <point x="295" y="471"/>
      <point x="374" y="471" type="curve" smooth="yes"/>
      <point x="458" y="471"/>
      <point x="521" y="418"/>
    </contour>
    <contour>
      <point x="824" y="317" type="curve" smooth="yes"/>
      <point x="824" y="35" type="line"/>
      <point x="819" y="61" type="line"/>
      <point x="850" y="51"/>
      <point x="867" y="47"/>
      <point x="891" y="47" type="curve"/>
      <point x="892" y="33"/>
      <point x="890" y="14"/>
      <point x="887" y="0" type="curve"/>
      <point x="642" y="0" type="line"/>
      <point x="640" y="15"/>
      <point x="642" y="33"/>
      <point x="645" y="47" type="curve"/>
      <point x="682" y="53"/>
      <point x="700" y="63"/>
      <point x="700" y="102" type="curve" smooth="yes"/>
      <point x="700" y="302" type="line" smooth="yes"/>
      <point x="700" y="361"/>
      <point x="670" y="389"/>
      <point x="627" y="389" type="curve" smooth="yes"/>
      <point x="582" y="389"/>
      <point x="545" y="356"/>
      <point x="521" y="293" type="curve"/>
      <point x="503" y="334" type="line"/>
      <point x="532" y="426"/>
      <point x="598" y="471"/>
      <point x="676" y="471" type="curve" smooth="yes"/>
      <point x="761" y="471"/>
      <point x="824" y="418"/>
    </contour>
  </outline>
</glyph>
<glyph name="n" format="1">
  <advance width="607"/>
  <unicode hex="006E"/>
  <outline>
    <contour>
      <point x="314" y="459" type="move" name="top"/>
    </contour>
    <contour>
      <point x="302" y="0" type="move" name="bottom"/>
    </contour>
    <contour>
      <point x="219" y="317" type="curve" smooth="yes"/>
      <point x="219" y="36" type="line"/>
      <point x="214" y="61" type="line"/>
      <point x="235" y="51"/>
      <point x="258" y="47"/>
      <point x="279" y="47" type="curve"/>
      <point x="280" y="33"/>
      <point x="278" y="14"/>
      <point x="276" y="0" type="curve"/>
      <point x="27" y="0" type="line"/>
      <point x="26" y="15"/>
      <point x="27" y="33"/>
      <point x="31" y="47" type="curve"/>
      <point x="71" y="53"/>
      <point x="95" y="63"/>
      <point x="95" y="102" type="curve" smooth="yes"/>
      <point x="95" y="399" type="line"/>
      <point x="99" y="383" type="line"/>
      <point x="79" y="384"/>
      <point x="53" y="385"/>
      <point x="27" y="384" type="curve"/>
      <point x="28" y="396"/>
      <point x="30" y="416"/>
      <point x="34" y="428" type="curve"/>
      <point x="89" y="448"/>
      <point x="146" y="461"/>
      <point x="207" y="466" type="curve"/>
      <point x="216" y="415"/>
      <point x="219" y="369"/>
    </contour>
    <contour>
      <point x="521" y="317" type="curve" smooth="yes"/>
      <point x="521" y="35" type="line"/>
      <point x="516" y="61" type="line"/>
      <point x="548" y="51"/>
      <point x="565" y="47"/>
      <point x="589" y="47" type="curve"/>
      <point x="590" y="33"/>
      <point x="588" y="14"/>
      <point x="585" y="0" type="curve"/>
      <point x="339" y="0" type="line"/>
      <point x="338" y="15"/>
      <point x="339" y="33"/>
      <point x="343" y="47" type="curve"/>
      <point x="380" y="53"/>
      <point x="397" y="63"/>
      <point x="397" y="102" type="curve" smooth="yes"/>
      <point x="397" y="302" type="line" smooth="yes"/>
      <point x="397" y="362"/>
      <point x="367" y="389"/>
      <point x="324" y="389" type="curve" smooth="yes"/>
      <point x="279" y="389"/>
      <point x="242" y="356"/>
      <point x="218" y="293" type="curve"/>
      <point x="201" y="334" type="line"/>
      <point x="230" y="426"/>
      <point x="295" y="471"/>
      <point x="374" y="471" type="curve" smooth="yes"/>
      <point x="458" y="471"/>
      <point x="521" y="418"/>
    </contour>
  </outline>
</glyph>
<glyph name="o" format="1">
  <advance width="535"/>
  <unicode hex="006F"/>
  <outline>
    <contour>
      <point x="271" y="459" type="move" name="top"/>
    </contour>
    <contour>
      <point x="504" y="230" type="curve" smooth="yes"/>
      <point x="504" y="73"/>
      <point x="403" y="-11"/>
      <point x="267" y="-11" type="curve" smooth="yes"/>
      <point x="128" y="-11"/>
      <point x="31" y="73"/>
      <point x="31" y="230" type="curve" smooth="yes"/>
      <point x="31" y="388"/>
      <point x="132" y="471"/>
      <point x="268" y="471" type="curve" smooth="yes"/>
      <point x="404" y="471"/>
      <point x="504" y="388"/>
    </contour>
    <contour>
      <point x="162" y="230" type="curve" smooth="yes"/>
      <point x="167" y="109"/>
      <point x="203" y="47"/>
      <point x="273" y="47" type="curve" smooth="yes"/>
      <point x="344" y="47"/>
      <point x="375" y="109"/>
      <point x="372" y="230" type="curve" smooth="yes"/>
      <point x="368" y="350"/>
      <point x="332" y="414"/>
      <point x="263" y="414" type="curve" smooth="yes"/>
      <point x="192" y="414"/>
      <point x="159" y="350"/>
    </contour>
  </outline>
</glyph>
<glyph name="p" format="1">
  <advance width="569"/>
  <unicode hex="0070"/>
  <outline>
    <contour>
      <point x="216" y="317" type="curve" smooth="yes"/>
      <point x="216" y="-199" type="line"/>
      <point x="211" y="-163" type="line"/>
      <point x="241" y="-178"/>
      <point x="277" y="-185"/>
      <point x="307" y="-187" type="curve"/>
      <point x="308" y="-201"/>
      <point x="307" y="-220"/>
      <point x="304" y="-234" type="curve"/>
      <point x="23" y="-234" type="line"/>
      <point x="22" y="-219"/>
      <point x="23" y="-201"/>
      <point x="28" y="-187" type="curve"/>
      <point x="68" y="-181"/>
      <point x="92" y="-171"/>
      <point x="92" y="-131" type="curve" smooth="yes"/>
      <point x="92" y="399" type="line"/>
      <point x="96" y="383" type="line"/>
      <point x="75" y="384"/>
      <point x="50" y="385"/>
      <point x="24" y="384" type="curve"/>
      <point x="25" y="396"/>
      <point x="28" y="416"/>
      <point x="32" y="428" type="curve"/>
      <point x="86" y="448"/>
      <point x="141" y="461"/>
      <point x="201" y="465" type="curve"/>
      <point x="213" y="415"/>
      <point x="216" y="369"/>
    </contour>
    <contour>
      <point x="537" y="235" type="curve" smooth="yes"/>
      <point x="537" y="79"/>
      <point x="411" y="-11"/>
      <point x="274" y="-11" type="curve" smooth="yes"/>
      <point x="225" y="-11"/>
      <point x="182" y="7"/>
      <point x="131" y="46" type="curve"/>
      <point x="184" y="83" type="line"/>
      <point x="215" y="59"/>
      <point x="248" y="47"/>
      <point x="286" y="47" type="curve" smooth="yes"/>
      <point x="345" y="47"/>
      <point x="404" y="102"/>
      <point x="404" y="235" type="curve" smooth="yes"/>
      <point x="404" y="367"/>
      <point x="351" y="400"/>
      <point x="307" y="400" type="curve" smooth="yes"/>
      <point x="265" y="400"/>
      <point x="223" y="361"/>
      <point x="214" y="291" type="curve"/>
      <point x="205" y="367" type="line"/>
      <point x="231" y="441"/>
      <point x="284" y="471"/>
      <point x="342" y="471" type="curve" smooth="yes"/>
      <point x="443" y="471"/>
      <point x="537" y="390"/>
    </contour>
  </outline>
</glyph>
<glyph name="q" format="1">
  <advance width="543"/>
  <unicode hex="0071"/>
  <outline>
    <contour>
      <point x="371" y="367" type="line"/>
      <point x="349" y="387"/>
      <point x="324" y="404"/>
      <point x="284" y="404" type="curve" smooth="yes"/>
      <point x="219" y="404"/>
      <point x="162" y="364"/>
      <point x="162" y="234" type="curve" smooth="yes"/>
      <point x="162" y="106"/>
      <point x="206" y="65"/>
      <point x="268" y="65" type="curve" smooth="yes"/>
      <point x="312" y="65"/>
      <point x="343" y="82"/>
      <point x="376" y="118" type="curve"/>
      <point x="380" y="65" type="line"/>
      <point x="343" y="23"/>
      <point x="293" y="-11"/>
      <point x="226" y="-11" type="curve" smooth="yes"/>
      <point x="133" y="-11"/>
      <point x="31" y="61"/>
      <point x="31" y="218" type="curve" smooth="yes"/>
      <point x="31" y="380"/>
      <point x="154" y="471"/>
      <point x="303" y="471" type="curve" smooth="yes"/>
      <point x="356" y="471"/>
      <point x="404" y="451"/>
      <point x="444" y="418" type="curve"/>
    </contour>
    <contour>
      <point x="342" y="396" type="line"/>
      <point x="371" y="394" type="line"/>
      <point x="388" y="428"/>
      <point x="420" y="459"/>
      <point x="444" y="476" type="curve"/>
      <point x="465" y="476" type="line"/>
      <point x="465" y="-198" type="line"/>
      <point x="446" y="-167" type="line"/>
      <point x="471" y="-178"/>
      <point x="505" y="-185"/>
      <point x="534" y="-187" type="curve"/>
      <point x="535" y="-201"/>
      <point x="533" y="-220"/>
      <point x="530" y="-234" type="curve"/>
      <point x="251" y="-234" type="line"/>
      <point x="250" y="-219"/>
      <point x="250" y="-201"/>
      <point x="254" y="-187" type="curve"/>
      <point x="321" y="-181"/>
      <point x="342" y="-170"/>
      <point x="342" y="-129" type="curve" smooth="yes"/>
    </contour>
  </outline>
</glyph>
<glyph name="r" format="1">
  <advance width="393"/>
  <unicode hex="0072"/>
  <outline>
    <contour>
      <point x="222" y="462" type="move" name="top"/>
    </contour>
    <contour>
      <point x="153" y="0" type="move" name="bottom"/>
    </contour>
    <contour>
      <point x="389" y="356" type="curve"/>
      <point x="312" y="356"/>
      <point x="233" y="332"/>
      <point x="219" y="239" type="curve"/>
      <point x="199" y="239" type="line"/>
      <point x="207" y="363"/>
      <point x="289" y="471"/>
      <point x="394" y="471" type="curve"/>
      <point x="401" y="448"/>
      <point x="399" y="397"/>
    </contour>
    <contour>
      <point x="95" y="399" type="line"/>
      <point x="99" y="383" type="line"/>
      <point x="79" y="384"/>
      <point x="53" y="385"/>
      <point x="27" y="384" type="curve"/>
      <point x="28" y="396"/>
      <point x="30" y="416"/>
      <point x="34" y="428" type="curve"/>
      <point x="89" y="448"/>
      <point x="146" y="461"/>
      <point x="207" y="465" type="curve"/>
      <point x="216" y="415"/>
      <point x="219" y="369"/>
      <point x="219" y="317" type="curve"/>
      <point x="219" y="36" type="line"/>
      <point x="214" y="68" type="line"/>
      <point x="241" y="57"/>
      <point x="280" y="49"/>
      <point x="312" y="47" type="curve"/>
      <point x="313" y="33"/>
      <point x="311" y="14"/>
      <point x="308" y="0" type="curve"/>
      <point x="27" y="0" type="line"/>
      <point x="26" y="15"/>
      <point x="27" y="33"/>
      <point x="31" y="47" type="curve"/>
      <point x="71" y="53"/>
      <point x="95" y="63"/>
      <point x="95" y="102" type="curve"/>
    </contour>
  </outline>
</glyph>
<glyph name="s" format="1">
  <advance width="420"/>
  <unicode hex="0073"/>
  <outline>
    <contour>
      <point x="235" y="459" type="move" name="top"/>
    </contour>
    <contour>
      <point x="210" y="0" type="move" name="bottom"/>
    </contour>
    <contour>
      <point x="269" y="106" type="curve" smooth="yes"/>
      <point x="269" y="193"/>
      <point x="57" y="195"/>
      <point x="57" y="334" type="curve" smooth="yes"/>
      <point x="57" y="428"/>
      <point x="131" y="471"/>
      <point x="236" y="471" type="curve" smooth="yes"/>
      <point x="285" y="471"/>
      <point x="318" y="463"/>
      <point x="357" y="451" type="curve"/>
      <point x="359" y="398"/>
      <point x="355" y="357"/>
      <point x="351" y="326" type="curve"/>
      <point x="340" y="326"/>
      <point x="322" y="328"/>
      <point x="312" y="330" type="curve"/>
      <point x="322" y="405"/>
      <point x="280" y="419"/>
      <point x="239" y="419" type="curve" smooth="yes"/>
      <point x="200" y="419"/>
      <point x="170" y="397"/>
      <point x="170" y="359" type="curve" smooth="yes"/>
      <point x="170" y="271"/>
      <point x="390" y="279"/>
      <point x="390" y="133" type="curve" smooth="yes"/>
      <point x="390" y="48"/>
      <point x="309" y="-13"/>
      <point x="187" y="-13" type="curve" smooth="yes"/>
      <point x="143" y="-13"/>
      <point x="89" y="-6"/>
      <point x="46" y="7" type="curve"/>
      <point x="43" y="51"/>
      <point x="45" y="101"/>
      <point x="51" y="141" type="curve"/>
      <point x="61" y="141"/>
      <point x="79" y="140"/>
      <point x="92" y="138" type="curve"/>
      <point x="87" y="52"/>
      <point x="148" y="45"/>
      <point x="189" y="45" type="curve" smooth="yes"/>
      <point x="237" y="45"/>
      <point x="269" y="72"/>
    </contour>
  </outline>
</glyph>
<glyph name="t" format="1">
  <advance width="370"/>
  <unicode hex="0074"/>
  <outline>
    <contour>
      <point x="258" y="635" type="move" name="commaaccent"/>
    </contour>
    <contour>
      <point x="196" y="0" type="move" name="bottom"/>
    </contour>
    <contour>
      <point x="209" y="592" type="line"/>
      <point x="209" y="131" type="line"/>
      <point x="209" y="87"/>
      <point x="228" y="73"/>
      <point x="256" y="73" type="curve" smooth="yes"/>
      <point x="282" y="73"/>
      <point x="306" y="82"/>
      <point x="333" y="102" type="curve"/>
      <point x="353" y="76" type="line"/>
      <point x="319" y="26"/>
      <point x="272" y="-11"/>
      <point x="213" y="-11" type="curve" smooth="yes"/>
      <point x="141" y="-11"/>
      <point x="86" y="31"/>
      <point x="86" y="125" type="curve" smooth="yes"/>
      <point x="86" y="423" type="line"/>
      <point x="107" y="388" type="line"/>
      <point x="81" y="395"/>
      <point x="50" y="397"/>
      <point x="22" y="397" type="curve"/>
      <point x="22" y="408"/>
      <point x="23" y="426"/>
      <point x="24" y="436" type="curve"/>
      <point x="44" y="444"/>
      <point x="65" y="450"/>
      <point x="85" y="453" type="curve"/>
      <point x="184" y="600" type="line"/>
    </contour>
    <contour>
      <point x="181" y="455" type="line"/>
      <point x="227" y="455"/>
      <point x="276" y="457"/>
      <point x="336" y="465" type="curve"/>
      <point x="336" y="438"/>
      <point x="333" y="416"/>
      <point x="327" y="397" type="curve"/>
      <point x="181" y="397" type="line"/>
    </contour>
  </outline>
</glyph>
<glyph name="v" format="1">
  <advance width="526"/>
  <unicode hex="0076"/>
  <outline>
    <contour>
      <point x="245" y="413" type="curve"/>
      <point x="223" y="413"/>
      <point x="195" y="411"/>
      <point x="174" y="401" type="curve"/>
      <point x="176" y="429" type="line"/>
      <point x="302" y="34" type="line"/>
      <point x="290" y="36" type="line"/>
      <point x="290" y="69"/>
      <point x="301" y="108"/>
      <point x="314" y="145" type="curve" smooth="yes"/>
      <point x="387" y="349" type="line" smooth="yes"/>
      <point x="401" y="391"/>
      <point x="394" y="407"/>
      <point x="342" y="413" type="curve"/>
      <point x="337" y="427"/>
      <point x="336" y="445"/>
      <point x="337" y="459" type="curve"/>
      <point x="546" y="459" type="line"/>
      <point x="547" y="443"/>
      <point x="543" y="427"/>
      <point x="537" y="413" type="curve"/>
      <point x="511" y="412"/>
      <point x="489" y="408"/>
      <point x="465" y="395" type="curve"/>
      <point x="483" y="415" type="line"/>
      <point x="314" y="-6" type="line"/>
      <point x="210" y="-6" type="line"/>
      <point x="66" y="355" type="line" smooth="yes"/>
      <point x="53" y="392"/>
      <point x="40" y="406"/>
      <point x="-5" y="413" type="curve"/>
      <point x="-8" y="427"/>
      <point x="-10" y="445"/>
      <point x="-8" y="459" type="curve"/>
      <point x="241" y="459" type="line"/>
      <point x="245" y="446"/>
      <point x="245" y="428"/>
    </contour>
  </outline>
</glyph>
<glyph name="w" format="1">
  <advance width="761"/>
  <unicode hex="0077"/>
  <outline>
    <contour>
      <point x="250" y="414" type="curve"/>
      <point x="200" y="409"/>
      <point x="194" y="394"/>
      <point x="203" y="363" type="curve" smooth="yes"/>
      <point x="262" y="187" type="line" smooth="yes"/>
      <point x="268" y="171"/>
      <point x="271" y="157"/>
      <point x="273" y="143" type="curve"/>
      <point x="275" y="143" type="line"/>
      <point x="392" y="439" type="line"/>
      <point x="442" y="439" type="line"/>
      <point x="534" y="187" type="line" smooth="yes"/>
      <point x="540" y="171"/>
      <point x="543" y="158"/>
      <point x="545" y="144" type="curve"/>
      <point x="547" y="144" type="line"/>
      <point x="625" y="363" type="line" smooth="yes"/>
      <point x="638" y="400"/>
      <point x="626" y="412"/>
      <point x="578" y="414" type="curve"/>
      <point x="577" y="427"/>
      <point x="578" y="447"/>
      <point x="581" y="459" type="curve"/>
      <point x="750" y="459" type="line"/>
      <point x="753" y="447"/>
      <point x="750" y="428"/>
      <point x="745" y="414" type="curve"/>
      <point x="726" y="411"/>
      <point x="706" y="407"/>
      <point x="683" y="398" type="curve"/>
      <point x="718" y="435" type="line"/>
      <point x="541" y="-6" type="line"/>
      <point x="491" y="-6" type="line"/>
      <point x="368" y="310" type="line"/>
      <point x="404" y="326" type="line"/>
      <point x="260" y="-6" type="line"/>
      <point x="210" y="-6" type="line"/>
      <point x="46" y="441" type="line"/>
      <point x="74" y="397" type="line"/>
      <point x="55" y="408"/>
      <point x="38" y="413"/>
      <point x="19" y="414" type="curve"/>
      <point x="16" y="426"/>
      <point x="14" y="445"/>
      <point x="17" y="459" type="curve"/>
      <point x="246" y="459" type="line"/>
      <point x="249" y="446"/>
      <point x="250" y="426"/>
    </contour>
  </outline>
</glyph>
<glyph name="x" format="1">
  <advance width="521"/>
  <unicode hex="0078"/>
  <outline>
    <contour>
      <point x="250" y="413" type="curve"/>
      <point x="227" y="413"/>
      <point x="201" y="412"/>
      <point x="178" y="401" type="curve"/>
      <point x="176" y="430" type="line"/>
      <point x="432" y="107" type="line" smooth="yes"/>
      <point x="464" y="67"/>
      <point x="478" y="50"/>
      <point x="523" y="47" type="curve"/>
      <point x="526" y="32"/>
      <point x="528" y="15"/>
      <point x="526" y="0" type="curve"/>
      <point x="276" y="0" type="line"/>
      <point x="272" y="14"/>
      <point x="272" y="32"/>
      <point x="272" y="47" type="curve"/>
      <point x="296" y="47"/>
      <point x="322" y="48"/>
      <point x="343" y="58" type="curve"/>
      <point x="348" y="28" type="line"/>
      <point x="82" y="362" type="line" smooth="yes"/>
      <point x="62" y="389"/>
      <point x="41" y="411"/>
      <point x="-3" y="413" type="curve"/>
      <point x="-7" y="427"/>
      <point x="-8" y="445"/>
      <point x="-7" y="459" type="curve"/>
      <point x="246" y="459" type="line"/>
      <point x="250" y="446"/>
      <point x="250" y="428"/>
    </contour>
    <contour>
      <point x="515" y="413" type="curve"/>
      <point x="482" y="412"/>
      <point x="460" y="397"/>
      <point x="433" y="366" type="curve" smooth="yes"/>
      <point x="322" y="238" type="line"/>
      <point x="288" y="277" type="line"/>
      <point x="409" y="424" type="line"/>
      <point x="407" y="402" type="line"/>
      <point x="387" y="409"/>
      <point x="366" y="412"/>
      <point x="343" y="413" type="curve"/>
      <point x="341" y="428"/>
      <point x="340" y="445"/>
      <point x="342" y="459" type="curve"/>
      <point x="523" y="459" type="line"/>
      <point x="524" y="442"/>
      <point x="522" y="427"/>
    </contour>
    <contour>
      <point x="235" y="191" type="line"/>
      <point x="108" y="36" type="line"/>
      <point x="111" y="57" type="line"/>
      <point x="133" y="50"/>
      <point x="153" y="48"/>
      <point x="174" y="47" type="curve"/>
      <point x="177" y="32"/>
      <point x="177" y="15"/>
      <point x="176" y="0" type="curve"/>
      <point x="-7" y="0" type="line"/>
      <point x="-6" y="17"/>
      <point x="-4" y="33"/>
      <point x="2" y="47" type="curve"/>
      <point x="35" y="48"/>
      <point x="58" y="62"/>
      <point x="85" y="93" type="curve" smooth="yes"/>
      <point x="202" y="232" type="line"/>
    </contour>
  </outline>
</glyph>
<glyph name="y" format="1">
  <advance width="528"/>
  <unicode hex="0079"/>
  <outline>
    <contour>
      <point x="297" y="459" type="move" name="top"/>
    </contour>
    <contour>
      <point x="248" y="413" type="curve"/>
      <point x="222" y="413"/>
      <point x="187" y="411"/>
      <point x="166" y="395" type="curve"/>
      <point x="176" y="439" type="line"/>
      <point x="304" y="33" type="line"/>
      <point x="281" y="39" type="line"/>
      <point x="284" y="71"/>
      <point x="293" y="108"/>
      <point x="306" y="142" type="curve" smooth="yes"/>
      <point x="389" y="349" type="line" smooth="yes"/>
      <point x="406" y="391"/>
      <point x="394" y="407"/>
      <point x="344" y="413" type="curve"/>
      <point x="341" y="427"/>
      <point x="339" y="445"/>
      <point x="341" y="459" type="curve"/>
      <point x="536" y="459" type="line"/>
      <point x="537" y="443"/>
      <point x="533" y="427"/>
      <point x="527" y="413" type="curve"/>
      <point x="501" y="411"/>
      <point x="472" y="403"/>
      <point x="447" y="388" type="curve"/>
      <point x="498" y="438" type="line"/>
      <point x="259" y="-97" type="line" smooth="yes"/>
      <point x="222" y="-181"/>
      <point x="180" y="-234"/>
      <point x="115" y="-234" type="curve" smooth="yes"/>
      <point x="96" y="-234" type="line"/>
      <point x="85" y="-200"/>
      <point x="81" y="-159"/>
      <point x="85" y="-120" type="curve"/>
      <point x="113" y="-120" type="line" smooth="yes"/>
      <point x="174" y="-120"/>
      <point x="199" y="-103"/>
      <point x="227" y="-44" type="curve" smooth="yes"/>
      <point x="250" y="6" type="line"/>
      <point x="242" y="-63" type="line"/>
      <point x="69" y="355" type="line" smooth="yes"/>
      <point x="55" y="391"/>
      <point x="43" y="406"/>
      <point x="-2" y="413" type="curve"/>
      <point x="-5" y="427"/>
      <point x="-7" y="445"/>
      <point x="-5" y="459" type="curve"/>
      <point x="244" y="459" type="line"/>
      <point x="248" y="446"/>
      <point x="248" y="428"/>
    </contour>
  </outline>
</glyph>
<glyph name="z" format="1">
  <advance width="469"/>
  <unicode hex="007A"/>
  <outline>
    <contour>
      <point x="250" y="459" type="move" name="top"/>
    </contour>
    <contour>
      <point x="166" y="39" type="line"/>
      <point x="142" y="52" type="line"/>
      <point x="296" y="52" type="line" smooth="yes"/>
      <point x="351" y="52"/>
      <point x="373" y="73"/>
      <point x="387" y="145" type="curve"/>
      <point x="396" y="145"/>
      <point x="408" y="142"/>
      <point x="418" y="138" type="curve"/>
      <point x="419" y="92"/>
      <point x="416" y="50"/>
      <point x="409" y="0" type="curve"/>
      <point x="41" y="0" type="line"/>
      <point x="36" y="18"/>
      <point x="34" y="47"/>
      <point x="39" y="69" type="curve"/>
      <point x="294" y="421" type="line"/>
      <point x="316" y="407" type="line"/>
      <point x="170" y="407" type="line" smooth="yes"/>
      <point x="116" y="407"/>
      <point x="93" y="386"/>
      <point x="80" y="315" type="curve"/>
      <point x="70" y="315"/>
      <point x="58" y="316"/>
      <point x="48" y="322" type="curve"/>
      <point x="48" y="367"/>
      <point x="51" y="410"/>
      <point x="58" y="459" type="curve"/>
      <point x="416" y="459" type="line"/>
      <point x="420" y="442"/>
      <point x="423" y="412"/>
      <point x="417" y="389" type="curve" smooth="yes"/>
    </contour>
  </outline>
</glyph>
<glyph name="braceleft" format="1">
  <advance width="449"/>
  <unicode hex="007B"/>
  <outline>
    <contour>
      <point x="85" y="292" type="line"/>
      <point x="152" y="286"/>
      <point x="176" y="251"/>
      <point x="176" y="197" type="curve" smooth="yes"/>
      <point x="176" y="136"/>
      <point x="145" y="85"/>
      <point x="145" y="17" type="curve" smooth="yes"/>
      <point x="145" y="-76"/>
      <point x="223" y="-154"/>
      <point x="412" y="-145" type="curve"/>
      <point x="412" y="-104" type="line"/>
      <point x="311" y="-99"/>
      <point x="265" y="-52"/>
      <point x="265" y="15" type="curve" smooth="yes"/>
      <point x="265" y="81"/>
      <point x="295" y="132"/>
      <point x="295" y="199" type="curve" smooth="yes"/>
      <point x="295" y="269"/>
      <point x="264" y="308"/>
      <point x="186" y="326" type="curve"/>
      <point x="264" y="343"/>
      <point x="295" y="382"/>
      <point x="295" y="453" type="curve" smooth="yes"/>
      <point x="295" y="519"/>
      <point x="265" y="571"/>
      <point x="265" y="636" type="curve" smooth="yes"/>
      <point x="265" y="704"/>
      <point x="311" y="750"/>
      <point x="412" y="755" type="curve"/>
      <point x="412" y="796" type="line"/>
      <point x="223" y="805"/>
      <point x="145" y="727"/>
      <point x="145" y="634" type="curve" smooth="yes"/>
      <point x="145" y="566"/>
      <point x="176" y="515"/>
      <point x="176" y="454" type="curve" smooth="yes"/>
      <point x="176" y="400"/>
      <point x="152" y="366"/>
      <point x="85" y="359" type="curve"/>
    </contour>
  </outline>
</glyph>
<glyph name="bar" format="1">
  <advance width="311"/>
  <unicode hex="007C"/>
  <outline>
    <contour>
      <point x="103" y="737" type="line"/>
      <point x="103" y="-76" type="line"/>
      <point x="202" y="-76" type="line"/>
      <point x="202" y="737" type="line"/>
    </contour>
  </outline>
</glyph>
<glyph name="braceright" format="1">
  <advance width="449"/>
  <unicode hex="007D"/>
  <outline>
    <contour>
      <point x="274" y="454" type="curve" smooth="yes"/>
      <point x="274" y="515"/>
      <point x="305" y="566"/>
      <point x="305" y="634" type="curve" smooth="yes"/>
      <point x="305" y="727"/>
      <point x="226" y="805"/>
      <point x="37" y="796" type="curve"/>
      <point x="37" y="755" type="line"/>
      <point x="138" y="750"/>
      <point x="185" y="704"/>
      <point x="185" y="636" type="curve" smooth="yes"/>
      <point x="185" y="571"/>
      <point x="155" y="519"/>
      <point x="155" y="453" type="curve" smooth="yes"/>
      <point x="155" y="382"/>
      <point x="186" y="343"/>
      <point x="264" y="326" type="curve"/>
      <point x="186" y="308"/>
      <point x="155" y="269"/>
      <point x="155" y="199" type="curve" smooth="yes"/>
      <point x="155" y="132"/>
      <point x="185" y="81"/>
      <point x="185" y="15" type="curve" smooth="yes"/>
      <point x="185" y="-52"/>
      <point x="138" y="-99"/>
      <point x="37" y="-104" type="curve"/>
      <point x="37" y="-145" type="line"/>
      <point x="226" y="-154"/>
      <point x="305" y="-76"/>
      <point x="305" y="17" type="curve" smooth="yes"/>
      <point x="305" y="85"/>
      <point x="274" y="136"/>
      <point x="274" y="197" type="curve" smooth="yes"/>
      <point x="274" y="251"/>
      <point x="298" y="286"/>
      <point x="365" y="292" type="curve"/>
      <point x="365" y="359" type="line"/>
      <point x="298" y="366"/>
      <point x="274" y="400"/>
    </contour>
  </outline>
</glyph>
<glyph name="asciitilde" format="1">
  <advance width="669"/>
  <unicode hex="007E"/>
  <outline>
    <contour>
      <point x="479" y="328" type="curve" smooth="yes"/>
      <point x="531" y="328"/>
      <point x="563" y="356"/>
      <point x="574" y="409" type="curve"/>
      <point x="619" y="409" type="line"/>
      <point x="609" y="284"/>
      <point x="542" y="223"/>
      <point x="454" y="223" type="curve" smooth="yes"/>
      <point x="348" y="223"/>
      <point x="273" y="308"/>
      <point x="189" y="308" type="curve" smooth="yes"/>
      <point x="137" y="308"/>
      <point x="106" y="280"/>
      <point x="95" y="228" type="curve"/>
      <point x="50" y="228" type="line"/>
      <point x="60" y="353"/>
      <point x="126" y="414"/>
      <point x="215" y="414" type="curve" smooth="yes"/>
      <point x="316" y="414"/>
      <point x="395" y="328"/>
    </contour>
  </outline>
</glyph>
<glyph name="cent" format="1">
  <advance width="441"/>
  <unicode hex="00A2"/>
  <outline>
    <contour>
      <point x="234" y="547" type="line"/>
      <point x="293" y="547" type="line"/>
      <point x="293" y="443" type="line"/>
      <point x="234" y="443" type="line"/>
    </contour>
    <contour>
      <point x="233" y="28" type="line"/>
      <point x="292" y="28" type="line"/>
      <point x="292" y="-88" type="line"/>
      <point x="233" y="-88" type="line"/>
    </contour>
    <contour>
      <point x="414" y="439" type="curve"/>
      <point x="413" y="398"/>
      <point x="406" y="343"/>
      <point x="400" y="308" type="curve"/>
      <point x="391" y="309"/>
      <point x="379" y="310"/>
      <point x="369" y="313" type="curve"/>
      <point x="365" y="374"/>
      <point x="327" y="410"/>
      <point x="277" y="410" type="curve" smooth="yes"/>
      <point x="212" y="410"/>
      <point x="162" y="358"/>
      <point x="162" y="231" type="curve" smooth="yes"/>
      <point x="162" y="112"/>
      <point x="215" y="64"/>
      <point x="279" y="64" type="curve" smooth="yes"/>
      <point x="323" y="64"/>
      <point x="370" y="77"/>
      <point x="413" y="97" type="curve"/>
      <point x="432" y="69" type="line"/>
      <point x="383" y="20"/>
      <point x="318" y="-13"/>
      <point x="245" y="-13" type="curve" smooth="yes"/>
      <point x="141" y="-13"/>
      <point x="31" y="66"/>
      <point x="31" y="219" type="curve" smooth="yes"/>
      <point x="31" y="375"/>
      <point x="144" y="471"/>
      <point x="281" y="471" type="curve" smooth="yes"/>
      <point x="329" y="471"/>
      <point x="374" y="460"/>
    </contour>
  </outline>
</glyph>
<glyph name="sterling" format="1">
  <advance width="546"/>
  <unicode hex="00A3"/>
  <outline>
    <contour>
      <point x="469" y="595" type="curve"/>
      <point x="471" y="562"/>
      <point x="468" y="502"/>
      <point x="462" y="468" type="curve"/>
      <point x="422" y="468" type="line"/>
      <point x="414" y="520"/>
      <point x="382" y="561"/>
      <point x="322" y="561" type="curve" smooth="yes"/>
      <point x="263" y="561"/>
      <point x="223" y="516"/>
      <point x="223" y="435" type="curve" smooth="yes"/>
      <point x="223" y="381"/>
      <point x="248" y="314"/>
      <point x="248" y="254" type="curve" smooth="yes"/>
      <point x="248" y="188"/>
      <point x="219" y="123"/>
      <point x="178" y="82" type="curve"/>
      <point x="216" y="101"/>
      <point x="252" y="108"/>
      <point x="289" y="108" type="curve" smooth="yes"/>
      <point x="338" y="108"/>
      <point x="379" y="83"/>
      <point x="419" y="83" type="curve" smooth="yes"/>
      <point x="456" y="83"/>
      <point x="481" y="110"/>
      <point x="481" y="159" type="curve"/>
      <point x="491" y="160"/>
      <point x="505" y="158"/>
      <point x="513" y="153" type="curve"/>
      <point x="513" y="152"/>
      <point x="516" y="134"/>
      <point x="516" y="113" type="curve" smooth="yes"/>
      <point x="516" y="38"/>
      <point x="480" y="-13"/>
      <point x="392" y="-13" type="curve" smooth="yes"/>
      <point x="303" y="-13"/>
      <point x="279" y="10"/>
      <point x="215" y="10" type="curve" smooth="yes"/>
      <point x="182" y="10"/>
      <point x="114" y="4"/>
      <point x="71" y="-10" type="curve"/>
      <point x="61" y="-3"/>
      <point x="54" y="6"/>
      <point x="51" y="19" type="curve"/>
      <point x="112" y="69"/>
      <point x="139" y="130"/>
      <point x="139" y="208" type="curve" smooth="yes"/>
      <point x="139" y="286"/>
      <point x="105" y="351"/>
      <point x="105" y="434" type="curve" smooth="yes"/>
      <point x="105" y="561"/>
      <point x="201" y="648"/>
      <point x="324" y="648" type="curve" smooth="yes"/>
      <point x="386" y="648"/>
      <point x="438" y="624"/>
    </contour>
    <contour>
      <point x="425" y="350" type="line"/>
      <point x="406" y="300" type="line"/>
      <point x="50" y="300" type="line"/>
      <point x="69" y="350" type="line"/>
    </contour>
  </outline>
</glyph>
<glyph name="currency" format="1">
  <advance width="506"/>
  <unicode hex="00A4"/>
  <outline>
    <contour>
      <point x="252" y="175" type="curve" smooth="yes"/>
      <point x="341" y="175"/>
      <point x="420" y="237"/>
      <point x="420" y="336" type="curve" smooth="yes"/>
      <point x="420" y="435"/>
      <point x="341" y="498"/>
      <point x="252" y="498" type="curve" smooth="yes"/>
      <point x="164" y="498"/>
      <point x="86" y="435"/>
      <point x="86" y="336" type="curve" smooth="yes"/>
      <point x="86" y="237"/>
      <point x="164" y="175"/>
    </contour>
    <contour>
      <point x="252" y="447" type="curve" smooth="yes"/>
      <point x="287" y="447"/>
      <point x="317" y="417"/>
      <point x="317" y="337" type="curve" smooth="yes"/>
      <point x="317" y="257"/>
      <point x="287" y="226"/>
      <point x="252" y="226" type="curve" smooth="yes"/>
      <point x="217" y="226"/>
      <point x="188" y="257"/>
      <point x="188" y="337" type="curve" smooth="yes"/>
      <point x="188" y="417"/>
      <point x="217" y="447"/>
    </contour>
    <contour>
      <point x="168" y="428" type="line"/>
      <point x="67" y="509" type="line"/>
      <point x="27" y="455" type="line"/>
      <point x="126" y="384" type="line"/>
    </contour>
    <contour>
      <point x="478" y="455" type="line"/>
      <point x="438" y="509" type="line"/>
      <point x="338" y="428" type="line"/>
      <point x="379" y="384" type="line"/>
    </contour>
    <contour>
      <point x="27" y="217" type="line"/>
      <point x="67" y="164" type="line"/>
      <point x="168" y="245" type="line"/>
      <point x="126" y="289" type="line"/>
    </contour>
    <contour>
      <point x="338" y="245" type="line"/>
      <point x="438" y="164" type="line"/>
      <point x="478" y="217" type="line"/>
      <point x="379" y="289" type="line"/>
    </contour>
  </outline>
</glyph>
<glyph name="yen" format="1">
  <advance width="633"/>
  <unicode hex="00A5"/>
  <outline>
    <contour>
      <point x="284" y="590" type="curve"/>
      <point x="221" y="585"/>
      <point x="211" y="563"/>
      <point x="231" y="526" type="curve" smooth="yes"/>
      <point x="347" y="315" type="line"/>
      <point x="350" y="315" type="line"/>
      <point x="357" y="339"/>
      <point x="370" y="366"/>
      <point x="383" y="388" type="curve" smooth="yes"/>
      <point x="518" y="612" type="line"/>
      <point x="526" y="572" type="line"/>
      <point x="493" y="583"/>
      <point x="479" y="589"/>
      <point x="444" y="590" type="curve"/>
      <point x="444" y="607"/>
      <point x="446" y="621"/>
      <point x="449" y="635" type="curve"/>
      <point x="631" y="635" type="line"/>
      <point x="630" y="620"/>
      <point x="629" y="607"/>
      <point x="624" y="590" type="curve"/>
      <point x="580" y="584"/>
      <point x="567" y="567"/>
      <point x="547" y="535" type="curve" smooth="yes"/>
      <point x="385" y="269" type="line"/>
      <point x="385" y="56" type="line"/>
      <point x="408" y="48"/>
      <point x="434" y="47"/>
      <point x="460" y="46" type="curve"/>
      <point x="460" y="32"/>
      <point x="459" y="15"/>
      <point x="456" y="0" type="curve"/>
      <point x="176" y="0" type="line"/>
      <point x="175" y="16"/>
      <point x="176" y="31"/>
      <point x="179" y="46" type="curve"/>
      <point x="216" y="52"/>
      <point x="247" y="60"/>
      <point x="247" y="102" type="curve" smooth="yes"/>
      <point x="247" y="265" type="line"/>
      <point x="40" y="616" type="line"/>
      <point x="94" y="568" type="line"/>
      <point x="62" y="584"/>
      <point x="35" y="590"/>
      <point x="6" y="590" type="curve"/>
      <point x="4" y="607"/>
      <point x="2" y="621"/>
      <point x="2" y="635" type="curve"/>
      <point x="277" y="635" type="line"/>
      <point x="281" y="620"/>
      <point x="284" y="607"/>
    </contour>
    <contour>
      <point x="515" y="308" type="line"/>
      <point x="506" y="261" type="line"/>
      <point x="112" y="261" type="line"/>
      <point x="121" y="308" type="line"/>
    </contour>
    <contour>
      <point x="513" y="201" type="line"/>
      <point x="505" y="154" type="line"/>
      <point x="112" y="154" type="line"/>
      <point x="121" y="201" type="line"/>
    </contour>
  </outline>
</glyph>
<glyph name="brokenbar" format="1">
  <advance width="305"/>
  <unicode hex="00A6"/>
  <outline>
    <contour>
      <point x="103" y="250" type="line"/>
      <point x="103" y="-76" type="line"/>
      <point x="202" y="-76" type="line"/>
      <point x="202" y="250" type="line"/>
    </contour>
    <contour>
      <point x="202" y="411" type="line"/>
      <point x="202" y="737" type="line"/>
      <point x="103" y="737" type="line"/>
      <point x="103" y="411" type="line"/>
    </contour>
  </outline>
</glyph>
<glyph name="section" format="1">
  <advance width="584"/>
  <unicode hex="00A7"/>
  <outline>
    <contour>
      <point x="274" y="352" type="line"/>
      <point x="206" y="340"/>
      <point x="162" y="303"/>
      <point x="162" y="239" type="curve" smooth="yes"/>
      <point x="162" y="186"/>
      <point x="206" y="159"/>
      <point x="278" y="119" type="curve" smooth="yes"/>
      <point x="369" y="70"/>
      <point x="449" y="32"/>
      <point x="449" y="-56" type="curve" smooth="yes"/>
      <point x="449" y="-156"/>
      <point x="370" y="-213"/>
      <point x="266" y="-213" type="curve" smooth="yes"/>
      <point x="220" y="-213"/>
      <point x="179" y="-205"/>
      <point x="135" y="-188" type="curve"/>
      <point x="133" y="-151"/>
      <point x="135" y="-106"/>
      <point x="142" y="-71" type="curve"/>
      <point x="159" y="-71"/>
      <point x="167" y="-71"/>
      <point x="186" y="-75" type="curve"/>
      <point x="184" y="-128"/>
      <point x="224" y="-156"/>
      <point x="266" y="-156" type="curve" smooth="yes"/>
      <point x="309" y="-157"/>
      <point x="336" y="-132"/>
      <point x="336" y="-92" type="curve" smooth="yes"/>
      <point x="336" y="-35"/>
      <point x="265" y="-9"/>
      <point x="188" y="35" type="curve" smooth="yes"/>
      <point x="118" y="75"/>
      <point x="54" y="117"/>
      <point x="54" y="211" type="curve" smooth="yes"/>
      <point x="54" y="306"/>
      <point x="137" y="359"/>
      <point x="223" y="379" type="curve"/>
    </contour>
    <contour>
      <point x="442" y="623" type="curve"/>
      <point x="444" y="586"/>
      <point x="442" y="541"/>
      <point x="435" y="506" type="curve"/>
      <point x="418" y="506"/>
      <point x="410" y="507"/>
      <point x="391" y="510" type="curve"/>
      <point x="393" y="563"/>
      <point x="355" y="591"/>
      <point x="315" y="592" type="curve" smooth="yes"/>
      <point x="272" y="592"/>
      <point x="248" y="567"/>
      <point x="248" y="527" type="curve" smooth="yes"/>
      <point x="248" y="470"/>
      <point x="321" y="444"/>
      <point x="398" y="399" type="curve" smooth="yes"/>
      <point x="467" y="360"/>
      <point x="530" y="316"/>
      <point x="530" y="225" type="curve" smooth="yes"/>
      <point x="530" y="129"/>
      <point x="447" y="76"/>
      <point x="361" y="56" type="curve"/>
      <point x="309" y="84" type="line"/>
      <point x="377" y="95"/>
      <point x="422" y="132"/>
      <point x="422" y="196" type="curve" smooth="yes"/>
      <point x="422" y="251"/>
      <point x="375" y="278"/>
      <point x="301" y="319" type="curve" smooth="yes"/>
      <point x="211" y="367"/>
      <point x="135" y="405"/>
      <point x="135" y="491" type="curve" smooth="yes"/>
      <point x="135" y="584"/>
      <point x="215" y="648"/>
      <point x="316" y="648" type="curve" smooth="yes"/>
      <point x="362" y="648"/>
      <point x="399" y="640"/>
    </contour>
  </outline>
</glyph>
<glyph name="dieresis" format="1">
  <advance width="293"/>
  <unicode hex="00A8"/>
  <outline>
    <contour>
      <point x="146" y="459" type="move" name="_top"/>
    </contour>
    <contour>
      <point x="122" y="573" type="curve" smooth="yes"/>
      <point x="122" y="542"/>
      <point x="96" y="515"/>
      <point x="65" y="515" type="curve" smooth="yes"/>
      <point x="36" y="515"/>
      <point x="10" y="542"/>
      <point x="10" y="573" type="curve" smooth="yes"/>
      <point x="10" y="605"/>
      <point x="36" y="632"/>
      <point x="65" y="632" type="curve" smooth="yes"/>
      <point x="96" y="632"/>
      <point x="122" y="605"/>
    </contour>
    <contour>
      <point x="283" y="573" type="curve" smooth="yes"/>
      <point x="283" y="542"/>
      <point x="258" y="515"/>
      <point x="227" y="515" type="curve" smooth="yes"/>
      <point x="197" y="515"/>
      <point x="172" y="542"/>
      <point x="172" y="573" type="curve" smooth="yes"/>
      <point x="172" y="605"/>
      <point x="197" y="632"/>
      <point x="227" y="632" type="curve" smooth="yes"/>
      <point x="258" y="632"/>
      <point x="283" y="605"/>
    </contour>
  </outline>
</glyph>
<glyph name="copyright" format="1">
  <advance width="801"/>
  <unicode hex="00A9"/>
  <outline>
    <contour>
      <point x="377" y="598" type="move" name="top"/>
    </contour>
    <contour>
      <point x="333" y="0" type="move" name="bottom"/>
    </contour>
    <contour>
      <point x="114" y="321" type="curve" smooth="yes"/>
      <point x="114" y="127"/>
      <point x="242" y="25"/>
      <point x="401" y="25" type="curve" smooth="yes"/>
      <point x="560" y="25"/>
      <point x="688" y="127"/>
      <point x="688" y="321" type="curve" smooth="yes"/>
      <point x="688" y="514"/>
      <point x="560" y="616"/>
      <point x="401" y="616" type="curve" smooth="yes"/>
      <point x="242" y="616"/>
      <point x="114" y="514"/>
    </contour>
    <contour>
      <point x="744" y="321" type="curve" smooth="yes"/>
      <point x="744" y="107"/>
      <point x="594" y="-23"/>
      <point x="401" y="-23" type="curve" smooth="yes"/>
      <point x="208" y="-23"/>
      <point x="57" y="107"/>
      <point x="57" y="321" type="curve" smooth="yes"/>
      <point x="57" y="534"/>
      <point x="208" y="664"/>
      <point x="401" y="664" type="curve" smooth="yes"/>
      <point x="594" y="664"/>
      <point x="744" y="534"/>
    </contour>
    <contour>
      <point x="539" y="507" type="curve"/>
      <point x="536" y="470"/>
      <point x="528" y="429"/>
      <point x="516" y="394" type="curve"/>
      <point x="505" y="392"/>
      <point x="493" y="392"/>
      <point x="481" y="394" type="curve"/>
      <point x="480" y="444"/>
      <point x="466" y="471"/>
      <point x="419" y="471" type="curve" smooth="yes"/>
      <point x="361" y="471"/>
      <point x="315" y="410"/>
      <point x="315" y="325" type="curve" smooth="yes"/>
      <point x="315" y="227"/>
      <point x="364" y="183"/>
      <point x="430" y="183" type="curve" smooth="yes"/>
      <point x="464" y="183"/>
      <point x="490" y="193"/>
      <point x="520" y="213" type="curve"/>
      <point x="551" y="182" type="line"/>
      <point x="517" y="143"/>
      <point x="468" y="113"/>
      <point x="404" y="113" type="curve" smooth="yes"/>
      <point x="304" y="113"/>
      <point x="209" y="186"/>
      <point x="209" y="318" type="curve" smooth="yes"/>
      <point x="209" y="449"/>
      <point x="305" y="532"/>
      <point x="425" y="532" type="curve" smooth="yes"/>
      <point x="468" y="532"/>
      <point x="512" y="520"/>
    </contour>
  </outline>
</glyph>
<glyph name="ordfeminine" format="1">
  <advance width="348"/>
  <unicode hex="00AA"/>
  <outline>
    <contour>
      <point x="213" y="465" type="line"/>
      <point x="157" y="471"/>
      <point x="114" y="447"/>
      <point x="114" y="404" type="curve" smooth="yes"/>
      <point x="114" y="378"/>
      <point x="128" y="361"/>
      <point x="152" y="361" type="curve" smooth="yes"/>
      <point x="175" y="361"/>
      <point x="195" y="369"/>
      <point x="214" y="396" type="curve"/>
      <point x="216" y="359" type="line"/>
      <point x="191" y="326"/>
      <point x="162" y="306"/>
      <point x="114" y="306" type="curve" smooth="yes"/>
      <point x="61" y="306"/>
      <point x="22" y="339"/>
      <point x="22" y="393" type="curve" smooth="yes"/>
      <point x="22" y="476"/>
      <point x="119" y="509"/>
      <point x="212" y="499" type="curve"/>
    </contour>
    <contour>
      <point x="289" y="535" type="curve" smooth="yes"/>
      <point x="289" y="395" type="line" smooth="yes"/>
      <point x="289" y="368"/>
      <point x="298" y="359"/>
      <point x="310" y="359" type="curve" smooth="yes"/>
      <point x="319" y="359"/>
      <point x="326" y="361"/>
      <point x="336" y="364" type="curve"/>
      <point x="344" y="346" type="line"/>
      <point x="326" y="324"/>
      <point x="306" y="306"/>
      <point x="274" y="306" type="curve" smooth="yes"/>
      <point x="238" y="306"/>
      <point x="203" y="325"/>
      <point x="203" y="363" type="curve"/>
      <point x="203" y="531" type="line" smooth="yes"/>
      <point x="203" y="567"/>
      <point x="185" y="583"/>
      <point x="146" y="583" type="curve" smooth="yes"/>
      <point x="116" y="583"/>
      <point x="90" y="577"/>
      <point x="62" y="566" type="curve"/>
      <point x="46" y="592" type="line"/>
      <point x="84" y="628"/>
      <point x="127" y="645"/>
      <point x="180" y="645" type="curve" smooth="yes"/>
      <point x="253" y="645"/>
      <point x="289" y="604"/>
    </contour>
  </outline>
</glyph>
<glyph name="guillemotleft" format="1">
  <advance width="673"/>
  <unicode hex="00AB"/>
  <outline>
    <contour>
      <point x="118" y="314" type="line"/>
      <point x="293" y="114" type="line"/>
      <point x="340" y="139" type="line"/>
      <point x="221" y="314" type="line"/>
      <point x="340" y="488" type="line"/>
      <point x="293" y="512" type="line"/>
    </contour>
    <contour>
      <point x="330" y="314" type="line"/>
      <point x="505" y="114" type="line"/>
      <point x="552" y="139" type="line"/>
      <point x="433" y="314" type="line"/>
      <point x="552" y="488" type="line"/>
      <point x="505" y="512" type="line"/>
    </contour>
  </outline>
</glyph>
<glyph name="logicalnot" format="1">
  <advance width="665"/>
  <unicode hex="00AC"/>
  <outline>
    <contour>
      <point x="578" y="211" type="line"/>
      <point x="514" y="211" type="line"/>
      <point x="514" y="336" type="line"/>
      <point x="77" y="336" type="line"/>
      <point x="77" y="429" type="line"/>
      <point x="578" y="429" type="line"/>
    </contour>
  </outline>
</glyph>
<glyph name="registered" format="1">
  <advance width="798"/>
  <unicode hex="00AE"/>
  <outline>
    <contour>
      <point x="367" y="494" type="move" name="top"/>
    </contour>
    <contour>
      <point x="368" y="135" type="move" name="bottom"/>
    </contour>
    <contour>
      <point x="116" y="321" type="curve" smooth="yes"/>
      <point x="116" y="127"/>
      <point x="243" y="25"/>
      <point x="400" y="25" type="curve" smooth="yes"/>
      <point x="556" y="25"/>
      <point x="682" y="127"/>
      <point x="682" y="321" type="curve" smooth="yes"/>
      <point x="682" y="514"/>
      <point x="556" y="616"/>
      <point x="400" y="616" type="curve" smooth="yes"/>
      <point x="243" y="616"/>
      <point x="116" y="514"/>
    </contour>
    <contour>
      <point x="738" y="321" type="curve" smooth="yes"/>
      <point x="738" y="107"/>
      <point x="590" y="-23"/>
      <point x="400" y="-23" type="curve" smooth="yes"/>
      <point x="209" y="-23"/>
      <point x="60" y="107"/>
      <point x="60" y="321" type="curve" smooth="yes"/>
      <point x="60" y="534"/>
      <point x="209" y="664"/>
      <point x="400" y="664" type="curve" smooth="yes"/>
      <point x="590" y="664"/>
      <point x="738" y="534"/>
    </contour>
    <contour>
      <point x="540" y="409" type="curve" smooth="yes"/>
      <point x="540" y="347"/>
      <point x="489" y="299"/>
      <point x="404" y="299" type="curve" smooth="yes"/>
      <point x="334" y="299" type="line"/>
      <point x="331" y="307"/>
      <point x="331" y="329"/>
      <point x="331" y="338" type="curve"/>
      <point x="391" y="338" type="line" smooth="yes"/>
      <point x="438" y="338"/>
      <point x="463" y="361"/>
      <point x="463" y="409" type="curve" smooth="yes"/>
      <point x="463" y="459"/>
      <point x="443" y="481"/>
      <point x="391" y="481" type="curve" smooth="yes"/>
      <point x="339" y="481" type="line"/>
      <point x="352" y="498" type="line"/>
      <point x="352" y="165" type="line"/>
      <point x="348" y="185" type="line"/>
      <point x="365" y="177"/>
      <point x="387" y="173"/>
      <point x="405" y="172" type="curve"/>
      <point x="406" y="164"/>
      <point x="404" y="149"/>
      <point x="403" y="141" type="curve"/>
      <point x="241" y="141" type="line"/>
      <point x="240" y="149"/>
      <point x="241" y="164"/>
      <point x="244" y="172" type="curve"/>
      <point x="267" y="175"/>
      <point x="280" y="181"/>
      <point x="280" y="205" type="curve" smooth="yes"/>
      <point x="280" y="485" type="line"/>
      <point x="286" y="477" type="line"/>
      <point x="272" y="484"/>
      <point x="254" y="487"/>
      <point x="239" y="487" type="curve"/>
      <point x="239" y="495"/>
      <point x="240" y="514"/>
      <point x="242" y="521" type="curve"/>
      <point x="404" y="521" type="line" smooth="yes"/>
      <point x="489" y="521"/>
      <point x="540" y="473"/>
    </contour>
    <contour>
      <point x="409" y="278" type="line"/>
      <point x="403" y="291"/>
      <point x="397" y="299"/>
      <point x="380" y="299" type="curve"/>
      <point x="430" y="314" type="line"/>
      <point x="461" y="314"/>
      <point x="475" y="295"/>
      <point x="490" y="271" type="curve" smooth="yes"/>
      <point x="526" y="208" type="line" smooth="yes"/>
      <point x="542" y="178"/>
      <point x="555" y="172"/>
      <point x="578" y="172" type="curve"/>
      <point x="578" y="162"/>
      <point x="577" y="150"/>
      <point x="576" y="141" type="curve"/>
      <point x="481" y="141" type="line"/>
    </contour>
  </outline>
</glyph>
<glyph name="macron" format="1">
  <advance width="262"/>
  <unicode hex="00AF"/>
  <outline>
    <contour>
      <point x="132" y="459" type="move" name="_top"/>
    </contour>
    <contour>
      <point x="10" y="523" type="line"/>
      <point x="252" y="523" type="line"/>
      <point x="252" y="570" type="line"/>
      <point x="10" y="570" type="line"/>
    </contour>
  </outline>
</glyph>
<glyph name="degree" format="1">
  <advance width="328"/>
  <unicode hex="00B0"/>
  <outline>
    <contour>
      <point x="164" y="404" type="curve" smooth="yes"/>
      <point x="236" y="404"/>
      <point x="298" y="449"/>
      <point x="298" y="536" type="curve" smooth="yes"/>
      <point x="298" y="623"/>
      <point x="236" y="670"/>
      <point x="164" y="670" type="curve" smooth="yes"/>
      <point x="91" y="670"/>
      <point x="30" y="623"/>
      <point x="30" y="536" type="curve" smooth="yes"/>
      <point x="30" y="449"/>
      <point x="91" y="404"/>
    </contour>
    <contour>
      <point x="164" y="618" type="curve" smooth="yes"/>
      <point x="192" y="618"/>
      <point x="217" y="596"/>
      <point x="217" y="537" type="curve" smooth="yes"/>
      <point x="217" y="478"/>
      <point x="192" y="455"/>
      <point x="164" y="455" type="curve" smooth="yes"/>
      <point x="136" y="455"/>
      <point x="112" y="478"/>
      <point x="112" y="537" type="curve" smooth="yes"/>
      <point x="112" y="596"/>
      <point x="136" y="618"/>
    </contour>
  </outline>
</glyph>
<glyph name="plusminus" format="1">
  <advance width="580"/>
  <unicode hex="00B1"/>
  <outline>
    <contour>
      <point x="515" y="147" type="line"/>
      <point x="515" y="69" type="line"/>
      <point x="52" y="69" type="line"/>
      <point x="52" y="147" type="line"/>
    </contour>
    <contour>
      <point x="515" y="431" type="line"/>
      <point x="323" y="431" type="line"/>
      <point x="323" y="583" type="line"/>
      <point x="244" y="583" type="line"/>
      <point x="244" y="431" type="line"/>
      <point x="52" y="431" type="line"/>
      <point x="52" y="352" type="line"/>
      <point x="244" y="352" type="line"/>
      <point x="244" y="200" type="line"/>
      <point x="323" y="200" type="line"/>
      <point x="323" y="352" type="line"/>
      <point x="515" y="352" type="line"/>
    </contour>
  </outline>
</glyph>
<glyph name="twosuperior" format="1">
  <advance width="293"/>
  <unicode hex="00B2"/>
  <outline>
    <contour>
      <point x="54" y="603" type="curve"/>
      <point x="51" y="581"/>
      <point x="50" y="557"/>
      <point x="50" y="535" type="curve"/>
      <point x="56" y="534"/>
      <point x="70" y="534"/>
      <point x="75" y="534" type="curve"/>
      <point x="82" y="566"/>
      <point x="104" y="581"/>
      <point x="128" y="581" type="curve" smooth="yes"/>
      <point x="154" y="581"/>
      <point x="173" y="561"/>
      <point x="173" y="531" type="curve" smooth="yes"/>
      <point x="173" y="480"/>
      <point x="145" y="448"/>
      <point x="40" y="338" type="curve"/>
      <point x="40" y="330"/>
      <point x="42" y="309"/>
      <point x="45" y="293" type="curve"/>
      <point x="237" y="293" type="line"/>
      <point x="247" y="324"/>
      <point x="248" y="362"/>
      <point x="248" y="391" type="curve"/>
      <point x="244" y="394"/>
      <point x="234" y="394"/>
      <point x="229" y="394" type="curve"/>
      <point x="222" y="357"/>
      <point x="211" y="347"/>
      <point x="182" y="347" type="curve" smooth="yes"/>
      <point x="69" y="347" type="line"/>
      <point x="83" y="332" type="line"/>
      <point x="208" y="446"/>
      <point x="245" y="479"/>
      <point x="245" y="537" type="curve" smooth="yes"/>
      <point x="245" y="591"/>
      <point x="206" y="631"/>
      <point x="143" y="631" type="curve" smooth="yes"/>
      <point x="110" y="631"/>
      <point x="79" y="622"/>
    </contour>
  </outline>
</glyph>
<glyph name="threesuperior" format="1">
  <advance width="258"/>
  <unicode hex="00B3"/>
  <outline>
    <contour>
      <point x="226" y="552" type="curve" smooth="yes"/>
      <point x="226" y="516"/>
      <point x="194" y="480"/>
      <point x="145" y="462" type="curve"/>
      <point x="145" y="474" type="line"/>
      <point x="204" y="461"/>
      <point x="233" y="428"/>
      <point x="233" y="383" type="curve" smooth="yes"/>
      <point x="233" y="329"/>
      <point x="180" y="287"/>
      <point x="118" y="287" type="curve" smooth="yes"/>
      <point x="80" y="287"/>
      <point x="50" y="298"/>
      <point x="24" y="320" type="curve"/>
      <point x="28" y="333"/>
      <point x="36" y="348"/>
      <point x="44" y="354" type="curve"/>
      <point x="61" y="341"/>
      <point x="84" y="333"/>
      <point x="111" y="333" type="curve" smooth="yes"/>
      <point x="145" y="333"/>
      <point x="166" y="351"/>
      <point x="166" y="379" type="curve" smooth="yes"/>
      <point x="166" y="418"/>
      <point x="139" y="437"/>
      <point x="90" y="439" type="curve"/>
      <point x="90" y="475" type="line"/>
      <point x="132" y="479"/>
      <point x="154" y="501"/>
      <point x="154" y="534" type="curve" smooth="yes"/>
      <point x="154" y="564"/>
      <point x="137" y="583"/>
      <point x="115" y="583" type="curve" smooth="yes"/>
      <point x="90" y="583"/>
      <point x="71" y="567"/>
      <point x="63" y="536" type="curve"/>
      <point x="58" y="536"/>
      <point x="41" y="536"/>
      <point x="37" y="537" type="curve"/>
      <point x="37" y="560"/>
      <point x="37" y="582"/>
      <point x="39" y="605" type="curve"/>
      <point x="66" y="620"/>
      <point x="95" y="631"/>
      <point x="135" y="631" type="curve" smooth="yes"/>
      <point x="184" y="631"/>
      <point x="226" y="598"/>
    </contour>
  </outline>
</glyph>
<glyph name="acute" format="1">
  <advance width="210"/>
  <unicode hex="00B4"/>
  <outline>
    <contour>
      <point x="32" y="461" type="move" name="_top"/>
    </contour>
    <contour>
      <point x="201" y="654" type="curve"/>
      <point x="201" y="637" type="line"/>
      <point x="42" y="499" type="line"/>
      <point x="9" y="518" type="line"/>
      <point x="110" y="696" type="line"/>
      <point x="142" y="696"/>
      <point x="183" y="671"/>
    </contour>
  </outline>
</glyph>
<glyph name="paragraph" format="1">
  <advance width="527"/>
  <unicode hex="00B6"/>
  <outline>
    <contour>
      <point x="489" y="635" type="line"/>
      <point x="490" y="621"/>
      <point x="489" y="604"/>
      <point x="486" y="589" type="curve"/>
      <point x="437" y="583"/>
      <point x="420" y="563"/>
      <point x="420" y="520" type="curve" smooth="yes"/>
      <point x="420" y="22" type="line" smooth="yes"/>
      <point x="420" y="-106"/>
      <point x="339" y="-193"/>
      <point x="213" y="-236" type="curve"/>
      <point x="177" y="-200" type="line"/>
      <point x="236" y="-141"/>
      <point x="252" y="-79"/>
      <point x="252" y="22" type="curve" smooth="yes"/>
      <point x="252" y="224" type="line"/>
      <point x="221" y="224" type="line" smooth="yes"/>
      <point x="103" y="224"/>
      <point x="18" y="302"/>
      <point x="18" y="429" type="curve" smooth="yes"/>
      <point x="18" y="556"/>
      <point x="104" y="635"/>
      <point x="222" y="635" type="curve" smooth="yes"/>
    </contour>
    <contour>
      <point x="317" y="22" type="line"/>
      <point x="317" y="-61"/>
      <point x="299" y="-117"/>
      <point x="261" y="-166" type="curve"/>
      <point x="325" y="-118"/>
      <point x="354" y="-68"/>
      <point x="354" y="22" type="curve" smooth="yes"/>
      <point x="354" y="512" type="line" smooth="yes"/>
      <point x="354" y="545"/>
      <point x="365" y="569"/>
      <point x="381" y="583" type="curve"/>
      <point x="317" y="583" type="line"/>
    </contour>
  </outline>
</glyph>
<glyph name="cedilla" format="1">
  <advance width="285"/>
  <unicode hex="00B8"/>
  <outline>
    <contour>
      <point x="162" y="0" type="move" name="_bottom"/>
    </contour>
    <contour>
      <point x="203" y="18" type="line"/>
      <point x="184" y="-77" type="line"/>
      <point x="168" y="-64" type="line"/>
      <point x="182" y="-64" type="line" smooth="yes"/>
      <point x="251" y="-64"/>
      <point x="275" y="-97"/>
      <point x="275" y="-130" type="curve" smooth="yes"/>
      <point x="275" y="-185"/>
      <point x="216" y="-222"/>
      <point x="141" y="-222" type="curve" smooth="yes"/>
      <point x="85" y="-222"/>
      <point x="48" y="-208"/>
      <point x="10" y="-186" type="curve"/>
      <point x="30" y="-159" type="line"/>
      <point x="64" y="-177"/>
      <point x="93" y="-183"/>
      <point x="125" y="-183" type="curve" smooth="yes"/>
      <point x="169" y="-183"/>
      <point x="198" y="-167"/>
      <point x="198" y="-137" type="curve" smooth="yes"/>
      <point x="198" y="-114"/>
      <point x="178" y="-103"/>
      <point x="146" y="-103" type="curve" smooth="yes"/>
      <point x="133" y="-103"/>
      <point x="117" y="-104"/>
      <point x="101" y="-107" type="curve"/>
      <point x="126" y="18" type="line"/>
    </contour>
  </outline>
</glyph>
<glyph name="onesuperior" format="1">
  <advance width="224"/>
  <unicode hex="00B9"/>
  <outline>
    <contour>
      <point x="152" y="320" type="line"/>
      <point x="144" y="339" type="line"/>
      <point x="162" y="332"/>
      <point x="178" y="328"/>
      <point x="198" y="326" type="curve"/>
      <point x="198" y="318"/>
      <point x="197" y="299"/>
      <point x="195" y="293" type="curve"/>
      <point x="33" y="293" type="line"/>
      <point x="32" y="300"/>
      <point x="33" y="318"/>
      <point x="36" y="326" type="curve"/>
      <point x="65" y="329"/>
      <point x="85" y="334"/>
      <point x="85" y="353" type="curve" smooth="yes"/>
      <point x="85" y="586" type="line"/>
      <point x="107" y="561" type="line"/>
      <point x="36" y="550" type="line"/>
      <point x="35" y="558"/>
      <point x="35" y="573"/>
      <point x="37" y="579" type="curve"/>
      <point x="74" y="602"/>
      <point x="107" y="620"/>
      <point x="137" y="634" type="curve"/>
      <point x="152" y="628" type="line"/>
    </contour>
  </outline>
</glyph>
<glyph name="ordmasculine" format="1">
  <advance width="379"/>
  <unicode hex="00BA"/>
  <outline>
    <contour>
      <point x="357" y="475" type="curve" smooth="yes"/>
      <point x="357" y="365"/>
      <point x="284" y="306"/>
      <point x="189" y="306" type="curve" smooth="yes"/>
      <point x="92" y="306"/>
      <point x="22" y="365"/>
      <point x="22" y="475" type="curve" smooth="yes"/>
      <point x="22" y="585"/>
      <point x="94" y="645"/>
      <point x="189" y="645" type="curve" smooth="yes"/>
      <point x="286" y="645"/>
      <point x="357" y="586"/>
    </contour>
    <contour>
      <point x="114" y="475" type="curve" smooth="yes"/>
      <point x="117" y="391"/>
      <point x="143" y="348"/>
      <point x="193" y="348" type="curve" smooth="yes"/>
      <point x="244" y="348"/>
      <point x="267" y="391"/>
      <point x="265" y="475" type="curve" smooth="yes"/>
      <point x="262" y="560"/>
      <point x="236" y="604"/>
      <point x="186" y="604" type="curve" smooth="yes"/>
      <point x="135" y="605"/>
      <point x="112" y="560"/>
    </contour>
  </outline>
</glyph>
<glyph name="guillemotright" format="1">
  <advance width="688"/>
  <unicode hex="00BB"/>
  <outline>
    <contour>
      <point x="123" y="488" type="line"/>
      <point x="241" y="314" type="line"/>
      <point x="123" y="139" type="line"/>
      <point x="169" y="114" type="line"/>
      <point x="344" y="314" type="line"/>
      <point x="169" y="512" type="line"/>
    </contour>
    <contour>
      <point x="347" y="488" type="line"/>
      <point x="466" y="314" type="line"/>
      <point x="347" y="139" type="line"/>
      <point x="395" y="114" type="line"/>
      <point x="570" y="314" type="line"/>
      <point x="395" y="512" type="line"/>
    </contour>
  </outline>
</glyph>
<glyph name="onequarter" format="1">
  <advance width="739"/>
  <unicode hex="00BC"/>
  <outline>
    <contour>
      <point x="203" y="254" type="line"/>
      <point x="196" y="278" type="line"/>
      <point x="216" y="268"/>
      <point x="236" y="263"/>
      <point x="260" y="262" type="curve"/>
      <point x="260" y="252"/>
      <point x="259" y="235"/>
      <point x="257" y="225" type="curve"/>
      <point x="55" y="225" type="line"/>
      <point x="54" y="236"/>
      <point x="55" y="252"/>
      <point x="59" y="262" type="curve"/>
      <point x="95" y="266"/>
      <point x="120" y="271"/>
      <point x="120" y="296" type="curve" smooth="yes"/>
      <point x="120" y="591" type="line"/>
      <point x="147" y="566" type="line"/>
      <point x="59" y="552" type="line"/>
      <point x="58" y="562"/>
      <point x="58" y="575"/>
      <point x="61" y="582" type="curve"/>
      <point x="107" y="609"/>
      <point x="148" y="633"/>
      <point x="185" y="650" type="curve"/>
      <point x="203" y="643" type="line"/>
    </contour>
    <contour>
      <point x="531" y="675" type="line"/>
      <point x="175" y="-37" type="line"/>
      <point x="227" y="-37" type="line"/>
      <point x="583" y="675" type="line"/>
    </contour>
    <contour>
      <point x="583" y="318" type="line"/>
      <point x="443" y="127" type="line"/>
      <point x="427" y="147" type="line"/>
      <point x="561" y="147" type="line"/>
      <point x="561" y="323" type="line"/>
    </contour>
    <contour>
      <point x="635" y="147" type="line"/>
      <point x="693" y="147" type="line"/>
      <point x="697" y="128"/>
      <point x="698" y="115"/>
      <point x="696" y="101" type="curve"/>
      <point x="635" y="101" type="line"/>
      <point x="635" y="23" type="line"/>
      <point x="628" y="49" type="line"/>
      <point x="643" y="40"/>
      <point x="660" y="37"/>
      <point x="676" y="37" type="curve"/>
      <point x="676" y="28"/>
      <point x="675" y="8"/>
      <point x="673" y="0" type="curve"/>
      <point x="517" y="0" type="line"/>
      <point x="516" y="9"/>
      <point x="517" y="29"/>
      <point x="520" y="37" type="curve"/>
      <point x="547" y="41"/>
      <point x="561" y="42"/>
      <point x="561" y="68" type="curve"/>
      <point x="561" y="101" type="line"/>
      <point x="411" y="101" type="line"/>
      <point x="404" y="113"/>
      <point x="397" y="125"/>
      <point x="394" y="139" type="curve"/>
      <point x="590" y="414" type="line"/>
      <point x="635" y="414" type="line"/>
    </contour>
  </outline>
</glyph>
<glyph name="onehalf" format="1">
  <advance width="794"/>
  <unicode hex="00BD"/>
  <outline>
    <contour>
      <point x="203" y="254" type="line"/>
      <point x="196" y="278" type="line"/>
      <point x="216" y="268"/>
      <point x="236" y="263"/>
      <point x="260" y="262" type="curve"/>
      <point x="260" y="252"/>
      <point x="259" y="235"/>
      <point x="257" y="225" type="curve"/>
      <point x="55" y="225" type="line"/>
      <point x="54" y="236"/>
      <point x="55" y="252"/>
      <point x="59" y="262" type="curve"/>
      <point x="95" y="266"/>
      <point x="120" y="271"/>
      <point x="120" y="296" type="curve" smooth="yes"/>
      <point x="120" y="591" type="line"/>
      <point x="147" y="566" type="line"/>
      <point x="59" y="552" type="line"/>
      <point x="58" y="562"/>
      <point x="58" y="575"/>
      <point x="61" y="582" type="curve"/>
      <point x="107" y="609"/>
      <point x="148" y="633"/>
      <point x="185" y="650" type="curve"/>
      <point x="203" y="643" type="line"/>
    </contour>
    <contour>
      <point x="531" y="675" type="line"/>
      <point x="175" y="-37" type="line"/>
      <point x="227" y="-37" type="line"/>
      <point x="583" y="675" type="line"/>
    </contour>
    <contour>
      <point x="493" y="388" type="curve"/>
      <point x="489" y="360"/>
      <point x="488" y="330"/>
      <point x="489" y="302" type="curve"/>
      <point x="495" y="301"/>
      <point x="509" y="301"/>
      <point x="516" y="301" type="curve"/>
      <point x="525" y="341"/>
      <point x="551" y="360"/>
      <point x="582" y="360" type="curve" smooth="yes"/>
      <point x="614" y="360"/>
      <point x="638" y="334"/>
      <point x="638" y="297" type="curve" smooth="yes"/>
      <point x="638" y="234"/>
      <point x="602" y="193"/>
      <point x="472" y="57" type="curve"/>
      <point x="472" y="46"/>
      <point x="475" y="21"/>
      <point x="479" y="0" type="curve"/>
      <point x="717" y="0" type="line"/>
      <point x="729" y="39"/>
      <point x="732" y="87"/>
      <point x="732" y="122" type="curve"/>
      <point x="726" y="126"/>
      <point x="717" y="126"/>
      <point x="711" y="126" type="curve"/>
      <point x="703" y="80"/>
      <point x="688" y="67"/>
      <point x="653" y="67" type="curve" smooth="yes"/>
      <point x="508" y="67" type="line"/>
      <point x="525" y="48" type="line"/>
      <point x="680" y="191"/>
      <point x="727" y="231"/>
      <point x="727" y="305" type="curve" smooth="yes"/>
      <point x="727" y="372"/>
      <point x="679" y="422"/>
      <point x="601" y="422" type="curve" smooth="yes"/>
      <point x="560" y="422"/>
      <point x="524" y="410"/>
    </contour>
  </outline>
</glyph>
<glyph name="threequarters" format="1">
  <advance width="755"/>
  <unicode hex="00BE"/>
  <outline>
    <contour>
      <point x="546" y="675" type="line"/>
      <point x="193" y="-37" type="line"/>
      <point x="245" y="-37" type="line"/>
      <point x="598" y="675" type="line"/>
    </contour>
    <contour>
      <point x="650" y="147" type="line"/>
      <point x="708" y="147" type="line"/>
      <point x="712" y="128"/>
      <point x="713" y="115"/>
      <point x="711" y="101" type="curve"/>
      <point x="650" y="101" type="line"/>
      <point x="650" y="23" type="line"/>
      <point x="643" y="49" type="line"/>
      <point x="658" y="40"/>
      <point x="675" y="37"/>
      <point x="691" y="37" type="curve"/>
      <point x="691" y="28"/>
      <point x="690" y="8"/>
      <point x="688" y="0" type="curve"/>
      <point x="532" y="0" type="line"/>
      <point x="531" y="9"/>
      <point x="532" y="29"/>
      <point x="535" y="37" type="curve"/>
      <point x="562" y="41"/>
      <point x="576" y="42"/>
      <point x="576" y="68" type="curve"/>
      <point x="576" y="101" type="line"/>
      <point x="426" y="101" type="line"/>
      <point x="419" y="113"/>
      <point x="412" y="125"/>
      <point x="409" y="139" type="curve"/>
      <point x="605" y="414" type="line"/>
      <point x="650" y="414" type="line"/>
    </contour>
    <contour>
      <point x="598" y="318" type="line"/>
      <point x="458" y="127" type="line"/>
      <point x="442" y="147" type="line"/>
      <point x="576" y="147" type="line"/>
      <point x="576" y="323" type="line"/>
    </contour>
    <contour>
      <point x="307" y="556" type="curve" smooth="yes"/>
      <point x="307" y="510"/>
      <point x="267" y="464"/>
      <point x="205" y="443" type="curve"/>
      <point x="205" y="457" type="line"/>
      <point x="279" y="441"/>
      <point x="316" y="400"/>
      <point x="316" y="344" type="curve" smooth="yes"/>
      <point x="316" y="276"/>
      <point x="251" y="224"/>
      <point x="173" y="224" type="curve" smooth="yes"/>
      <point x="126" y="224"/>
      <point x="89" y="238"/>
      <point x="56" y="265" type="curve"/>
      <point x="62" y="281"/>
      <point x="69" y="297"/>
      <point x="78" y="304" type="curve"/>
      <point x="100" y="288"/>
      <point x="128" y="278"/>
      <point x="162" y="278" type="curve" smooth="yes"/>
      <point x="204" y="278"/>
      <point x="232" y="303"/>
      <point x="232" y="339" type="curve" smooth="yes"/>
      <point x="232" y="388"/>
      <point x="198" y="411"/>
      <point x="139" y="413" type="curve"/>
      <point x="139" y="457" type="line"/>
      <point x="190" y="462"/>
      <point x="218" y="491"/>
      <point x="218" y="532" type="curve" smooth="yes"/>
      <point x="218" y="569"/>
      <point x="196" y="593"/>
      <point x="166" y="593" type="curve" smooth="yes"/>
      <point x="135" y="593"/>
      <point x="108" y="574"/>
      <point x="99" y="535" type="curve"/>
      <point x="92" y="535"/>
      <point x="78" y="535"/>
      <point x="73" y="536" type="curve"/>
      <point x="72" y="564"/>
      <point x="72" y="593"/>
      <point x="76" y="620" type="curve"/>
      <point x="108" y="640"/>
      <point x="146" y="653"/>
      <point x="194" y="653" type="curve" smooth="yes"/>
      <point x="255" y="653"/>
      <point x="307" y="613"/>
    </contour>
  </outline>
</glyph>
<glyph name="AE" format="1">
  <advance width="881"/>
  <unicode hex="00C6"/>
  <outline>
    <contour>
      <point x="434" y="510" type="line"/>
      <point x="382" y="420" type="line"/>
      <point x="136" y="43" type="line"/>
      <point x="133" y="83" type="line"/>
      <point x="159" y="64"/>
      <point x="186" y="51"/>
      <point x="217" y="50" type="curve"/>
      <point x="217" y="33"/>
      <point x="216" y="16"/>
      <point x="213" y="0" type="curve"/>
      <point x="3" y="0" type="line"/>
      <point x="2" y="16"/>
      <point x="4" y="35"/>
      <point x="7" y="50" type="curve"/>
      <point x="56" y="56"/>
      <point x="83" y="76"/>
      <point x="107" y="112" type="curve" smooth="yes"/>
      <point x="424" y="594" type="line"/>
    </contour>
    <contour>
      <point x="446" y="217" type="line"/>
      <point x="209" y="217" type="line"/>
      <point x="236" y="274" type="line"/>
      <point x="467" y="274" type="line"/>
    </contour>
    <contour>
      <point x="721" y="285" type="line"/>
      <point x="683" y="285" type="line"/>
      <point x="526" y="294" type="line"/>
      <point x="526" y="345" type="line"/>
      <point x="683" y="358" type="line"/>
      <point x="721" y="358" type="line"/>
    </contour>
    <contour>
      <point x="825" y="469" type="curve"/>
      <point x="815" y="468"/>
      <point x="787" y="467"/>
      <point x="773" y="467" type="curve"/>
      <point x="766" y="538"/>
      <point x="762" y="584"/>
      <point x="691" y="584" type="curve" smooth="yes"/>
      <point x="511" y="584" type="line"/>
      <point x="547" y="619" type="line"/>
      <point x="547" y="17" type="line"/>
      <point x="511" y="53" type="line"/>
      <point x="697" y="53" type="line" smooth="yes"/>
      <point x="768" y="53"/>
      <point x="775" y="101"/>
      <point x="782" y="175" type="curve"/>
      <point x="797" y="176"/>
      <point x="827" y="175"/>
      <point x="837" y="172" type="curve"/>
      <point x="841" y="113"/>
      <point x="842" y="59"/>
      <point x="840" y="0" type="curve"/>
      <point x="353" y="0" type="line"/>
      <point x="352" y="15"/>
      <point x="353" y="33"/>
      <point x="358" y="46" type="curve"/>
      <point x="397" y="52"/>
      <point x="421" y="62"/>
      <point x="421" y="102" type="curve" smooth="yes"/>
      <point x="421" y="588" type="line"/>
      <point x="425" y="575" type="line"/>
      <point x="405" y="586"/>
      <point x="373" y="590"/>
      <point x="351" y="590" type="curve"/>
      <point x="350" y="603"/>
      <point x="352" y="623"/>
      <point x="355" y="635" type="curve"/>
      <point x="830" y="635" type="line"/>
      <point x="832" y="581"/>
      <point x="831" y="524"/>
    </contour>
  </outline>
</glyph>
<glyph name="Eth" format="1">
  <advance width="666"/>
  <unicode hex="00D0"/>
  <outline>
    <contour>
      <point x="348" y="348" type="line"/>
      <point x="353" y="330"/>
      <point x="353" y="311"/>
      <point x="348" y="292" type="curve"/>
      <point x="32" y="292" type="line"/>
      <point x="28" y="311"/>
      <point x="28" y="330"/>
      <point x="32" y="348" type="curve"/>
    </contour>
    <component base="D"/>
  </outline>
</glyph>
<glyph name="multiply" format="1">
  <advance width="531"/>
  <unicode hex="00D7"/>
  <outline>
    <contour>
      <point x="452" y="449" type="line"/>
      <point x="490" y="396" type="line"/>
      <point x="91" y="230" type="line"/>
      <point x="55" y="282" type="line"/>
    </contour>
    <contour>
      <point x="338" y="103" type="line"/>
      <point x="47" y="405" type="line"/>
      <point x="210" y="576" type="line"/>
      <point x="499" y="273" type="line"/>
    </contour>
  </outline>
</glyph>
<glyph name="Oslash" format="1">
  <advance width="692"/>
  <unicode hex="00D8"/>
  <outline>
    <contour>
      <point x="347" y="635" type="move" name="top"/>
    </contour>
    <contour>
      <point x="345" y="-14" type="curve" smooth="yes"/>
      <point x="145" y="-14"/>
      <point x="52" y="119"/>
      <point x="52" y="316" type="curve" smooth="yes"/>
      <point x="52" y="513"/>
      <point x="170" y="649"/>
      <point x="345" y="649" type="curve" smooth="yes"/>
      <point x="520" y="649"/>
      <point x="641" y="513"/>
      <point x="641" y="316" type="curve" smooth="yes"/>
      <point x="641" y="119"/>
      <point x="520" y="-14"/>
    </contour>
    <contour>
      <point x="491" y="317" type="curve" smooth="yes"/>
      <point x="484" y="480"/>
      <point x="444" y="588"/>
      <point x="336" y="588" type="curve" smooth="yes"/>
      <point x="230" y="588"/>
      <point x="196" y="471"/>
      <point x="202" y="316" type="curve" smooth="yes"/>
      <point x="208" y="153"/>
      <point x="246" y="47"/>
      <point x="354" y="47" type="curve" smooth="yes"/>
      <point x="460" y="47"/>
      <point x="496" y="159"/>
    </contour>
    <contour>
      <point x="127" y="-14" type="line"/>
      <point x="52" y="-14" type="line"/>
      <point x="571" y="648" type="line"/>
      <point x="646" y="648" type="line"/>
    </contour>
  </outline>
</glyph>
<glyph name="Thorn" format="1">
  <advance width="597"/>
  <unicode hex="00DE"/>
  <outline>
    <contour>
      <point x="234" y="36" type="line"/>
      <point x="224" y="64" type="line"/>
      <point x="247" y="50"/>
      <point x="280" y="47"/>
      <point x="303" y="46" type="curve"/>
      <point x="304" y="32"/>
      <point x="302" y="14"/>
      <point x="300" y="0" type="curve"/>
      <point x="40" y="0" type="line"/>
      <point x="39" y="15"/>
      <point x="40" y="33"/>
      <point x="45" y="46" type="curve"/>
      <point x="84" y="52"/>
      <point x="108" y="62"/>
      <point x="108" y="102" type="curve" smooth="yes"/>
      <point x="108" y="589" type="line"/>
      <point x="117" y="573" type="line"/>
      <point x="94" y="585"/>
      <point x="62" y="589"/>
      <point x="37" y="590" type="curve"/>
      <point x="37" y="603"/>
      <point x="38" y="623"/>
      <point x="42" y="635" type="curve"/>
      <point x="301" y="635" type="line"/>
      <point x="302" y="622"/>
      <point x="301" y="603"/>
      <point x="297" y="590" type="curve"/>
      <point x="258" y="584"/>
      <point x="234" y="574"/>
      <point x="234" y="535" type="curve" smooth="yes"/>
    </contour>
    <contour>
      <point x="342" y="491" type="line"/>
      <point x="486" y="491"/>
      <point x="578" y="429"/>
      <point x="578" y="324" type="curve" smooth="yes"/>
      <point x="578" y="219"/>
      <point x="486" y="159"/>
      <point x="342" y="159" type="curve" smooth="yes"/>
      <point x="201" y="159" type="line"/>
      <point x="201" y="210" type="line"/>
      <point x="316" y="210" type="line" smooth="yes"/>
      <point x="390" y="210"/>
      <point x="441" y="249"/>
      <point x="441" y="324" type="curve" smooth="yes"/>
      <point x="441" y="399"/>
      <point x="398" y="438"/>
      <point x="316" y="438" type="curve" smooth="yes"/>
      <point x="201" y="438" type="line"/>
      <point x="201" y="491" type="line"/>
    </contour>
  </outline>
</glyph>
<glyph name="germandbls" format="1">
  <advance width="639"/>
  <unicode hex="00DF"/>
  <outline>
    <contour>
      <point x="293" y="661" type="move" name="top"/>
    </contour>
    <contour>
      <point x="563" y="466" type="curve" smooth="yes"/>
      <point x="563" y="390"/>
      <point x="511" y="344"/>
      <point x="430" y="326" type="curve"/>
      <point x="420" y="342" type="line"/>
      <point x="528" y="330"/>
      <point x="589" y="263"/>
      <point x="589" y="174" type="curve" smooth="yes"/>
      <point x="589" y="85"/>
      <point x="526" y="0"/>
      <point x="368" y="0" type="curve" smooth="yes"/>
      <point x="341" y="0"/>
      <point x="313" y="4"/>
      <point x="291" y="12" type="curve"/>
      <point x="287" y="29"/>
      <point x="287" y="45"/>
      <point x="291" y="62" type="curve"/>
      <point x="308" y="56"/>
      <point x="325" y="53"/>
      <point x="342" y="53" type="curve" smooth="yes"/>
      <point x="413" y="53"/>
      <point x="453" y="97"/>
      <point x="453" y="174" type="curve" smooth="yes"/>
      <point x="453" y="252"/>
      <point x="413" y="297"/>
      <point x="336" y="297" type="curve" smooth="yes"/>
      <point x="306" y="297" type="line"/>
      <point x="300" y="315"/>
      <point x="299" y="334"/>
      <point x="303" y="349" type="curve"/>
      <point x="352" y="349" type="line"/>
      <point x="399" y="371"/>
      <point x="426" y="411"/>
      <point x="426" y="466" type="curve" smooth="yes"/>
      <point x="426" y="541"/>
      <point x="394" y="584"/>
      <point x="329" y="584" type="curve" smooth="yes"/>
      <point x="263" y="584"/>
      <point x="234" y="536"/>
      <point x="234" y="460" type="curve" smooth="yes"/>
      <point x="234" y="0" type="line"/>
      <point x="38" y="0" type="line"/>
      <point x="37" y="15"/>
      <point x="38" y="33"/>
      <point x="43" y="47" type="curve"/>
      <point x="82" y="53"/>
      <point x="107" y="63"/>
      <point x="107" y="103" type="curve" smooth="yes"/>
      <point x="107" y="427" type="line" smooth="yes"/>
      <point x="107" y="565"/>
      <point x="196" y="635"/>
      <point x="346" y="635" type="curve" smooth="yes"/>
      <point x="483" y="635"/>
      <point x="563" y="558"/>
    </contour>
  </outline>
</glyph>
<glyph name="ae" format="1">
  <advance width="743"/>
  <unicode hex="00E6"/>
  <outline>
    <contour>
      <point x="301" y="231" type="line"/>
      <point x="241" y="214" type="line" smooth="yes"/>
      <point x="188" y="198"/>
      <point x="163" y="168"/>
      <point x="163" y="126" type="curve" smooth="yes"/>
      <point x="163" y="88"/>
      <point x="186" y="66"/>
      <point x="219" y="66" type="curve" smooth="yes"/>
      <point x="261" y="66"/>
      <point x="289" y="92"/>
      <point x="312" y="132" type="curve"/>
      <point x="342" y="97" type="line"/>
      <point x="308" y="34"/>
      <point x="252" y="-13"/>
      <point x="173" y="-13" type="curve" smooth="yes"/>
      <point x="85" y="-13"/>
      <point x="32" y="43"/>
      <point x="32" y="115" type="curve" smooth="yes"/>
      <point x="32" y="191"/>
      <point x="81" y="233"/>
      <point x="177" y="252" type="curve" smooth="yes"/>
      <point x="299" y="278" type="line"/>
    </contour>
    <contour>
      <point x="376" y="416" type="curve"/>
      <point x="419" y="453"/>
      <point x="475" y="471"/>
      <point x="528" y="471" type="curve" smooth="yes"/>
      <point x="618" y="471"/>
      <point x="709" y="421"/>
      <point x="709" y="277" type="curve"/>
      <point x="705" y="266"/>
      <point x="699" y="254"/>
      <point x="693" y="245" type="curve"/>
      <point x="391" y="245" type="line"/>
      <point x="391" y="289" type="line"/>
      <point x="513" y="298" type="line"/>
      <point x="584" y="299" type="line"/>
      <point x="583" y="381"/>
      <point x="554" y="410"/>
      <point x="517" y="410" type="curve" smooth="yes"/>
      <point x="471" y="410"/>
      <point x="417" y="366"/>
      <point x="417" y="235" type="curve" smooth="yes"/>
      <point x="417" y="111"/>
      <point x="470" y="65"/>
      <point x="545" y="65" type="curve" smooth="yes"/>
      <point x="591" y="65"/>
      <point x="640" y="79"/>
      <point x="688" y="102" type="curve"/>
      <point x="705" y="73" type="line"/>
      <point x="659" y="23"/>
      <point x="593" y="-13"/>
      <point x="510" y="-13" type="curve" smooth="yes"/>
      <point x="412" y="-13"/>
      <point x="285" y="59"/>
      <point x="285" y="219" type="curve" smooth="yes"/>
      <point x="285" y="310" type="line" smooth="yes"/>
      <point x="285" y="361"/>
      <point x="261" y="384"/>
      <point x="208" y="384" type="curve" smooth="yes"/>
      <point x="166" y="384"/>
      <point x="128" y="376"/>
      <point x="88" y="362" type="curve"/>
      <point x="63" y="399" type="line"/>
      <point x="118" y="447"/>
      <point x="181" y="471"/>
      <point x="257" y="471" type="curve" smooth="yes"/>
      <point x="313" y="471"/>
      <point x="354" y="451"/>
    </contour>
  </outline>
</glyph>
<glyph name="eth" format="1">
  <advance width="526"/>
  <unicode hex="00F0"/>
  <outline>
    <contour>
      <point x="487" y="277" type="curve" smooth="yes"/>
      <point x="487" y="97"/>
      <point x="380" y="-11"/>
      <point x="252" y="-11" type="curve" smooth="yes"/>
      <point x="128" y="-11"/>
      <point x="31" y="63"/>
      <point x="31" y="220" type="curve" smooth="yes"/>
      <point x="31" y="371"/>
      <point x="160" y="471"/>
      <point x="302" y="471" type="curve" smooth="yes"/>
      <point x="339" y="471"/>
      <point x="364" y="469"/>
      <point x="392" y="464" type="curve"/>
      <point x="385" y="383" type="line"/>
      <point x="356" y="400"/>
      <point x="328" y="408"/>
      <point x="293" y="408" type="curve" smooth="yes"/>
      <point x="208" y="408"/>
      <point x="160" y="346"/>
      <point x="162" y="220" type="curve" smooth="yes"/>
      <point x="166" y="105"/>
      <point x="201" y="47"/>
      <point x="258" y="47" type="curve" smooth="yes"/>
      <point x="321" y="47"/>
      <point x="355" y="133"/>
      <point x="355" y="268" type="curve" smooth="yes"/>
      <point x="355" y="442"/>
      <point x="328" y="555"/>
      <point x="201" y="691" type="curve"/>
      <point x="239" y="726" type="line"/>
      <point x="382" y="614"/>
      <point x="487" y="448"/>
    </contour>
    <contour>
      <point x="465" y="640" type="curve"/>
      <point x="186" y="518" type="line"/>
      <point x="171" y="529"/>
      <point x="163" y="546"/>
      <point x="158" y="567" type="curve"/>
      <point x="437" y="688" type="line"/>
      <point x="451" y="675"/>
      <point x="460" y="659"/>
    </contour>
  </outline>
</glyph>
<glyph name="divide" format="1">
  <advance width="649"/>
  <unicode hex="00F7"/>
  <outline>
    <contour>
      <point x="602" y="373" type="line"/>
      <point x="602" y="291" type="line"/>
      <point x="47" y="291" type="line"/>
      <point x="47" y="373" type="line"/>
    </contour>
    <contour>
      <point x="397" y="142" type="curve" smooth="yes"/>
      <point x="397" y="103"/>
      <point x="364" y="71"/>
      <point x="324" y="71" type="curve" smooth="yes"/>
      <point x="285" y="71"/>
      <point x="253" y="103"/>
      <point x="253" y="142" type="curve" smooth="yes"/>
      <point x="253" y="183"/>
      <point x="285" y="216"/>
      <point x="324" y="216" type="curve" smooth="yes"/>
      <point x="364" y="216"/>
      <point x="397" y="183"/>
    </contour>
    <contour>
      <point x="397" y="520" type="curve" smooth="yes"/>
      <point x="397" y="481"/>
      <point x="364" y="449"/>
      <point x="324" y="449" type="curve" smooth="yes"/>
      <point x="285" y="449"/>
      <point x="253" y="481"/>
      <point x="253" y="520" type="curve" smooth="yes"/>
      <point x="253" y="559"/>
      <point x="285" y="592"/>
      <point x="324" y="592" type="curve" smooth="yes"/>
      <point x="364" y="592"/>
      <point x="397" y="559"/>
    </contour>
  </outline>
</glyph>
<glyph name="oslash" format="1">
  <advance width="541"/>
  <unicode hex="00F8"/>
  <outline>
    <contour>
      <point x="271" y="459" type="move" name="top"/>
    </contour>
    <contour>
      <point x="510" y="230" type="curve" smooth="yes"/>
      <point x="510" y="73"/>
      <point x="406" y="-11"/>
      <point x="270" y="-11" type="curve" smooth="yes"/>
      <point x="131" y="-11"/>
      <point x="31" y="73"/>
      <point x="31" y="230" type="curve" smooth="yes"/>
      <point x="31" y="388"/>
      <point x="135" y="471"/>
      <point x="271" y="471" type="curve" smooth="yes"/>
      <point x="408" y="471"/>
      <point x="510" y="388"/>
    </contour>
    <contour>
      <point x="162" y="230" type="curve" smooth="yes"/>
      <point x="167" y="109"/>
      <point x="204" y="47"/>
      <point x="276" y="47" type="curve" smooth="yes"/>
      <point x="348" y="47"/>
      <point x="381" y="109"/>
      <point x="378" y="230" type="curve" smooth="yes"/>
      <point x="374" y="350"/>
      <point x="337" y="413"/>
      <point x="266" y="413" type="curve" smooth="yes"/>
      <point x="194" y="413"/>
      <point x="159" y="350"/>
    </contour>
    <contour>
      <point x="93" y="-11" type="line"/>
      <point x="31" y="-11" type="line"/>
      <point x="448" y="471" type="line"/>
      <point x="510" y="471" type="line"/>
    </contour>
  </outline>
</glyph>
